<svg width="136" height="44" viewBox="0 0 136 44" fill="none" xmlns="http://www.w3.org/2000/svg">
<path d="M23 29.1569L19.5514 31L18.4419 28.6039C17.2924 29.9995 15.5948 31 13.3893 31C9.19215 31 7 27.5771 7 22.2847C7 16.5315 9.59315 13.4377 13.7235 13.4377C15.6617 13.4377 17.1721 14.1487 18.1479 15.4783V7H21.6901V26.5765L23 29.1569ZM18.1479 26.8267V17.8086C17.2256 17.0713 16.076 16.6105 14.873 16.6105C12.2531 16.6105 10.7026 18.5853 10.7026 22.2979C10.7026 25.8524 12.1462 27.8272 14.8062 27.8272C15.9825 27.8272 17.1988 27.4454 18.1479 26.8267Z" fill="black"/>
<path d="M39.5787 23.3978H28.4851C28.7149 26.4045 30.9362 28.427 34.4468 28.427C36.234 28.427 38.1745 28.036 39.4894 27.3079L38.4298 30.9753C37.3319 31.609 35.4809 32 33.3617 32C28.3191 32 25 28.4 25 22.8989C25 17.3708 28.166 14 33.2085 14C37.3702 14 40 16.5079 40 20.5798C39.9872 21.5101 39.834 22.6022 39.5787 23.3978ZM28.6894 20.9169H36.6809C36.5277 18.3416 35.366 17.1146 33.2085 17.1146C30.8468 17.1146 29.2128 18.5303 28.6894 20.9169Z" fill="black"/>
<path d="M48.4867 31L42 14H45.7807L50.0015 25.8773L50.4806 27.3485H50.6101L51.0891 25.8773L55.2841 14H59L52.5522 31H48.4867Z" fill="black"/>
<path d="M70.1186 14.3494H77.6085L77.1257 17.0508H69.6358L67.013 32.1867C66.2823 36.4109 63.4899 38 59.5884 38C57.8007 38 56.9656 37.7352 56.0652 37.5498L56 34.8219C56.9004 34.9808 57.9573 35.0867 59.4318 35.0867C61.7675 35.0867 63.3072 34.1465 63.6595 32.1602L66.2823 17.0508H61.0629L61.5457 14.3494H66.7651L67.0261 12.7868C67.7568 8.58906 70.5101 7 74.3855 7C76.2123 7 77.1388 7.26484 77.9348 7.45024L78 10.2443C77.0996 10.0192 76.0427 9.91329 74.5682 9.91329C72.2586 9.91329 70.7319 10.8535 70.3796 12.8398L70.1186 14.3494Z" fill="black"/>
<path d="M93.5915 23.3978H82.4979C82.7149 26.4045 84.9362 28.427 88.4468 28.427C90.234 28.427 92.1745 28.036 93.4894 27.3079L92.4298 30.9753C91.3319 31.609 89.4809 32 87.3617 32C82.3191 32 79 28.4 79 22.8989C79 17.3708 82.166 14 87.2085 14C91.3702 14 94 16.5079 94 20.5798C93.9872 21.5101 93.834 22.6022 93.5915 23.3978ZM82.6894 20.9169H90.6809C90.5277 18.3416 89.366 17.1146 87.2085 17.1146C84.8468 17.1146 83.2128 18.5303 82.6894 20.9169Z" fill="black"/>
<path d="M98.2178 30.5647L98 26.7421C99.4474 27.8017 102.086 28.7138 104.853 28.7138C106.953 28.7138 108.465 28.0163 108.465 26.4738C108.465 23.2548 98.3458 26.2458 98.3458 19.6602C98.3458 16.6021 100.549 14 105.801 14C109.003 14 111.462 14.8182 111.462 16.8569C111.462 17.4873 111.206 18.0104 110.962 18.5067C109.579 17.8092 107.414 17.3264 105.583 17.3264C103.072 17.3264 101.753 18.3189 101.753 19.4053C101.753 22.2622 112 19.7675 112 26.1788C112 29.7599 108.977 31.9999 104.494 31.9999C101.42 32.0133 99.1272 30.9939 98.2178 30.5647Z" fill="black"/>
<path d="M130 27.9758L129.311 31.2804C128.494 31.6402 126.872 32 125.366 32C121.319 32 119.609 29.8147 119.609 26.7099V17.622H115V14.6505H119.609V10H122.991V14.6372H129.54V17.6087H122.991V25.6172C122.991 27.8025 124.089 28.7886 126.004 28.7886C127.089 28.7886 129.094 28.5354 130 27.9758Z" fill="black"/>
</svg>
