<svg width="897" height="120" viewBox="0 0 897 120" xmlns="http://www.w3.org/2000/svg" xmlns:xlink="http://www.w3.org/1999/xlink">
    <defs>
        <path id="logo-base_svg__a" d="M.414.275h43.05V119.56H.414z"/>
        <path id="logo-base_svg__c" d="M.205 120.285h896.683V1.001H.205z"/>
    </defs>
    <g fill="none" fill-rule="evenodd">
        <path fill="#FDE293" d="M181.576 119.725h54.557V.441h-54.557z"/>
        <path fill="#AECBFA" d="M265.67.44l69.506 119.285V.44z"/>
        <path fill="#4285F4" d="M404.683.44h-69.508v119.285z"/>
        <path d="M48.795.44c33.245 0 60.194 26.704 60.194 59.643 0 32.94-26.95 59.642-60.194 59.642V.44z" fill="#34A853"/>
        <path d="M726.1 89.904c-24.932 0-45.145-20.027-45.145-44.731C680.955 20.467 701.168.44 726.1.44v89.464z" fill="#FBBC04"/>
        <path fill="#EA4335" d="M481.863 30.262H522V.44h-40.137z"/>
        <path fill="#4285F4" d="M786.538 30.262h30.676V.44h-30.676zM866.01 30.262h30.675V.44h-30.676z"/>
        <path fill="#EA4335" d="M481.863 89.905h30.099V60.084h-30.099z"/>
        <path fill="#FBBC04" d="M726.099 30.262h40.13V.44H726.1z"/>
        <path d="M726.1 30.261v59.643h-40.13v29.821h40.13c24.933 0 45.146-20.027 45.146-44.731 0-24.706-20.213-44.733-45.146-44.733" fill="#FDE293"/>
        <path d="M593.75 119.725V.441c-23.776 0-43.05 19.097-43.05 42.655V77.07c0 23.559 19.274 42.655 43.05 42.655" fill="#34A853"/>
        <path fill="#A8DAB5" d="M593.75 119.725h54.556V.441H593.75z"/>
        <path fill="#FAD2CF" d="M433.068 119.725h48.795V.441h-48.795z"/>
        <path fill="#AECBFA" d="M817.212 119.725h48.797V.441h-48.797z"/>
        <path fill="#A8DAB5" d="M0 119.725h48.796V.441H0z"/>
        <g transform="translate(138.112 .166)">
            <mask id="logo-base_svg__b" fill="#fff">
                <use xlink:href="#logo-base_svg__a"/>
            </mask>
            <path d="M43.464 119.56V.274C19.69.275.414 19.373.414 42.93v33.974c0 23.559 19.275 42.655 43.05 42.655" fill="#FBBC04" mask="url(#logo-base_svg__b)"/>
        </g>
    </g>
</svg>
