<svg width="141" height="122" viewBox="0 0 141 122" fill="none" xmlns="http://www.w3.org/2000/svg">
<path d="M2.2235 2.83902C2.01827 2.96695 2.12089 3.28678 2.68527 3.23881L3.11282 2.71109L2.2235 2.83902Z" fill="#DC362E"/>
<path d="M5.98577 3.91045C6.66987 3.67058 7.43947 3.23881 7.02902 2.74307C6.36203 3.23881 6.2081 3.01493 5.4727 3.60661C4.90833 3.60661 4.49787 3.41471 4.60048 3.22282C4.39526 3.35075 3.72826 3.07889 3.40332 3.39872C3.80005 3.61185 4.24375 3.73708 4.70033 3.7648C5.15691 3.79253 5.61421 3.722 6.03708 3.55864C6.24231 3.68657 6.03708 3.8145 5.98577 3.91045Z" fill="#DC362E"/>
<path d="M61.2605 4.9339H60.9014C61.0206 4.94746 61.1412 4.94746 61.2605 4.9339Z" fill="#DC362E"/>
<path d="M95.4993 4.08636C95.2428 4.08636 95.1402 4.16632 95.123 4.2143C95.3625 4.19831 95.5677 4.19831 95.4993 4.08636Z" fill="#DC362E"/>
<path d="M101.383 4.37421H101.041C101.151 4.41358 101.272 4.41358 101.383 4.37421Z" fill="#DC362E"/>
<path d="M61.2607 4.9339L62.1672 5.07782C62.2356 4.90192 61.7054 4.96588 61.2607 4.9339Z" fill="#DC362E"/>
<path d="M13.682 2.80704C13.5135 2.83798 13.3477 2.88074 13.186 2.93497H13.6649L13.682 2.80704Z" fill="#DC362E"/>
<path d="M46.1761 5.55756H45.9025C45.8104 5.61971 45.7296 5.6953 45.6631 5.78144L46.1761 5.55756Z" fill="#DC362E"/>
<path d="M34.564 5.6695C34.8206 5.6695 34.9232 5.23773 35.0258 5.04584C34.8802 5.21245 34.6724 5.32107 34.4443 5.34968C34.4551 5.46395 34.4962 5.5739 34.564 5.6695Z" fill="#DC362E"/>
<path d="M54.4536 5.57355C54.4732 5.63393 54.5085 5.68886 54.5562 5.73346C54.5551 5.70085 54.5451 5.66905 54.5271 5.64107C54.5091 5.61308 54.4839 5.58985 54.4536 5.57355Z" fill="#DC362E"/>
<path d="M0.324707 14.8948C0.324707 14.8948 0.339763 14.8189 0.324707 14.8948V14.8948Z" fill="#DC362E"/>
<path d="M2.7876 2.34329V2.59916H3.07834L2.7876 2.34329Z" fill="#DC362E"/>
<path d="M91.8735 79.0224C92.3524 77.9989 92.3524 80.7335 92.8997 79.1823C92.7115 79.3582 92.2156 77.7591 91.8735 79.0224Z" fill="#DC362E"/>
<path d="M13.9385 2.88699H14.4173C14.2582 2.87035 14.0976 2.87035 13.9385 2.88699Z" fill="#DC362E"/>
<path d="M110.413 26.5863C110.497 26.5237 110.562 26.4408 110.601 26.3465C110.601 26.3465 110.498 26.4104 110.413 26.5863Z" fill="#DC362E"/>
<path d="M110.464 9.4115V9.84327C110.476 9.69961 110.476 9.55516 110.464 9.4115Z" fill="#DC362E"/>
<path d="M111.405 35.4776C111.361 35.6835 111.361 35.8954 111.405 36.1013C111.413 36.0697 111.413 36.0369 111.405 36.0053C111.365 35.9222 111.345 35.8323 111.345 35.7415C111.345 35.6506 111.365 35.5608 111.405 35.4776Z" fill="#DC362E"/>
<path d="M111.747 44.7527L111.849 44.5768C111.841 44.481 111.841 44.3847 111.849 44.2889L111.747 44.7527Z" fill="#DC362E"/>
<path d="M0.906539 43.1375C1.01271 42.9655 1.15882 42.818 1.3341 42.7058C0.99205 42.8497 0.838129 41.4904 0.906539 43.1375Z" fill="#DC362E"/>
<path d="M13.6821 3.0629C13.7123 3.01079 13.7566 2.96707 13.8107 2.93618C13.8648 2.90529 13.9266 2.88832 13.99 2.88699H13.6821C13.6821 2.88699 13.5624 3.03092 13.6821 3.0629Z" fill="#DC362E"/>
<path d="M115.218 35.7335V37.2047C115.243 36.7146 115.243 36.2235 115.218 35.7335Z" fill="#DC362E"/>
<path d="M38.8054 78.3827H38.4463C38.5632 78.4171 38.6885 78.4171 38.8054 78.3827Z" fill="#DC362E"/>
<path d="M115.424 41.5864C115.276 41.8458 115.178 42.1271 115.133 42.4179C115.162 42.4821 115.203 42.5415 115.253 42.5938L115.424 41.5864Z" fill="#DC362E"/>
<path d="M0 32.9829C0 34.3902 0.632787 33.6386 0.991936 33.9264C1.19716 35.5256 0.547275 34.71 0.22233 35.2857C0.536343 36.1456 0.798984 37.0212 1.00904 37.9083C0.906424 37.9083 0.872219 38.1162 0.735401 37.9083C1.24847 39.0117 0.735401 41.2026 1.4879 42.4819C1.45506 42.5527 1.40177 42.6137 1.33398 42.6578C1.45551 42.5671 1.59552 42.5005 1.74547 42.462C1.89542 42.4235 2.05218 42.4139 2.2062 42.4339C2.2062 43.0576 2.61666 43.6013 2.2062 43.8412C2.2062 43.4574 2.03518 43.4254 1.89836 43.2495L2.10359 43.9051C1.52211 44.5128 1.86415 43.0096 1.4366 43.0096C1.79315 44.2419 1.99969 45.5079 2.05228 46.7836C1.4708 47.0075 1.77864 44.4808 1.29978 45.8081L1.4879 44.209C0.598582 45.3923 1.4879 43.2815 0.581479 44.3689C0.461763 46.3838 0.940629 46.6237 0.820912 48.6226C1.16296 49.0704 1.29978 48.4627 1.62472 48.9104C2.29171 51.7409 0.239433 51.1972 1.07745 53.2601C1.4879 53.7878 2.2233 53.9797 1.89836 55.4829L1.21427 55.0032C1.21427 56.9542 2.2062 56.0746 1.84705 58.2015C1.57342 57.8337 1.57342 56.6023 1.50501 56.9701C1.02614 58.3134 1.91546 57.8977 1.94967 58.9051L1.36819 59.129C1.55631 61.2079 2.06938 63.4627 2.27461 65.7495C2.10359 65.6375 1.89836 65.2537 1.74444 65.7495C2.04349 68.7387 2.04349 71.7475 1.74444 74.7367C1.98273 75.2272 2.17722 75.7353 2.32592 76.2559C2.32592 76.6557 2.15489 77.1354 2.03518 76.6876C2.03518 78.7345 2.34302 76.6876 2.59956 77.4392C2.85609 78.1908 2.39433 79.0384 2.2062 78.4307C2.2062 78.7026 2.32592 79.0064 2.37722 79.3262L5.35303 79.0704L8.0552 78.8785C9.2766 78.7747 10.5073 78.8231 11.7151 79.0224L11.2875 79.1663C12.9978 79.3422 13.1859 78.1908 14.708 78.5906L14.4002 78.6866C18.0772 78.8305 22.0962 78.2868 24.9181 78.8945C25.4141 78.2068 28.5609 79.0704 28.749 78.1269C30.2057 78.5419 31.7097 78.7942 33.2298 78.8785C34.0166 78.8785 34.3757 78.2228 35.3334 78.0789V78.5746L36.6161 77.9829L37.3515 78.5426L38.2579 78.3667C37.8988 78.3667 37.4712 78.1908 37.5225 78.0469C38.7155 77.8056 39.9604 77.9406 41.0627 78.4307L44.3977 77.807C44.3977 78.0149 43.782 78.1109 43.3544 78.2708C45.0647 77.6471 43.7136 78.7665 45.3212 78.1908C45.0989 78.0949 45.4238 77.903 45.458 77.791C46.8664 78.0375 48.3125 78.0266 49.7165 77.7591L49.4771 78.1269C51.974 78.0309 54.7617 77.5352 57.4639 77.3593C56.489 77.2633 56.66 76.6557 57.4639 76.5437L57.823 77.0554C58.319 76.7036 56.985 76.9115 58.0111 76.4478C59.0373 76.4478 58.7123 77.0075 58.1479 77.2153L59.3622 76.9915C59.3622 77.1354 59.157 77.2313 59.0886 77.4232C59.5845 77.0874 61.1067 77.919 61.8078 77.4232V77.5832C62.7955 77.6318 63.7783 77.744 64.7495 77.919C65.6226 78.0478 66.4813 78.2512 67.3148 78.5266C67.5371 78.1109 68.2554 78.5266 69.025 78.4147C70.4274 79.1503 71.7956 80.2377 73.5059 81.1652C74.8056 81.629 74.0531 81.0213 74.7372 81.1652C74.6004 81.565 76.3106 82.5245 75.2674 82.2687C77.0267 83.2897 78.8613 84.1928 80.7572 84.9712C80.5691 84.6674 80.2784 84.4275 80.5178 84.3955C81.048 84.6194 81.5439 85.1631 81.3558 85.291H81.2019C82.9821 86.0521 84.6973 86.9396 86.3326 87.9456C87.2027 88.4113 88.1192 88.7969 89.069 89.097L89.7702 89.2409L90.8647 89.4168C91.4784 89.4821 92.0981 89.4821 92.7118 89.4168H92.4723H94.6956C95.2087 89.5768 95.0206 88.9851 95.0377 88.6493V87.5299C95.26 85.6429 95.2771 88.9211 95.6534 87.6258C95.6534 86.9542 95.6534 86.3465 95.5337 85.7548C95.4139 85.1631 95.5337 84.8753 95.5337 84.4595C95.5012 83.9269 95.5012 83.393 95.5337 82.8603C95.6841 81.7989 95.6841 80.7235 95.5337 79.662C95.9828 78.9324 96.2188 78.1052 96.2178 77.2633V76.4957V76.2079V75.9041C96.3302 75.8789 96.4474 75.8789 96.5598 75.9041H97.0729H97.8767L97.6886 75.6482C98.3213 75.2964 98.5266 75.6482 99.0225 75.6482C98.937 75.4403 98.27 75.4723 98.6634 75.2804C101.577 74.8247 104.519 74.5416 107.471 74.4328L112.174 74.2249C112.86 74.2573 113.544 74.143 114.175 73.8908C114.807 73.6387 115.368 73.2552 115.817 72.7697C116.226 72.2687 116.496 71.6809 116.604 71.0586C116.662 70.4148 116.662 69.7675 116.604 69.1237C116.604 67.0928 114.996 68.0203 115.629 65.4456L116.227 66.1652C115.389 62.1034 115.937 57.8177 115.218 53.8518C115.355 54.0757 115.526 54.0757 115.543 54.4755C115.839 53.3972 115.686 52.2543 115.116 51.2772C115.116 50.6535 115.407 51.1333 115.561 50.7335C115.766 49.8859 114.962 48.6386 115.355 48.1748C115.355 48.1748 115.492 48.3987 115.526 48.5586C115.321 48.0149 115.526 45.984 115.03 46.5277C115.201 45.0245 114.722 43.6652 115.03 42.4659C114.466 41.6983 115.184 39.8913 114.432 39.6674C115.201 39.7473 114.962 37.0288 114.551 36.0853C114.808 36.4051 114.774 35.2537 115.099 35.6215C115.099 34.5341 114.876 33.5586 114.483 33.7505C115.338 31.7356 113.594 29.7687 114.74 28.6173C114.209 25.419 113.816 22.4446 113.525 19.5661C114.312 19.6461 113.731 22.7644 114.534 22.6045C113.93 20.309 113.575 17.9624 113.474 15.6002C113.474 14.8806 113.833 15.984 113.97 16.2239C113.542 13.4893 113.85 10.9147 113.337 8.5C113.337 8.5 113.491 8.75586 113.56 9.01173C113.56 8.53198 113.56 7.89232 113.286 7.95629L113.406 8.42004C112.91 9.20362 112.26 6.54904 112.003 6.46908C113.029 7.25267 112.157 4.05437 113.474 5.30171C113.434 5.13989 113.371 4.98389 113.286 4.83795C113.286 4.66205 113.098 4.51812 112.978 4.59808C112.978 3.89446 112.978 3.57463 113.423 4.31023C113.401 3.9371 113.3 3.57186 113.123 3.23655C112.947 2.90124 112.7 2.60282 112.397 2.35928C111.898 1.93189 111.318 1.59561 110.686 1.3678C110.686 1.22388 111.268 1.3678 111.61 1.3678C110.979 1.15815 110.311 1.0658 109.643 1.09595L108.531 1.20789C108.213 1.23273 107.892 1.23273 107.574 1.20789C107.574 1.11194 107.471 0.984009 107.899 0.968018C105.487 1.14392 103.828 2.02345 101.16 1.86354C101.913 1.12793 100.254 1.68763 100.083 1.09595L98.6634 1.33582L99.1936 1.63966C98.0667 1.85825 96.9229 1.99194 95.7731 2.03945L96.6795 1.73561L94.422 1.97548L95.756 2.13539C94.5075 2.5032 95.9441 2.88699 94.2681 2.79105C94.593 2.71109 93.0196 2.79105 92.3526 2.51919C91.6738 2.8109 90.9237 2.92688 90.1806 2.85501C89.9412 2.6791 90.3517 2.18337 90.1806 2.07143C89.5992 2.59915 87.2732 2.32729 86.5207 2.88699C86.615 2.83944 86.6857 2.7593 86.7176 2.66368C86.7496 2.56807 86.7403 2.46456 86.6917 2.37527L86.1958 2.80704C85.6143 2.6951 85.5117 2.63113 85.5972 2.39126C83.887 2.39126 86.1958 3.12687 84.1093 2.871C84.2632 2.871 84.1093 2.77505 84.5198 2.6951C82.4504 2.61514 80.5349 3.11087 78.6195 2.96695C78.0209 2.39126 80.3297 2.77505 79.6114 2.27932C76.8521 2.69257 74.0723 2.97545 71.2825 3.12687H71.7785C71.4365 3.99041 69.7946 2.75906 68.4607 3.12687C68.7856 3.12687 68.8711 2.64712 68.7856 2.74307C66.6168 2.79504 64.4554 3.00355 62.3209 3.36674L62.6459 3.14286C61.5684 2.98294 59.824 3.14286 58.661 3.01493C58.319 3.23881 57.652 3.20682 58.0624 3.51066C54.4709 2.34328 51.2215 4.27825 48.0576 3.27079C48.4338 3.27079 48.964 3.07889 48.6562 3.07889L45.9711 3.30277C46.1763 3.67058 46.3131 3.52665 46.8946 3.79851C46.3684 4.0613 45.7809 4.19862 45.1844 4.19829C46.3986 3.95842 45.1844 3.60661 44.6371 3.41471C44.7397 3.52665 44.6371 3.65458 44.6371 3.76653C43.2176 3.11087 44.3977 4.50213 42.4651 4.07036L42.5677 3.87847C41.8615 4.07006 41.131 4.17225 40.3957 4.1823C40.0879 3.75053 41.1653 3.99041 41.2166 3.63859C40.1221 3.63859 39.0617 4.43817 38.0698 4.02239C38.5316 3.89446 39.2157 3.89446 39.6774 3.78252C39.0445 3.48157 38.3298 3.36461 37.6251 3.4467L35.7781 3.22281L36.257 3.36674C34.8717 4.47015 33.4693 3.55864 31.6222 4.27825C33.418 3.59062 31.913 3.87847 32.0498 3.39872C31.588 3.2548 30.8697 3.11087 31.0749 2.96695C30.2027 3.35075 29.6213 2.66311 28.3899 3.22281C28.3899 3.0629 27.4664 3.22281 27.6545 2.80704C26.5257 2.91898 27.9281 3.07889 27.8255 3.27079C26.1153 3.78252 23.738 2.58316 21.224 3.27079C19.052 3.54264 18.6415 4.05437 16.6235 4.27825C15.9565 4.02239 17.1879 3.73454 17.1879 3.73454C16.2198 3.52767 15.2143 3.52767 14.2462 3.73454C14.4515 3.59062 14.2462 3.47868 13.9384 3.30277C13.1004 3.30277 13.374 3.84648 12.2282 3.60661C12.4649 3.35304 12.7488 3.14173 13.0662 2.98294C12.0914 3.11087 11.1165 3.38273 10.1075 3.51066C9.85095 3.22282 10.7232 3.11087 11.0823 2.93497C9.95356 3.03092 8.14071 3.11087 7.78156 3.54264L8.49986 3.70256C8.08941 3.70256 8.31174 3.33476 8.61958 3.27079C9.59441 2.95096 10.0049 3.4467 10.0562 3.60661H9.33788C10.0562 4.53412 12.2282 3.60661 13.6819 3.60661L13.0491 4.26226L14.5541 3.73454C14.8619 3.91045 15.0672 4.29424 14.3489 4.3742C15.3921 4.758 15.3921 4.19829 16.2301 4.5661C16.3327 4.5661 16.2301 4.66205 16.2301 4.67804L17.2392 4.50213C17.051 4.64606 17.4102 4.98188 16.7774 4.86994C18.5902 5.28571 19.7361 4.42218 20.4031 4.86994H20.2492C22.7803 4.69403 20.5057 4.39019 22.4041 3.84648L23.6696 5.06183L23.9433 4.67804C24.1998 4.67804 24.7129 4.67804 24.6103 4.9339C25.5851 4.59808 24.4563 4.71002 25.0207 4.40618C26.2692 4.86994 28.4412 4.23028 28.749 5.01386C29.2108 4.64606 27.5519 4.71002 28.903 4.47015C29.2792 5.30171 30.4422 4.32623 31.588 4.72601C31.2289 5.15778 30.1514 4.91791 31.2973 5.30171C31.9985 4.58209 33.5206 5.47761 34.4954 5.30171C34.4954 4.72601 36.599 5.06183 38.2237 4.86994C39.7193 5.15141 41.2334 5.3384 42.7558 5.42964V5.52559C43.0466 4.94989 44.6029 5.04584 45.7317 4.91791C45.7317 5.26972 45.4922 5.41365 44.8765 5.57356H45.954C46.3283 5.33795 46.7683 5.21008 47.2196 5.20576L46.9459 5.65352C48.4922 5.39941 50.064 5.30823 51.632 5.38166C51.7346 4.96589 50.1783 4.26226 52.0937 3.95842C52.0937 4.1823 52.2476 4.5661 51.7346 4.66205C52.029 4.55836 52.3465 4.52537 52.6581 4.5661L51.9056 4.9339C52.7265 5.09382 52.3332 4.63006 53.0001 4.64606C53.0001 4.96589 53.479 4.86994 53.3935 5.1258C53.308 5.38166 52.812 4.99787 52.5555 5.1258C53.2406 5.13606 53.9138 5.29481 54.5223 5.58955C54.5223 5.41365 54.5223 5.15778 55.0695 5.10981C56.489 5.10981 55.5484 5.4936 56.3864 5.63753C56.7285 5.41365 57.6349 5.63753 57.652 5.14179C58.0624 5.14179 58.1479 5.36567 58.319 5.4936C59.0373 5.26972 61.7394 5.36567 60.9014 4.88593H60.7133H60.833C63.2273 4.39019 65.8269 5.04584 68.2212 4.88593V5.02985C69.6261 4.94937 71.0217 4.76218 72.3942 4.47015C72.8047 4.47015 73.4032 4.742 73.2151 4.9339C74.122 4.69452 75.0752 4.65078 76.0028 4.80597C74.9253 5.1258 76.3961 5.04584 74.8911 5.04584C75.9672 5.2844 77.0934 5.23452 78.1406 4.90192C77.6446 5.3177 79.2351 5.38166 79.8508 5.23774L78.8418 4.98188C79.536 4.92721 80.234 4.92721 80.9283 4.98188L80.5862 5.52559C83.5107 6.0693 85.7169 4.23028 88.0257 5.22175C88.7611 4.82196 86.4352 5.02985 87.1022 4.5661C88.1766 4.7148 89.2352 4.95022 90.2661 5.26972C92.1132 5.47761 91.9764 4.42218 93.8576 4.53412C93.6011 4.35821 93.3446 3.86247 94.7641 3.6226C96.1835 3.38273 96.4743 4.32623 95.6021 4.51812C95.2942 4.51812 95.1403 4.51812 95.1403 4.43817C94.7128 4.53412 94.1484 4.63006 94.6956 4.82196L94.8496 4.61407C95.5337 4.78998 97.3636 4.61407 96.9532 4.99787C97.9451 4.77399 97.3636 4.66205 96.6111 4.61407C98.3213 4.78998 99.2791 4.48614 101.058 4.61407C100.767 4.51812 100.493 4.31023 100.767 4.29424C103.367 4.40618 101.879 3.87847 103.623 3.70256C104.632 3.94243 103.315 4.40618 105.06 4.07036C106.137 4.21429 105.316 4.5661 104.906 4.742C106.205 4.52978 107.537 4.5624 108.822 4.83795L108.001 5.02985C108.463 4.91791 109.062 4.88593 108.942 4.88593C108.822 4.88593 108.942 4.64606 108.805 4.51812C109.045 4.51812 109.062 4.51812 109.045 4.742C109.119 4.60066 109.171 4.44977 109.198 4.29424C109.212 4.18573 109.259 4.08346 109.336 4.00074C109.412 3.91802 109.513 3.8587 109.626 3.83049C109.763 3.95842 110.019 4.02239 110.173 4.21429C110.215 4.25247 110.245 4.29944 110.263 4.35116C110.28 4.40288 110.284 4.45782 110.274 4.51127C110.264 4.56472 110.24 4.61508 110.205 4.65805C110.169 4.70102 110.123 4.73531 110.071 4.758C110.071 4.29424 109.865 4.42218 109.763 4.5661C109.66 4.71002 109.489 4.80597 109.318 4.72601C109.421 4.72601 109.489 4.80597 109.455 4.9339C109.432 4.94834 109.405 4.95606 109.378 4.95606C109.351 4.95606 109.324 4.94834 109.301 4.9339C109.113 5.17377 109.301 5.06183 109.472 5.17377C109.643 5.28571 109.968 5.60554 109.985 6.54904C109.677 6.32516 109.438 7.01279 109.506 7.33262C109.506 6.54904 110.002 6.94883 110.259 7.65245C110.071 8.89979 110.481 8.97974 110.481 9.6354V8.89979C110.789 9.13966 110.772 9.74734 110.909 10.6109C110.669 10.6109 110.703 9.82729 110.618 10.1471C111.182 11.0906 110.139 12.322 110.618 13.6493C110.447 14.2729 110.054 13.7292 109.934 14.2729C110.378 15.7601 109.575 15.8721 109.934 17.4712C110.327 17.0075 110.225 16.9435 110.669 18.0309L110.31 15.2164L110.96 16.8156C110.96 16.032 110.635 15.2164 110.686 14.7047C111.063 15.4883 110.96 15.4083 111.268 15.0245C110.703 16.1119 111.712 17.1194 111.268 18.3667H110.259C109.883 20.2377 110.909 21.565 110.738 24.0597L110.874 23.2761C111.302 23.58 110.994 24.7633 111.182 25.5309C110.84 25.5309 110.738 25.9627 110.532 26.2985C110.789 26.2985 110.532 28.0576 111.268 28.2655L110.857 29.3529C110.755 31.3038 111.901 31.5437 111.849 33.4147C111.473 32.855 111.268 33.7186 110.96 32.4712C110.96 33.0949 110.96 33.6546 111.165 33.6546C110.96 34.0384 111.678 35.3817 111.388 35.9574C111.541 36.2132 111.901 36.2932 111.901 36.9968C111.901 37.0768 111.73 36.9968 111.73 36.9968C111.73 36.9968 111.986 38.0842 112.345 37.4606C111.37 39.4115 112.619 42.8337 111.781 44.5288C111.935 45.8881 112.106 47.5192 112.174 48.7505C112.072 48.7505 112.003 48.7505 112.037 48.5267C111.781 50.2377 113.046 49.5341 112.756 51.4851C112.26 52.5085 112.431 50.4776 112.243 51.1013C111.148 51.4051 112.482 53.436 111.883 54.7633V54.4435C111.541 55.451 112.397 56.8582 112.379 58.5053C112.379 58.5053 112.277 58.4254 112.208 58.5053C112.814 60.0479 113.183 61.6632 113.303 63.3028C112.841 62.839 113.046 62.5991 112.619 62.919C112.619 63.6066 113.32 62.6791 113.491 64.0864C113.269 64.5501 113.098 65.5736 112.636 65.6855V64.3582C112.055 65.0618 112.636 66.0693 112.636 66.7729H112.362C112.482 68.7399 113.286 69.0597 113.115 70.387H113.354C113.577 71.0107 113.217 71.1386 112.961 71.1066C112.809 71.0771 112.653 71.079 112.502 71.1122C112.351 71.1453 112.21 71.2089 112.089 71.2985C111.92 71.1157 111.771 70.9175 111.644 70.7068C111.426 70.8094 111.197 70.8898 110.96 70.9467L109.848 71.2825C109.059 71.5311 108.253 71.734 107.437 71.8902C108.574 71.3286 109.765 70.8681 110.994 70.5149C109.891 70.5779 108.809 70.8215 107.796 71.2345C108.128 71.0709 108.498 70.9884 108.873 70.9947C107.687 71.6701 106.343 72.0653 104.957 72.1461C105.094 70.8987 100.613 72.306 99.2962 71.4904C98.4476 71.7195 97.5768 71.8694 96.6966 71.9382L94.747 72.0981L92.421 72.258C92.3355 73.2175 92.25 74.209 92.1645 75.2164L92.0619 76.4318C92.0619 76.7516 92.0619 77.0714 92.0619 77.3913C93.1393 76.3038 92.0619 78.3188 93.088 78.1748C93.088 78.9264 93.088 79.1983 93.088 79.2623L92.3526 81.5011C92.0277 82.0128 92.1645 80.7814 91.9251 80.8454C91.7711 82.4446 91.4462 81.5011 91.1213 82.5725C91.4975 82.3646 91.6343 83.1642 91.4462 84.0917L91.9935 82.7964C92.0775 83.2299 92.0775 83.6741 91.9935 84.1077C91.9935 84.4115 91.8054 84.7473 91.7027 84.7313C91.6001 84.7154 91.2581 84.7313 91.5146 85.1311C91.4247 84.9997 91.3216 84.8765 91.2068 84.7633C91.2216 84.8265 91.2216 84.892 91.2068 84.9552H91.0528H90.9331C90.9331 84.9552 90.9331 84.9552 90.6424 84.9552C90.2322 84.9464 89.823 84.9949 89.4281 85.0991C89.2571 84.9232 89.0861 84.6034 89.582 84.6674C87.0851 83.8998 83.4594 83.0682 81.7492 81.565L82.0741 81.4691C81.5782 81.2772 81.0138 81.4691 80.552 80.8454C80.6375 80.8454 80.877 80.7495 80.6717 80.6055C79.9344 80.4504 79.2407 80.1507 78.6366 79.726L79.3206 79.822C77.0118 78.0949 75.0964 78.0789 72.8046 77.1034C73.1809 76.4797 71.0944 75.2164 69.9999 74.6887C66.9316 73.5341 63.5828 73.1911 60.3199 73.6972C58.8111 73.3139 57.2365 73.2107 55.6852 73.3934C53.9005 73.5517 52.1073 73.6105 50.3151 73.5693C50.811 73.6652 50.3151 74.129 49.7336 74.2409C49.1521 74.3529 47.7326 74.8646 47.7839 74.2409H48.0576C47.4419 73.6493 45.9369 73.9211 44.7568 73.9851L44.62 74.8486C41.439 73.8252 36.5306 75.7761 34.7691 74.8486C34.0166 75.0885 33.0588 75.1365 32.3576 75.3763V74.9286C30.4632 74.8765 28.5672 74.9299 26.6796 75.0885L27.1927 74.7527C25.7561 74.7527 25.4825 76.1279 24.0801 76.1919L23.6525 75.5362C21.1214 75.5362 18.5218 75.0885 16.0762 75.7601C16.0762 75.6482 16.1788 75.4563 16.5893 75.4243C15.4092 75.4243 11.9887 75.0405 12.4334 75.968C12.4334 75.3603 9.83384 75.968 8.46566 76.2079L8.67089 75.7601C8.10651 76.048 7.78156 76.2399 7.45662 76.3678C7.12391 76.5354 6.75634 76.6336 6.37917 76.6557C6.13974 76.6557 6.37917 76.3038 6.6015 76.4158C6.13974 76.2399 5.8832 76.5757 5.35303 76.6397C5.31055 76.466 5.31055 76.2856 5.35303 76.1119C5.45424 76.1344 5.55966 76.1344 5.66087 76.1119C5.66087 75.4723 5.50695 75.6642 5.1307 75.2964C5.02901 74.8537 5.02901 74.3958 5.1307 73.9531C5.1307 73.4414 5.35303 72.9936 5.57536 72.8977C5.344 72.6972 5.16969 72.4461 5.06817 72.1669C4.96665 71.8877 4.94111 71.5892 4.99388 71.2985C5.1478 71.2026 5.26752 71.4584 5.31883 71.5863C5.54116 69.5235 4.60053 68.564 5.01099 67.1407C5.0771 67.1253 5.13749 67.0933 5.18568 67.0482C5.23388 67.0031 5.26807 66.9467 5.28462 66.8849C5.28462 68.484 5.40434 69.8273 5.28462 69.6994C5.72928 69.6994 5.72928 68.3721 6.39627 69.3795C5.76208 68.093 5.40747 66.7014 5.35303 65.2857C5.38248 65.2175 5.42948 65.157 5.48985 65.1098V65.2377C5.51812 64.9674 5.48311 64.6946 5.38724 64.4382C5.41206 64.0814 5.41206 63.7235 5.38724 63.3667C5.72928 63.2068 5.50695 61.8635 5.50695 61.2079C5.02809 61.2079 5.06229 60.4243 4.70314 61.2079C4.70314 61.096 4.70314 61.3198 4.80576 61.7676C4.79411 61.8579 4.79411 61.9492 4.80576 62.0394C4.80576 62.4712 4.80576 63.0309 4.90837 63.6386C4.73529 63.3759 4.62303 63.0822 4.57884 62.7765C4.53465 62.4707 4.55952 62.1597 4.65184 61.8635C4.32689 61.5437 3.98484 61.1759 3.83092 60.984C4.46371 60.0565 4.75445 58.3134 5.16491 58.0576C4.82286 56.0746 4.80576 53.3561 3.86513 52.1247C3.72831 51.565 4.10456 51.4691 4.24138 51.2452C4.28424 51.5513 4.36458 51.8518 4.48081 52.1407C4.20717 51.0053 4.27558 48.7665 3.6428 48.5107C3.88223 47.0714 4.24138 49.3102 4.08746 47.3433L4.27558 47.5991C5.18201 43.7132 2.56535 41.3305 3.71121 37.0128C3.71121 37.3166 3.60859 37.4606 3.50598 37.5245C3.96774 32.6151 2.78768 27.4339 3.677 22.5885C3.84803 21.2132 3.43757 21.0693 3.12973 20.2218L3.6428 19.9179L3.24944 18.5906C2.80478 16.5597 4.51502 15.0565 3.69411 12.4819L3.42047 12.7857C3.42047 11.8582 3.23234 9.85927 3.6257 10.0192C3.51969 9.94209 3.44267 9.83545 3.40577 9.71471C3.36888 9.59396 3.37403 9.46538 3.42047 9.34755H3.69411L3.18103 7.04478C3.40337 5.28571 4.25848 7.33262 4.34399 4.758C4.24138 3.79851 3.57439 2.03945 3.42047 2.39126C3.26655 2.74307 3.24944 3.36674 2.97581 3.39872L2.80478 2.59915C2.01808 2.35928 1.21427 1.67164 0.632787 3.8145L1.09455 5.3177L0.718298 5.79744V4.53412C0.609103 4.79348 0.566157 5.0731 0.592878 5.35072C0.6196 5.62834 0.71525 5.89629 0.872219 6.13326C0.652621 6.285 0.500428 6.507 0.444661 6.75693L1.19716 8.24414C0.889322 8.42004 0.581479 7.57249 0.410456 8.56397C0.752503 9.2516 1.11165 7.90832 1.33398 9.04371C0.974833 9.76333 0.666991 9.55544 0.974833 10.387C0.769605 10.5149 0.649889 10.387 0.564377 10.0032C0.80381 10.7548 0.564377 11.9861 1.07745 12.3699C0.615684 13.2015 1.16296 14.9765 0.410456 14.8966C0.768514 15.5485 0.983654 16.2607 1.04324 16.9915C0.136819 15.7281 1.04324 19.5661 0.0342047 19.2303C0.838015 20.1578 0.410456 22.5885 0.872219 24.2356C0.872219 24.1397 0.666991 23.9638 0.718298 23.8198C0.647647 24.433 0.492437 25.035 0.256535 25.6109C0.923526 25.7228 1.09455 27.21 1.52211 27.9456C0.889322 29.081 0.718298 27.258 0.102614 27.6258C0.649889 27.6258 0.666991 29.5928 1.12875 29.2249C0.735401 30.1045 0.940629 29.9765 0.393354 30.4403C1.23137 30.5842 0.547275 31.2399 1.06034 31.9595C0.666991 33.2228 0.29074 32.2953 0.564377 33.6706C0.307842 34.2143 0 32.9829 0 32.9829ZM2.46274 65.7974C2.46274 65.5256 2.46274 65.2857 2.46274 65.1258C2.41143 65.2697 2.42853 65.4616 2.46274 65.7974ZM2.59956 68.564C2.59956 68.2281 2.59956 67.8124 2.59956 67.3646C2.75348 67.2527 2.9245 67.3646 2.9416 67.6365C2.78768 67.4925 2.71927 68.1642 2.59956 68.564ZM5.66087 62.5991C5.66087 63.0309 5.66087 63.1748 5.55826 63.2388C5.55826 63.0469 5.55826 62.807 5.55826 62.4872C5.59824 62.5195 5.63283 62.5573 5.66087 62.5991Z" fill="#DC362E"/>
<path d="M4.99372 61.8475C4.98961 61.7836 4.98961 61.7195 4.99372 61.6556C4.95737 61.7439 4.92877 61.8349 4.9082 61.9275L5.06212 62.0714C5.06212 62.0714 4.99372 61.9115 4.99372 61.8475Z" fill="#DC362E"/>
<path d="M60.8331 4.86993C60.788 4.87855 60.7414 4.87855 60.6963 4.86993C60.6963 4.86993 60.7989 4.85394 60.8331 4.86993Z" fill="#DC362E"/>
<path d="M35.5388 78.7825L35.5217 78.6706L35.2651 78.7825H35.5388Z" fill="#DC362E"/>
<path d="M44.5685 3.52664C44.5685 3.52664 44.5685 3.44669 44.3633 3.4147C44.4249 3.46194 44.4942 3.49973 44.5685 3.52664Z" fill="#DC362E"/>
<path d="M37.6252 3.44669L36.6333 3.28677L37.6252 3.44669Z" fill="#DC362E"/>
<path d="M32.1866 3.20682C32.1256 3.25701 32.0836 3.32434 32.0669 3.39872L32.1866 3.20682Z" fill="#DC362E"/>
<path d="M113.662 8.99573C113.654 9.05946 113.654 9.12389 113.662 9.18762C113.799 9.6034 113.765 9.29957 113.662 8.99573Z" fill="#DC362E"/>
<path d="M92.3525 2.59914C92.6141 2.49717 92.8826 2.41169 93.1564 2.34328C92.7117 2.24733 92.3525 2.26332 92.3525 2.59914Z" fill="#DC362E"/>
<path d="M115.217 35.5735H115.201L115.217 35.7335V35.5735Z" fill="#DC362E"/>
<path d="M94.3363 2.21534C93.9469 2.14168 93.5457 2.14168 93.1562 2.21534C93.5473 2.27156 93.9452 2.27156 94.3363 2.21534Z" fill="#DC362E"/>
<path d="M8.55099 2.71109H8.26025C8.37997 2.75906 8.55099 2.75906 8.55099 2.71109Z" fill="#DC362E"/>
<path d="M7.64453 2.85503L8.26021 2.75908C8.03788 2.75908 7.78135 2.72709 7.64453 2.85503Z" fill="#DC362E"/>
<path d="M15.9565 3.03092L16.0421 2.871C15.997 2.91508 15.9672 2.9708 15.9565 3.03092Z" fill="#DC362E"/>
<path d="M18.1284 3.01493C17.472 2.83912 16.7931 2.74766 16.1104 2.74307V2.871C16.384 2.59915 17.6325 3.28678 18.1284 3.01493Z" fill="#DC362E"/>
<path d="M27.1586 5.14179L25.3287 4.99786C25.6536 5.17377 26.0641 5.41364 25.2432 5.44563C27.5349 5.98934 24.7643 5.04584 27.1586 5.14179Z" fill="#DC362E"/>
<path d="M32.8022 5.42963C31.8103 5.42963 32.8022 5.68549 32.8022 5.78144C33.3666 5.62152 33.5205 5.58954 32.8022 5.42963Z" fill="#DC362E"/>
<path d="M73.54 4.91791V5.33369C74.2412 5.25373 73.54 5.17377 73.54 4.91791Z" fill="#DC362E"/>
<path d="M81.2703 2.55118L80.5349 2.3273L80.1929 2.7111L81.2703 2.55118Z" fill="#DC362E"/>
<path d="M85.9905 5.28571L85.6655 5.36566L86.914 5.15778L85.9905 5.28571Z" fill="#DC362E"/>
<path d="M111.268 43.1215L111.798 42.8817C111.678 42.4179 111.165 42.338 111.268 43.1215Z" fill="#DC362E"/>
<path d="M112.773 70.0352C112.482 70.0352 112.14 70.1951 112.055 70.451C112.414 70.451 112.876 70.2591 112.773 70.0352Z" fill="#DC362E"/>
<path d="M43.098 74.3049L43.6624 74.097L42.5679 74.3049H43.098Z" fill="#DC362E"/>
<path d="M24.046 30.2164C23.8579 30.3603 24.046 30.6642 24.559 30.5842L24.9353 30.0245L24.046 30.2164Z" fill="#DC362E"/>
<path d="M27.9624 31C28.6123 30.7121 29.3648 30.2324 28.903 29.7686C28.2702 30.3124 28.0992 30.1045 27.4151 30.7441C26.8336 30.7441 26.4061 30.6162 26.4916 30.4243C26.2864 30.5682 25.5852 30.4243 25.2944 30.6962C25.7143 30.8813 26.1728 30.9774 26.637 30.9774C27.1012 30.9774 27.5597 30.8813 27.9795 30.6962C28.2018 30.7601 27.9966 30.904 27.9624 31Z" fill="#DC362E"/>
<path d="M118.639 29.4328C118.365 29.4328 118.263 29.4328 118.246 29.5608C118.485 29.5128 118.69 29.4808 118.639 29.4328Z" fill="#DC362E"/>
<path d="M124.556 29.9605H124.214C124.351 29.9765 124.488 30.0085 124.556 29.9605Z" fill="#DC362E"/>
<path d="M83.9556 29.7846L84.8791 29.9286C84.9475 29.7846 84.4002 29.7846 83.9556 29.7846Z" fill="#DC362E"/>
<path d="M35.6073 29.3689C35.4348 29.4002 35.2679 29.4541 35.1113 29.5288L35.5731 29.4488L35.6073 29.3689Z" fill="#DC362E"/>
<path d="M68.683 30.6482H68.4093L68.187 30.8721L68.683 30.6482Z" fill="#DC362E"/>
<path d="M56.9508 31.1119C57.2244 31.1119 57.2928 30.6802 57.3954 30.4723C57.2588 30.6462 57.0575 30.7661 56.8311 30.8081C56.837 30.9184 56.8788 31.0244 56.9508 31.1119Z" fill="#DC362E"/>
<path d="M77.0801 30.4883C77.0997 30.5487 77.135 30.6036 77.1827 30.6482C77.1815 30.6156 77.1715 30.5838 77.1536 30.5558C77.1356 30.5278 77.1103 30.5046 77.0801 30.4883Z" fill="#DC362E"/>
<path d="M22.2329 42.8977C22.2329 42.8977 22.2329 42.8977 22.3184 42.8977C22.4039 42.8977 22.2329 42.8177 22.2329 42.8977Z" fill="#DC362E"/>
<path d="M25.0547 30.2324V30.4083C25.1394 30.4235 25.2265 30.4235 25.3112 30.4083L25.0547 30.2324Z" fill="#DC362E"/>
<path d="M131.569 31.385C131.482 31.1911 131.517 31.2719 131.569 31.385V31.385Z" fill="#DC362E"/>
<path d="M113.782 100.147C114.928 100.531 111.952 100.707 113.662 101.107C113.491 100.947 115.202 100.403 113.782 100.147Z" fill="#DC362E"/>
<path d="M133.244 54.3795C133.324 54.3127 133.388 54.231 133.432 54.1396C133.432 54.1396 133.398 54.2036 133.244 54.3795Z" fill="#DC362E"/>
<path d="M132.937 36.9648V37.3966C132.95 37.253 132.95 37.1084 132.937 36.9648Z" fill="#DC362E"/>
<path d="M134.425 63.3667C134.373 63.5772 134.373 63.7959 134.425 64.0064V63.9104C134.355 63.735 134.355 63.5422 134.425 63.3667Z" fill="#DC362E"/>
<path d="M22.4212 71.5704C22.5339 71.403 22.6789 71.2565 22.8487 71.1386C22.5067 71.3625 22.3528 69.9072 22.4212 71.5704Z" fill="#DC362E"/>
<path d="M35.6243 29.6247C35.6484 29.5689 35.6881 29.5201 35.7392 29.4836C35.7904 29.447 35.8511 29.4239 35.915 29.4168H35.573C35.5559 29.5288 35.5559 29.5927 35.6243 29.6247Z" fill="#DC362E"/>
<path d="M138.238 63.5586V65.0618C138.273 64.6461 138.273 64.1023 138.238 63.5586Z" fill="#DC362E"/>
<path d="M59.3624 107.535L59.2427 107.199C59.2513 107.319 59.2925 107.435 59.3624 107.535Z" fill="#DC362E"/>
<path d="M138.529 69.4915C138.384 69.7575 138.286 70.0437 138.238 70.339C138.28 70.4005 138.325 70.4593 138.375 70.5149L138.529 69.4915Z" fill="#DC362E"/>
<path d="M21.5659 61.2719C21.5659 62.6951 22.1987 61.9275 22.5579 62.2314C22.746 63.9424 22.0961 63.0309 21.7711 63.6066C22.079 64.4832 22.3359 65.3747 22.5408 66.2772C22.4381 66.2772 22.3868 66.5011 22.2671 66.2772C22.7631 67.3966 22.3526 69.6194 23.0025 70.9147C23.0025 71.0267 22.8999 71.0746 22.8486 71.0906C22.971 71.0019 23.1115 70.9376 23.2616 70.9019C23.4116 70.8661 23.568 70.8596 23.7208 70.8827C23.7208 71.5224 24.1484 72.0501 23.7208 72.306C23.7208 71.9062 23.5498 71.8902 23.4301 71.6983L23.6182 72.3699C23.0367 72.9936 23.3959 71.4584 22.9512 71.4744C23.3128 72.7171 23.5251 73.9937 23.584 75.2804C23.0025 75.5203 23.3104 72.9456 22.8315 74.3049L23.0025 72.7058C22.1303 73.9211 23.0025 71.7623 22.0961 72.8817C21.9935 74.9286 22.4723 75.1525 22.3697 77.1994C22.7118 77.6471 22.8486 77.0395 23.1906 77.4872C23.8918 80.3497 21.8225 79.822 22.6947 81.9169C23.1222 82.4446 23.8576 82.6205 23.5669 84.1557L22.8657 83.6759C22.8657 85.6589 23.8747 84.7633 23.5669 86.8742C23.2762 86.5224 23.2591 85.2751 23.1906 85.6429C22.746 87.0181 23.6182 86.5704 23.6866 87.5938L23.1222 87.8497C23.3617 89.9446 23.9602 92.2314 24.2681 94.5501C24.0971 94.4382 23.8747 94.0544 23.7379 94.5501C24.004 96.0632 24.1639 97.591 24.2168 99.1237C24.2168 99.9073 24.2168 100.723 24.2168 101.458C24.2168 101.858 24.2168 102.274 24.2168 102.674C24.2168 103.361 24.2168 104.033 24.3365 104.689C24.4562 105.344 24.7983 105.776 25.0206 106.288C25.0206 106.448 25.1232 106.432 25.1916 106.448C25.219 106.452 25.2453 106.461 25.2688 106.475C25.2923 106.488 25.3126 106.506 25.3284 106.528C25.3284 106.528 25.3284 106.672 24.9864 106.72C26.9703 106.88 25.3455 106.416 26.4401 106.224C27.5346 106.032 27.7912 106.48 26.9703 106.624L28.5095 106.464H29.2962H29.7921C30.4933 106.368 31.2287 106.288 31.9812 106.224C33.3433 106.084 34.7198 106.127 36.0687 106.352L35.6411 106.496C37.3514 106.672 37.5566 105.52 39.1471 105.936L38.8393 106.032C42.5505 106.208 46.6379 105.728 49.4598 106.416C49.99 105.744 53.1368 106.688 53.3592 105.744C54.8159 106.209 56.3253 106.515 57.8571 106.656C58.0197 106.695 58.1904 106.695 58.353 106.656L58.4899 106.432C58.549 106.336 58.6336 106.256 58.7355 106.2C58.8374 106.144 58.9531 106.114 59.0714 106.112L58.7635 106.576C58.8757 106.526 58.9984 106.5 59.1227 106.5C59.2469 106.5 59.3696 106.526 59.4818 106.576C59.3364 106.768 59.1571 106.935 58.9516 107.071C58.9516 107.071 58.9516 107.071 59.1398 107.487C59.1398 107.039 59.3279 107.039 59.4647 106.975C59.5726 107.247 59.6304 107.534 59.6357 107.823C59.6617 108.185 59.6617 108.548 59.6357 108.91C59.6357 109.582 59.4305 110.094 59.3108 110.126L60.3027 112.94C60.0804 112.94 59.9265 112.381 59.7212 111.981C60.5079 113.58 59.2253 112.349 59.9436 113.836C60.0291 113.612 60.2685 113.836 60.3711 113.932C60.3412 114.182 60.3412 114.434 60.3711 114.683V114.923C60.3633 115.062 60.3633 115.201 60.3711 115.339L60.4737 116.235C60.4737 116.858 60.6448 117.53 60.7645 118.122C60.8842 118.713 61.0894 119.161 61.2262 119.721H60.85L61.021 120.44L61.1236 120.808V121C61.1236 121 61.1236 121.128 61.2433 121L62.9536 120.488C64.0886 120.179 65.1885 119.767 66.2372 119.257C66.8332 119.004 67.4053 118.704 67.9475 118.361C68.3408 118.106 68.6145 117.914 68.9223 117.674C69.5551 117.226 70.1195 116.73 70.6325 116.267C69.6919 116.826 69.4867 116.267 70.0853 115.627L70.718 115.787C70.9062 115.195 69.9142 116.235 70.4615 115.211C71.2995 114.539 71.4534 115.211 71.1114 115.691L71.9323 114.683C72.1204 114.683 71.9323 115.003 72.0349 115.195C72.2059 114.603 74.053 114.028 74.1385 113.132H74.3095C75.6133 111.711 77.0312 110.385 78.5509 109.166C78.2944 108.767 79.0127 108.415 79.3376 107.807C80.9423 107.21 82.5877 106.713 84.2631 106.32C85.4774 105.76 84.5367 105.856 85.0498 105.44C85.255 105.808 87.1192 105.44 86.2128 105.872C88.4703 105.376 89.1031 105.28 92.096 104.641C91.7539 104.497 91.3606 104.465 91.5487 104.305C92.096 104.193 92.8314 104.305 92.763 104.561H92.6261C96.0466 103.649 100.681 105.152 103.366 104.177H103.212L106.034 103.745C107.351 103.745 105.265 104.081 106.257 104.289C109.301 103.489 111.114 104.289 113.645 103.729C115.629 104.881 120.623 103.569 123.256 104.385L123.137 104.113C123.821 103.841 123.958 104.273 124.454 104.353C124.454 104.129 123.718 104.081 124.146 103.937C127.122 103.844 130.102 103.972 133.056 104.321L134.185 104.449H134.783H135.143H135.673C136.369 104.47 137.062 104.346 137.701 104.086C138.339 103.826 138.909 103.436 139.367 102.946C139.775 102.447 140.072 101.875 140.239 101.267C140.395 100.675 140.475 100.069 140.478 99.4595C140.478 98.7239 140.478 97.9883 140.478 97.2527C140.478 95.2058 138.768 96.1812 139.418 93.5586L140.017 94.2623C139.11 90.1685 139.555 85.8188 138.751 81.8049C138.905 82.0288 139.076 82.0288 139.093 82.4286C139.452 81.549 138.922 79.2303 138.597 79.2303C138.597 78.5906 138.888 79.0704 139.042 78.6706C139.23 77.7911 138.392 76.5437 138.768 76.064C138.768 76.064 138.922 76.3038 138.956 76.4638C138.734 75.9041 138.956 73.8572 138.426 74.4169C138.563 72.8177 138.05 71.5224 138.255 70.2911C137.691 69.5235 138.358 67.6844 137.605 67.4766C138.375 67.4766 138.067 64.774 137.605 63.8305C137.862 64.1503 137.793 62.983 138.135 63.3508C138.135 62.2633 137.862 61.2559 137.486 61.4638C138.289 59.4009 136.511 57.4499 137.622 56.2505C137.024 53.0522 136.579 50.0299 136.237 47.1034C137.007 47.1834 136.494 50.3017 137.297 50.1738C136.649 47.8552 136.248 45.4822 136.1 43.0896C136.1 42.3699 136.442 43.4734 136.596 43.7132C136.117 40.9467 136.357 38.3401 135.792 35.8934C135.792 35.8934 135.963 36.1653 136.032 36.4051C136.032 35.9254 136.032 35.2697 135.741 35.3497L135.861 35.8134C135.399 36.613 134.698 33.9424 134.424 33.8625C135.467 34.6301 134.527 31.4158 135.878 32.6631C135.878 32.3593 135.587 31.9115 135.365 32.0075C135.365 31.4957 135.502 31.3038 135.827 31.8156C135.753 31.2435 135.536 30.6958 135.194 30.2164C134.972 29.9286 134.92 29.6727 134.253 28.6173C134.39 28.5213 134.749 28.9211 135.023 29.065C134.019 27.9471 132.591 27.2364 131.038 27.0821C131.158 27.0021 131.038 26.8422 131.5 26.9222C130.292 26.855 129.081 26.9629 127.908 27.242C126.747 27.4454 125.562 27.4992 124.385 27.4019C125.172 26.6983 123.462 27.178 123.325 26.5864L121.871 26.7783L122.453 27.0501C121.323 27.2344 120.179 27.3254 119.032 27.322L119.973 27.0661L117.596 27.21L118.947 27.4179C117.664 27.7378 119.083 28.1695 117.407 28.0256C117.749 28.0256 116.125 28.0256 115.475 27.6898C114.777 27.9558 114.017 28.0495 113.269 27.9616C113.012 27.7697 113.457 27.29 113.269 27.1781C112.67 27.6738 110.31 27.354 109.523 27.8977C109.573 27.8772 109.618 27.8474 109.655 27.81C109.691 27.7726 109.72 27.7285 109.737 27.6804C109.755 27.6323 109.762 27.5813 109.757 27.5306C109.753 27.4799 109.737 27.4307 109.711 27.3859L109.198 27.8017C108.617 27.6738 108.514 27.6258 108.617 27.3699C106.907 27.3699 109.181 28.1215 107.078 27.8177C107.249 27.8177 107.078 27.7218 107.505 27.6578C105.402 27.5299 103.452 27.9776 101.502 27.8177C100.921 27.226 103.212 27.6418 102.528 27.1461C99.7407 27.306 96.7649 27.9776 94.0627 27.8977H94.5758C94.2167 28.7612 92.5577 27.5299 91.1553 27.8977C91.4974 27.8977 91.5829 27.4179 91.4974 27.5139C89.2931 27.5563 87.0964 27.7703 84.9301 28.1535L85.2721 27.9296C84.1776 27.7537 82.3989 27.9296 81.2189 27.8177C80.8768 28.0416 80.1927 28.0256 80.6203 28.3294C76.9433 27.178 73.7794 29.193 70.4615 28.2495C70.8549 28.2495 71.385 28.0256 71.0772 28.0416L68.4092 28.5053C68.6316 28.8731 68.7684 28.7132 69.3498 28.9851C68.8275 29.2628 68.2403 29.4165 67.6396 29.4328C68.871 29.145 67.6396 28.8412 67.0752 28.6493C67.1608 28.7612 67.0752 28.8891 67.0752 29.0011C65.6044 28.3934 66.8529 29.7527 64.8861 29.3689V29.177C64.181 29.3822 63.4515 29.5057 62.7141 29.5448C62.3721 29.129 63.4837 29.3209 63.518 28.9691C62.4063 28.9691 61.3631 29.8646 60.3369 29.4648C60.8158 29.3369 61.4828 29.3049 61.9445 29.177C61.3017 28.8675 60.5783 28.7344 59.8581 28.7932L57.9768 28.6333L58.4557 28.7612C57.1217 29.9126 55.6509 29.065 53.8038 29.8646C55.5141 29.097 54.0946 29.4488 54.2143 28.9531C53.7354 28.8412 53 28.7132 53.1881 28.5693C52.333 29.0011 51.7002 28.3294 50.486 28.9371C50.486 28.7932 49.5453 28.9371 49.7164 28.5693C48.5876 28.7292 50.0071 28.8252 49.9216 29.0171C48.2114 29.6247 45.7315 28.5373 43.2175 29.3849C41.0455 29.7687 40.6521 30.3124 38.6341 30.6642C37.9329 30.4403 39.1642 30.0725 39.1642 30.0725C38.1746 29.9054 37.1574 29.9491 36.1884 30.2004C36.3936 30.0565 36.1884 29.9446 35.8293 29.7847C34.9913 29.8646 35.2991 30.3763 34.119 30.2004C34.3383 29.9303 34.6112 29.7023 34.9228 29.5288C33.948 29.7207 32.9903 30.0565 31.9641 30.2484C31.6734 29.9925 32.5627 29.8006 32.9048 29.6088C31.776 29.7847 29.9461 29.9925 29.6211 30.4403L30.3565 30.5522C29.9461 30.5522 30.1342 30.2004 30.3565 30.1045C31.3314 29.7207 31.7931 30.1844 31.8615 30.3444L31.1261 30.4723C31.9299 31.3518 34.0506 30.2004 35.5214 30.1844L34.9399 30.8721L36.4108 30.2484C36.7528 30.4083 36.9751 30.7761 36.2568 30.9041C37.3343 31.1919 37.1804 30.6322 38.1039 30.9041C38.2065 30.9041 38.1039 31 38.1039 31.032L39.13 30.7761C38.9248 30.936 39.3181 31.2399 38.6854 31.1759C40.5495 31.4798 41.627 30.5523 42.3453 31.032H42.1913C44.7396 30.6962 42.4137 30.5203 44.312 29.8806L45.6631 31.032L45.8854 30.5203C46.142 30.5203 46.6722 30.5203 46.5866 30.7441C47.5444 30.3763 46.4156 30.5363 46.9629 30.2004C48.2627 30.6002 50.3834 29.8486 50.7767 30.6162C51.2214 30.2324 49.5453 30.3763 50.8964 30.0725C51.324 30.8881 52.4527 29.8646 53.6328 30.2164C53.2908 30.6642 52.1791 30.4723 53.3592 30.8081C54.0262 30.0565 55.6338 30.8881 56.6086 30.7122C56.6086 30.1205 58.7122 30.3923 60.354 30.1365C61.889 30.3537 63.4369 30.4819 64.9888 30.5203V30.6162C65.2624 30.0245 66.8358 30.0725 67.9817 29.9126C67.9817 30.2644 67.7422 30.4243 67.1265 30.6002H68.204C68.5826 30.3585 69.0283 30.2252 69.4867 30.2164L69.2301 30.6482C70.79 30.3638 72.3792 30.2458 73.9675 30.2964C73.9675 29.8806 72.4454 29.193 74.395 28.8572C74.395 29.081 74.5661 29.4648 74.053 29.5608C74.3536 29.4581 74.6751 29.4198 74.9936 29.4488L74.224 29.8486C75.062 29.9766 74.6516 29.5128 75.3186 29.5288C75.3186 29.8486 75.8316 29.7367 75.7461 29.9925C75.6606 30.2484 75.1475 29.8806 74.891 29.9925C75.5834 30.001 76.2657 30.1482 76.892 30.4243C76.892 30.2484 76.892 29.9925 77.4222 29.9446C78.8588 29.9446 77.9352 30.3124 78.7732 30.4563C79.1153 30.2164 80.0388 30.4563 80.0388 29.9446C80.4664 29.9446 80.5519 30.1685 80.7229 30.2804C81.4583 30.0565 84.1434 30.1365 83.3396 29.6567H83.1343H83.2712C85.6826 29.129 88.4019 29.8007 90.7449 29.5448V29.7847C92.1649 29.7053 93.5767 29.529 94.9692 29.2569C95.3967 29.2569 95.9953 29.5128 95.8072 29.7047C96.7353 29.5022 97.7009 29.5022 98.6291 29.7047C97.5174 29.9925 99.0224 29.9446 97.5003 29.9286C98.6389 30.149 99.8215 30.0545 100.904 29.6567C100.391 30.0725 101.998 30.1525 102.614 30.0085L101.742 29.7847C102.448 29.7369 103.156 29.7369 103.862 29.7847L103.503 30.3124C106.445 30.9201 108.771 29.129 111.011 30.1844C111.781 29.8007 109.421 29.9446 110.105 29.4968C111.194 29.6737 112.264 29.9413 113.303 30.2964C115.15 30.5682 115.013 29.4968 116.946 29.6727C116.689 29.4808 116.45 28.9851 117.903 28.7772C119.254 28.7772 119.614 29.5608 118.724 29.7207C118.399 29.7207 118.228 29.7207 118.245 29.6247C117.818 29.6247 117.236 29.7847 117.784 29.9766L118.006 29.7847C118.673 29.9766 120.537 29.9286 120.092 30.2484C121.119 30.0565 120.537 29.9286 119.768 29.8486C121.478 30.1045 122.487 29.8486 124.265 29.9925C123.975 29.8966 123.718 29.6727 123.992 29.6727C126.608 29.8806 125.155 29.3049 126.916 29.209C127.925 29.4808 126.557 29.8966 128.336 29.6407C129.43 29.8326 128.575 30.1365 128.148 30.2964C128.875 30.1527 129.627 30.1527 130.354 30.2964C130.901 30.4083 131.243 30.6642 131.192 30.6962C131.112 30.7508 131.017 30.7839 130.918 30.7921C131.226 30.7921 131.141 30.7921 131.209 30.7921C131.278 30.6748 131.314 30.5424 131.312 30.4083C131.414 30.5203 131.483 30.5842 131.312 30.6962C131.446 30.6168 131.562 30.5135 131.654 30.3923C131.708 30.3027 131.794 30.2341 131.898 30.1989C132.001 30.1637 132.115 30.1642 132.218 30.2004C132.218 30.4563 132.936 31.4318 132.406 31.7036C132.406 30.8881 132.201 31.016 132.064 31.112C131.927 31.2079 131.739 31.2719 131.551 30.8881C131.699 31.089 131.766 31.3328 131.739 31.5757C131.739 31.5757 131.619 31.5757 131.568 31.4638C131.448 32.1514 131.568 32.3753 131.825 32.5512C132.081 32.7271 132.321 32.983 132.372 33.9584C132.064 33.7186 131.825 34.4382 131.91 34.742C131.91 33.9584 132.389 34.3422 132.663 35.0618C132.509 36.3252 132.919 36.4051 132.936 37.0608V36.3092C133.244 36.5491 133.244 37.1727 133.398 38.0522C133.159 38.1322 133.176 37.2687 133.09 37.5725C133.689 38.516 132.663 39.7953 133.09 41.1226C132.919 41.7623 132.526 41.2186 132.406 41.7783C132.885 43.2655 132.098 43.3774 132.509 44.9766C132.885 44.4968 132.782 44.4169 133.244 45.5203L132.817 42.9137L133.501 44.5128C133.501 43.7132 133.142 42.9137 133.193 42.3699C133.569 43.1535 133.467 43.0736 133.774 42.6898C133.227 43.7932 134.253 44.8166 133.911 46.08H132.902C132.56 47.983 133.603 49.3902 133.501 51.8369L133.62 51.0373C134.048 51.3572 133.774 52.5405 133.98 53.3241C133.638 53.3241 133.535 53.7719 133.347 54.1237C133.603 54.1237 133.347 55.8987 134.116 56.0906L133.74 57.194C133.74 59.177 134.818 59.4009 134.818 61.3038C134.407 60.7441 134.219 61.6237 133.894 60.3603C133.894 61 133.894 61.5597 134.134 61.5597C133.945 61.9435 134.681 63.2868 134.39 63.8945C134.561 64.1503 134.92 64.2143 134.92 64.9339H134.766C134.766 64.9339 135.057 66.0373 135.382 65.3977C134.441 67.3966 135.775 70.8348 134.972 72.5618C135.16 73.9371 135.365 75.6002 135.45 76.8476C135.348 76.8476 135.296 76.8476 135.314 76.6077C135.091 78.3508 136.34 77.6311 136.1 79.6141C135.621 80.6375 135.741 78.5746 135.57 79.2143C134.476 79.5501 135.861 81.581 135.296 82.9403V82.6205C134.972 83.6439 135.861 85.0672 135.861 86.7143C135.861 86.7143 135.758 86.7143 135.707 86.7143C136.324 88.2579 136.721 89.871 136.887 91.5117C136.425 91.032 136.613 90.7921 136.186 91.1279C136.288 91.8316 136.887 90.8721 137.092 92.2953C136.887 92.7751 136.733 93.7985 136.271 93.8945L136.169 92.5672C135.604 93.2708 136.288 94.2943 136.169 94.9979H135.895C136.1 97.0448 136.767 97.0448 136.853 99.2356L137.041 99.0117C137.4 99.5714 137.297 99.8433 137.178 100.003C137.078 100.121 137.008 100.259 136.972 100.405C136.937 100.552 136.937 100.704 136.972 100.851C136.732 100.817 136.497 100.758 136.271 100.675C136.22 100.865 136.118 101.04 135.974 101.182C135.83 101.325 135.65 101.431 135.45 101.49L135.023 101.618L134.407 101.698C133.991 101.721 133.575 101.721 133.159 101.698C133.709 101.482 134.282 101.321 134.869 101.219C135.048 101.183 135.218 101.112 135.365 101.01C135.513 100.907 135.635 100.777 135.724 100.627C135.493 100.751 135.237 100.828 134.972 100.851C134.488 100.86 134.009 100.941 133.552 101.091C133.919 101.02 134.297 101.02 134.664 101.091C133.356 101.578 131.944 101.77 130.542 101.65C130.901 100.435 126.164 101.187 124.95 100.227C121.957 100.627 119.015 99.9552 115.509 100.067C116.758 101.011 114.483 100.067 114.722 101.091C114.327 101.161 113.921 101.161 113.525 101.091L111.165 100.595C110.584 100.323 111.935 100.371 111.866 100.147C110.156 100.147 111.097 99.7473 109.917 99.5235C110.156 99.8753 109.301 100.035 108.206 99.9392L109.643 100.355C107.18 100.947 107.471 99.5874 104.974 100.211L105.761 99.8753C104.478 100.099 100.989 100.083 99.792 100.963C99.5526 100.867 99.2276 100.611 99.792 100.499C96.6965 100.579 93.0537 101.794 90.591 101.57L90.7962 101.299C90.2147 101.426 89.8385 101.858 89.086 101.698C89.086 101.602 89.2912 101.442 89.086 101.458C88.368 101.775 87.5998 101.98 86.8113 102.066L87.4099 101.698C84.2631 101.906 82.8094 103.297 80.4664 104.337C80.1927 103.649 77.73 104.481 76.567 105.12V105.009C73.2321 107.071 72.1546 109.406 70.1366 111.693C68.92 112.387 67.7749 113.184 66.7161 114.076C66.374 114.3 66.0491 114.555 65.7071 114.747C65.6316 114.797 65.5515 114.84 65.4676 114.875H65.3137C65.1256 114.875 64.9546 114.875 64.9203 114.875C64.8679 115.041 64.787 115.198 64.6809 115.339C64.5441 115.547 64.3218 115.771 64.3218 115.675C64.3218 115.579 64.2192 115.419 64.1336 115.291C64.0481 115.163 64.0481 115.035 64.356 114.859V114.955C64.5343 114.791 64.6843 114.603 64.8006 114.396V114.188V113.74C64.8006 113.436 64.698 113.132 64.6638 112.86H63.7403C64.0149 111.086 63.857 109.276 63.2785 107.567C63.193 107.119 63.0904 106.672 62.9878 106.256C62.9135 105.643 62.7405 105.045 62.4747 104.481C62.0169 103.668 61.3234 102.992 60.4737 102.53C59.7853 102.473 59.0928 102.473 58.4044 102.53C57.9887 102.577 57.5772 102.652 57.173 102.754V102.306C55.248 102.193 53.3174 102.193 51.3924 102.306L51.9226 101.97C50.4518 101.97 50.0755 103.297 48.7244 103.329L48.2969 102.658C45.7315 102.658 43.1662 102.13 40.5837 102.754C40.6238 102.654 40.6969 102.57 40.7924 102.512C40.8878 102.454 41.0005 102.427 41.1139 102.434C39.9167 102.434 36.4279 102.018 36.8896 102.946C36.8896 102.338 34.2388 102.946 32.8535 103.186L33.0587 102.738C32.2225 103.285 31.2387 103.6 30.2197 103.649C29.8263 103.649 29.8777 103.297 30.3907 103.393C29.0738 103.186 29.3817 103.825 28.424 103.601L28.8857 103.313C28.6526 103.288 28.4164 103.321 28.2016 103.409L27.8938 103.553C27.8169 103.582 27.7313 103.582 27.6544 103.553C27.5417 103.228 27.5108 102.883 27.5642 102.544C27.6176 102.206 27.7538 101.883 27.9622 101.602C27.7338 101.414 27.5548 101.179 27.4391 100.916C27.3234 100.652 27.2742 100.367 27.2952 100.083C27.4491 99.9712 27.5688 100.227 27.6372 100.355C27.7399 98.2601 26.765 97.3326 27.09 95.8774C27.1547 95.8628 27.2135 95.8307 27.2591 95.7853C27.3047 95.7398 27.335 95.6829 27.3465 95.6215C27.5004 97.2207 27.6201 98.58 27.5688 98.452C28.0135 98.452 27.9451 97.0928 28.6634 98.0842C27.9399 96.8153 27.4978 95.4229 27.3636 93.9904C27.3931 93.9222 27.4401 93.8617 27.5004 93.8145V93.9424C27.5121 93.6634 27.4596 93.3853 27.3465 93.1269C27.3802 92.7704 27.3802 92.4119 27.3465 92.0554C27.6886 91.8795 27.3465 90.4563 27.3465 89.8646C26.8676 89.8646 26.8847 89.081 26.5598 89.8646C26.5598 89.7687 26.5598 89.9925 26.6624 90.4243C26.6624 90.5363 26.6624 90.6482 26.6624 90.7122C26.6624 91.1439 26.765 91.7196 26.8334 92.3113C26.6853 92.042 26.5955 91.748 26.5691 91.4461C26.5427 91.1443 26.5802 90.8405 26.6795 90.5522C26.3546 90.2324 26.0125 89.8806 25.8415 89.6727C26.4572 88.7292 26.6966 86.9702 27.09 86.6983C26.6966 84.6994 26.6111 81.9009 25.6705 80.7175C25.5166 80.1418 25.8928 80.0459 26.0296 79.822C26.0703 80.1285 26.1507 80.4292 26.2691 80.7175C25.9954 79.5821 26.0296 77.3273 25.3968 77.0714C25.6192 75.6002 25.9954 77.871 25.8244 75.8721L26.0296 76.1439C26.9018 72.194 24.2168 69.7473 25.4481 65.4137C25.4481 65.7175 25.3455 65.8774 25.2429 65.9414C25.7389 60.968 24.6443 55.7068 25.6192 50.8134C25.7581 49.9843 25.5827 49.1357 25.1232 48.4147L25.6363 48.1109L25.0719 46.6557C24.6785 44.5768 26.423 43.1056 25.6705 40.483L25.3113 40.8188C25.3113 39.8753 25.2087 37.8444 25.6021 38.0043C25.4997 37.9247 25.4278 37.8162 25.3969 37.6951C25.3661 37.574 25.3781 37.4468 25.431 37.3326H25.7047L25.3284 35.0299C25.585 33.2388 26.3888 35.3337 26.5427 32.7431C26.5427 31.7676 25.8586 29.9606 25.6705 30.3124C25.4824 30.6642 25.4653 31.3038 25.1916 31.3198L25.089 30.4243C24.2852 30.2484 23.4985 29.5288 22.8657 31.6876L23.2933 33.2868L22.8828 33.7665V32.4872C22.7486 32.7557 22.6877 33.051 22.7057 33.3469C22.7236 33.6427 22.8197 33.9298 22.9854 34.1823C22.7606 34.3323 22.6024 34.5542 22.5408 34.806L23.2419 36.3252C22.9341 36.5011 22.6605 35.6375 22.4552 36.629C22.7802 37.3486 23.1735 35.9894 23.3617 37.1407C22.9683 37.8604 22.6947 37.6365 22.9683 38.5C22.7631 38.612 22.6263 38.5 22.5579 38.1002C22.7802 38.8518 22.5579 40.0992 23.0025 40.5149C22.5408 41.2505 23.0025 43.0736 22.3013 42.9776C22.6195 43.6236 22.8162 44.3161 22.8828 45.0245C21.9935 43.7452 22.7631 47.6471 21.8054 47.2793C22.5921 48.2388 22.1132 50.7015 22.5408 52.3806C22.4373 52.2578 22.3828 52.1051 22.3868 51.9488C22.322 52.5717 22.1725 53.1843 21.9422 53.7719C22.6092 53.8998 22.746 55.371 23.1564 56.1546C22.5065 57.306 22.3868 55.451 21.754 55.8028C22.3013 55.8028 22.2842 57.8177 22.746 57.4019C22.3355 58.2815 22.5408 58.1695 21.9935 58.6173C22.8315 58.7772 22.1303 59.4488 22.6605 60.2164C22.25 61.4957 21.8738 60.5522 22.1303 61.9595C21.8738 62.5192 21.5659 61.2719 21.5659 61.2719ZM24.4562 94.5661V93.8785C24.3707 94.0384 24.4049 94.2303 24.4562 94.5661ZM24.7299 97.3646C24.7299 97.0288 24.7299 96.597 24.6272 96.1493C24.7812 96.0373 24.9522 96.1493 24.9693 96.4211C24.8496 96.2772 24.8154 96.9488 24.7299 97.3646ZM27.5175 91.2239C27.6201 91.6557 27.5175 91.8156 27.5175 91.8795C27.5175 91.6717 27.5175 91.4318 27.3807 91.1119C27.432 91.1427 27.4781 91.1805 27.5175 91.2239Z" fill="#DC362E"/>
<path d="M26.8165 90.5522C26.8068 90.494 26.8068 90.4346 26.8165 90.3763C26.7747 90.4643 26.7404 90.5552 26.7139 90.6482L26.8849 90.7921L26.8165 90.5522Z" fill="#DC362E"/>
<path d="M58.7979 106.544V106.432H58.6782L58.7979 106.544Z" fill="#DC362E"/>
<path d="M67.0241 28.6492C66.9611 28.5952 66.8847 28.5567 66.8018 28.5373C66.8018 28.5373 66.9044 28.6013 67.0241 28.6492Z" fill="#DC362E"/>
<path d="M59.8582 28.7932L58.8491 28.6653C59.182 28.729 59.5191 28.7717 59.8582 28.7932Z" fill="#DC362E"/>
<path d="M54.4366 28.7612C54.3887 28.8179 54.3538 28.8832 54.334 28.9531L54.4366 28.7612Z" fill="#DC362E"/>
<path d="M136.118 36.4531C136.118 36.4531 136.118 36.597 136.118 36.645C136.272 37.1088 136.22 36.8049 136.118 36.4531Z" fill="#DC362E"/>
<path d="M115.509 27.7697C115.767 27.6816 116.03 27.6068 116.296 27.5458C115.868 27.5139 115.509 27.5139 115.509 27.7697Z" fill="#DC362E"/>
<path d="M138.237 63.3987H138.221L138.237 63.5586V63.3987Z" fill="#DC362E"/>
<path d="M117.544 27.5458C117.144 27.4654 116.73 27.4654 116.33 27.5458C116.734 27.5858 117.141 27.5858 117.544 27.5458Z" fill="#DC362E"/>
<path d="M30.4421 29.6247H30.1514C30.2882 29.6727 30.4079 29.6727 30.4421 29.6247Z" fill="#DC362E"/>
<path d="M29.5356 29.7847L30.1513 29.6407C29.9339 29.6114 29.7128 29.6631 29.5356 29.7847Z" fill="#DC362E"/>
<path d="M37.9828 29.4328V29.2729C37.9704 29.2977 37.9639 29.3251 37.9639 29.3529C37.9639 29.3807 37.9704 29.4081 37.9828 29.4328Z" fill="#DC362E"/>
<path d="M40.1734 29.2889C39.4989 29.1568 38.8096 29.103 38.1211 29.129V29.2729C38.3776 29.0011 39.6945 29.5928 40.1734 29.2889Z" fill="#DC362E"/>
<path d="M49.4428 30.92H47.5957C47.9206 31.08 48.3482 31.2879 47.5957 31.3678C49.8703 31.7516 47.0313 30.952 49.4428 30.92Z" fill="#DC362E"/>
<path d="M55.1549 30.952C54.1801 31.08 55.1549 31.2079 55.1549 31.3038C55.7535 31.1279 55.9075 31.08 55.1549 30.952Z" fill="#DC362E"/>
<path d="M96.4229 29.7846L96.3203 30.1844C97.0899 30.1205 96.3374 30.0405 96.4229 29.7846Z" fill="#DC362E"/>
<path d="M104.273 27.5139L103.52 27.274L103.178 27.6578L104.273 27.5139Z" fill="#DC362E"/>
<path d="M108.976 30.3604L108.651 30.4243L109.917 30.2484L108.976 30.3604Z" fill="#DC362E"/>
<path d="M134.441 71.1066L134.972 70.8667C134.852 70.387 134.236 70.323 134.441 71.1066Z" fill="#DC362E"/>
<path d="M136.579 99.0437C136.443 99.2419 136.355 99.4658 136.323 99.6994C136.284 99.7712 136.263 99.8506 136.263 99.9312C136.263 100.012 136.284 100.091 136.323 100.163C136.395 100.003 136.452 99.8369 136.494 99.6674C136.573 99.4683 136.602 99.255 136.579 99.0437Z" fill="#DC362E"/>
<path d="M64.0313 111.277L64.2878 111.821L63.9971 110.781L64.0313 111.277Z" fill="#DC362E"/>
</svg>
