<svg width="44" height="102" viewBox="0 0 44 102" xmlns="http://www.w3.org/2000/svg" xmlns:xlink="http://www.w3.org/1999/xlink">
    <defs>
        <path id="yellow-pointer-hand_svg__a" d="M.2.14h9.155v9.102H.2z"/>
    </defs>
    <g fill="none" fill-rule="evenodd">
        <path d="M15.417 18.363c-2.528 0-4.577 2.038-4.577 4.55 0 2.514 2.049 4.552 4.577 4.552s4.577-2.038 4.577-4.551c0-2.513-2.049-4.551-4.577-4.551m0 1.027c1.955 0 3.544 1.58 3.544 3.524s-1.59 3.525-3.544 3.525c-1.955 0-3.545-1.581-3.545-3.525 0-1.943 1.59-3.524 3.545-3.524M15.417 36.041c-2.528 0-4.577 2.038-4.577 4.551 0 2.514 2.049 4.552 4.577 4.552s4.577-2.038 4.577-4.552c0-2.513-2.049-4.55-4.577-4.55m0 1.026c1.955 0 3.544 1.581 3.544 3.524 0 1.944-1.59 3.525-3.544 3.525-1.955 0-3.545-1.581-3.545-3.525 0-1.943 1.59-3.524 3.545-3.524" fill="#FDE293"/>
        <g transform="translate(10.64 .545)">
            <mask id="yellow-pointer-hand_svg__b" fill="#fff">
                <use xlink:href="#yellow-pointer-hand_svg__a"/>
            </mask>
            <path d="M4.778.14C2.249.14.2 2.177.2 4.69c0 2.514 2.05 4.552 4.578 4.552 2.528 0 4.577-2.038 4.577-4.552 0-2.513-2.05-4.55-4.577-4.55m0 1.026c1.954 0 3.544 1.582 3.544 3.524 0 1.945-1.59 3.525-3.544 3.525-1.955 0-3.545-1.58-3.545-3.525 0-1.942 1.59-3.524 3.545-3.524" fill="#FDE293" mask="url(#yellow-pointer-hand_svg__b)"/>
        </g>
        <path d="M42.518 83.442V61.814M33.451 76.596v-17.52M24.384 76.596V57.022M15.317 76.596V40.593M7.101 88.038L1.5 67.354M7.1 88.038c2.042 7.662 9.062 13.309 17.41 13.309 9.946 0 18.009-8.016 18.009-17.905" stroke="#FBBC04" stroke-width="1.2"/>
    </g>
</svg>
