<svg width="60" height="61" viewBox="0 0 60 61" xmlns="http://www.w3.org/2000/svg">
    <g fill="none" fill-rule="evenodd">
        <path d="M29.999 0C23.45 0 18.142 13.48 18.142 30.11s5.308 30.111 11.857 30.111c6.548 0 11.857-13.48 11.857-30.11S36.547 0 29.999 0m0 .997c5.247 0 10.864 11.699 10.864 29.114s-5.617 29.113-10.864 29.113c-5.247 0-10.864-11.698-10.864-29.113S24.752.997 29.999.997" fill="#FDE293"/>
        <path d="M1.652 20.074H58.47" stroke="#FDE293" stroke-width="1.2"/>
        <path d="M29.999 0C13.43 0 0 13.48 0 30.11s13.431 30.111 29.999 30.111c16.568 0 30-13.48 30-30.11S46.566 0 29.998 0m0 .997c15.994 0 29.006 13.06 29.006 29.114 0 16.053-13.012 29.113-29.006 29.113S.993 46.164.993 30.111C.993 14.057 14.005.997 29.999.997" fill="#FDE293"/>
        <path d="M1.833 40.148H58.29" stroke="#FDE293" stroke-width="1.2"/>
    </g>
</svg>
