<svg width="116" height="141" fill="none" xmlns="http://www.w3.org/2000/svg"><path d="M56.778 15.764c-.136.169 0 .473.407.405l.272-.574-.68.17zm3.005.928c.51-.303 1.12-.708.798-1.248-.527.489-.663.32-1.206.962-.441 0-.764-.152-.696-.355-.153.135-.696-.101-.917.253a1.91 1.91 0 002.055 0c.152.135 0 .287-.034.389zm32.82 22.431v-.27a.886.886 0 000 .27zM96.067 63.9v-.303c0-.017-.068.337 0 .304zm-1.443 4.119l.102-.236s-.136.168-.102.236zm-2.021-28.896l.136.693c.187-.034-.034-.372-.136-.693zm-26.776-23.19c-.145 0-.29.03-.424.084h.373l.051-.084zm20.018 14.296l-.135-.152h-.29l.425.152zm-6.485-5.553c.135.135.475-.22.662-.338a.615.615 0 01-.544 0 .84.84 0 00-.119.338zm10.204 10.397a.589.589 0 00-.102.152.253.253 0 00.102-.152z" fill="#4C8DF6"/><path d="M58.764 15.832h-.153v.253l.153-.253zM33.67 103.21c.679.641-1.444.169-.374.962-.051-.22 1.29-.422.373-.962zm32.378-87.159h.373c-.123-.02-.25-.02-.373 0zm-32.752 88.121l.119.084-.12-.084zM82.5 90.703c.09.017.182.017.272 0 0 0-.102-.05-.272 0zm8.117-10.836l-.221.27c.08-.084.154-.174.22-.27zM78.103 96.205c-.153.102-.255 0-.39.304a.455.455 0 01.39-.304zm-5.858 4.49h.17l.17-.152-.34.152zM25.672 21.283c.191.028.372.104.527.22-.272-.253.713-.895-.527-.22zm40.104-5.08a.288.288 0 01.272-.152h-.272s-.05.101 0 .152zm14.551 82.973l-.985.776c.35-.23.68-.49.985-.776zM1.053 67.715l-.119-.202c.019.077.06.148.119.202zm75.352 34.6a2.292 2.292 0 00-.781.152.762.762 0 000 .186l.78-.338z" fill="#4C8DF6"/><path d="M33.313 17.283c-1.121.388-.306.777-.425 1.199-1.256.658-.78-.203-1.341-.338-.781.456-1.189 1.266-1.8 1.485-.085 0-.22 0-.119-.236-.679.793-2.53 1.148-3.226 2.177a.41.41 0 01-.204 0c.245.163.43.4.527.675-.459.254-.662.81-1.036.54.289-.134.238-.303.323-.489l-.408.422c-.713-.287.56-.54.374-.912a15.16 15.16 0 01-2.513 1.823c-.442-.405 1.562-1.13.356-1.012.408-.17.832-.287 1.24-.422-1.308-.338.713-.304-.543-.743-1.596.658-1.512 1.198-3.074 1.907-.152.473.357.321.204.81-1.698 1.773-2.394-.185-3.396 1.503-.136.59.136 1.215-1.07 1.688v-.794c-1.324 1.013-.152 1.3-1.697 2.076 0-.405.849-.979.594-.877-1.206.303-.357.776-.985 1.35l-.526-.304c-.63.65-1.2 1.356-1.698 2.11l-1.698 2.312c0-.202 0-.574-.407-.337-1.393 2.008-3.396 4.017-4.856 5.89v1.03c-.12.185-.408.219-.357 0-.645.708.238.185.187.675-.051.49-.577.472-.543.1a21.543 21.543 0 01-2.327 5.942v-.371c-.679 1.198.442 1.688-.356 2.768v-.237c-1.053 2.7-1.206 5.908-2.038 8.068.612.456-.39 2.903.595 3.072A9.343 9.343 0 000 63.496c0 .624.73.843.95 1.586l-.509.101.73.929-.526.658.289.743c0-.304.102-.659.255-.642a3.693 3.693 0 010 2.836c.373.827.764 1.688 1.171 2.413-.22 0-.424-.388-.645-.692.917 1.199-.459.422.407 1.502 0-.202.323 0 .442 0 .024 1.06.31 2.097.832 3.022h-.408a59.563 59.563 0 002.598 5.721c-.17-.776.475-.877.781-.32l-.39.455c.475.237-.085-.692.645-.1.288.759-.34.759-.713.421l.61.81c-.135.118-.305 0-.525 0 .475.22.254 1.79 1.052 2.042l-.119.136a46.786 46.786 0 002.598 4.253c.442-.22.696.456 1.308.692a18.196 18.196 0 002.105 3.865c.866.742.51 0 1.036.236-.289.338.764 1.553 0 1.097a18.38 18.38 0 003.667 3.376c-.085-.304-.238-.574 0-.574s.611.81.425.928h-.12a17.36 17.36 0 013.312 3.055 6.452 6.452 0 003.48 2.211h-.136c.764.22 1.512.405 2.276.574.933.49-.713 0-.102.591 2.53.304 3.6 1.519 5.67 1.688 1.172 1.688 5.332 1.198 7.2 2.295v-.321c.577-.202.611.27.985.406 0-.237-.527-.372-.17-.473 4.448.321 9.117 1.688 13.94 1.823 1.697 0 .9-1.57 3.124-1.047l-.56.608c3.395-.945 7.25-1.148 10.187-3.021-.136.202 0 .354-.39.489.848.101 2.495-1.063 2.36-1.367.492-.219.237.203.61.203.781-.102 1.376-1.3 1.92-1.131.084 0-.12.219-.222.304.323-.389 1.936-1.064 1.308-1.233 1.205-.489 1.952-1.485 2.92-1.856.238-.793 1.902-1.097 1.698-1.823.407.675 2.14-.911 2.479-1.688 0 .355.679-.27.662.169.662-.624 1.189-1.3.798-1.468 1.834-.557 1.885-2.853 3.396-2.785a130.036 130.036 0 004.092-6.465c.288.254 0 .81-.425 1.35-.424.54-.747 1.03-.39 1.233.5-.877.932-1.791 1.29-2.735.395-.895.878-1.748 1.443-2.548.408-.456.102.456.12.692a42.847 42.847 0 002.886-5.806v.49c.17-.372.492-.81.17-.912v.388c-.714.355-.272-1.89-.493-2.06.628 1.03 1.053-1.687 1.698-.218 0-.27 0-.642-.204-.676.22-.32.374-.388.476 0 .356-1.417-.17-1.08.305-2.278.153 0 .12.32.255.523a4.231 4.231 0 01.34-2.447c.084 0 .254 0 .152.32.527-1.822.153-3.375.917-5.198.56.743.408-.625 1.053-.608v-1.13l-.39.37c.186-.961-.12-1.873.237-2.666l.119.76c0-.608.153-1.216.17-1.823-.12.337-.238.658-.374.995-.17-1.012-.798 0-.475-1.265 0 .27.119-.946.543-1.401a2.736 2.736 0 01-.119-1.688c.204-.169.696.186.832.084-.51-.506 0-2.295-.611-2.886a.442.442 0 00.526.135l-.424-.388c.119-.456.187-.523.458-.439 0-1.367-.798.439-.51-1.164 0 .118.103 0 .17.32.17-1.688-.458-3.072-.424-4.557.578-.523.306 1.266.781.71a28.186 28.186 0 00-.373-1.689l-.544-1.57a33.432 33.432 0 01-.509-1.57 12.793 12.793 0 01-.441-1.518v.388c-.951 0 0-1.688-.714-2.481.17.203.595.152.476.118a9.982 9.982 0 00-.9-2.093c-.204-.354-.424-.725-.645-1.13l-.866-1.25.322.136a14.518 14.518 0 00-1.239-2.87c-.34-.118-.56-.574-.696-.135a5.043 5.043 0 00-.645-1.991 12.294 12.294 0 00-1.29-1.503 7.884 7.884 0 01-2.259-3.02c.187.219.611.404.459.219-.51-.49-1.002-.996-1.546-1.452-.17.388 0 .354 0 .895a2.857 2.857 0 01-1.24-.71c.85.473.46-.438.323-.877 0 .135-.237.118-.305.236-.272-1.265-.68.422-1.392-.962l.203-.084c-.458-.338-1.052-.439-1.46-.878.12-.506.594.22.866 0-.662-.54-1.817-.439-2.105-1.283.356.136.747.473 1.103.608a2.463 2.463 0 00-.883-1.384c-.322-.354-.679-.692-1.018-1.046l.22.337c-1.579.355-1.85-1.164-3.514-1.215 1.562.084.424-.236.78-.625-.237-.303-.627-.725-.424-.776-.798 0-.815-.878-1.952-.827 0-.169-.662-.354-.323-.641-.866-.287 0 .337-.102.49a4.595 4.595 0 01-2.122-1.064 4.483 4.483 0 00-2.683-.945c-1.698-.338-2.173.22-3.718 0-.425-.405.577-.473.577-.473a3.41 3.41 0 00-2.088-.692c.187-.118 0-.253-.17-.49-.645 0-.526.524-1.324.136a2.48 2.48 0 01.747-.54 19.72 19.72 0 00-2.377.27c-.17-.304.526-.405.832-.557-.917 0-2.343 0-2.65.523l.561.202c-.322 0-.136-.405.102-.472.798-.304 1.087.236 1.104.405h-.56c.237.506.797.473 1.426.405a7.379 7.379 0 011.918 0l-.577.608 1.222-.372c.204.22.272.625-.271.642.696.472.747-.135 1.307.422v.118h.798c-.187.101 0 .506-.441.287 1.188.776 2.292 0 2.598.776h-.12c1.851.456.34-.422 1.902-.473l.425 1.52.373-.406c.187 0 .51.304.374.456.798 0 0-.27.492-.371.645.844 2.48.945 2.258 1.772.493-.169-.645-.692.374-.439-.187.912 1.087.473 1.698 1.266-.459.253-1.036-.371-.51.422.866-.405 1.342.996 1.97 1.317.374-.473 1.46.675 2.513 1.3-.204.134 1.562 1.687 2.19 2.666H84.3c.578-.287 1.325.624 2.02 1.13-.305.237-.508.22-.95 0l.56.558a1.262 1.262 0 01.9.455l-.475.152c.679.794 1.816 1.232 2.394 2.515.39-.186.322-1.688 1.41-.608-.154.186-.46.473-.748.22 0 0 .407.253.475.506l-.645-.236c.22.608.442 0 .713.506-.288.186 0 .44-.237.524-.238.084-.136-.422-.357-.507.283.438.43.949.424 1.469.12-.152.374-.254.646 0 .594.877-.153.523 0 1.13.322.102.458.794.9.557.152.27 0 .44 0 .608.509.32 1.273 2.177 1.46 1.384V38.5a6.82 6.82 0 011.273 2.464c.085.996.296 1.977.628 2.92h-.152c.375.986.829 1.94 1.358 2.853.085.303-.102.793-.323.709.348.609.496 1.31.425 2.008-.442-.743-.187.32-.357-.776 0 1.063-.152 1.333.476 2.362-.459-.303-.442.861-.255 1.334l.22-.776c.096.506.152 1.02.17 1.535l-.594-.202a5.792 5.792 0 00.374 2.886 2.504 2.504 0 01-.136 2.515c.373.574.306-1.148.764-.642-.119.996-.968 1.992-.985 2.279-.373 1.3.713 1.316.374 2.7.204-.151.764-.27.832.81.068 1.08-1.036 1.098-1.07.456 0-.236.102-.337.17-.32 0-.321-.085-.743-.34-.389l.187.152c-.238.456-.492 1.79-.747 1.418 0 .76.272.371.458-.152-.526 1.182-.288 1.941-.815 3.156.153-.185.425-.32.374-.118-.696 1.79.17.912 0 2.195-.475.64-.594-.44-.73.877-.442.692-.577 0-.628-.337 0 1.232-.917 2.008-1.189 2.616v-.642a2.671 2.671 0 01-.22.962l.509-.202c-.204.32-.323.607-.476.54.12.439.747 0 .798.776-.356.389-.34 1.486-.883 1.435.714-1.367-.56 0-.17-1.283-.053.307-.169.6-.339.861-.085 0-.085-.101-.085-.203-.968 1.165.323.861-.322 2.228-.187-.287-.663.085-.714.338.255-.54.578 0 .56.557-.627.776-.288 1.046-.56 1.485.12-.168.255-.32.374-.472.187.303-.085.725-.34 1.384-.22 0 .153-.625 0-.456.102.911-1.273 1.266-1.494 2.346-.441.304-.526-.253-.866 0-.271 1.198-1.018.86-1.392 2.076.526-.084.51-.186.34.76.322-.608.56-1.266.849-1.89l-.187 1.434c.322-.523.458-1.25.713-1.52 0 .693-.102.591.356.507-.967.405-.577 1.688-1.51 2.228l-.9-.54c-1.189.928-1.053 2.43-2.48 3.764l.527-.371c.153.438-.696.962-.95 1.552-.222-.27-.578 0-.918 0 .221.152-.934 1.03-.56 1.688l-.883.338c-1.188.979-.56 1.907-1.698 2.903 0-.591-.56-.287 0-1.165-.34.338-.696.608-.543.776-.357 0-.713 1.283-1.274 1.334 0 .253.12.557-.322.911-.085 0-.102-.135-.102-.135s-.526.743.085.71c-1.817.202-3.396 2.75-4.992 2.733a22.83 22.83 0 01-2.87 1.857c0-.118-.084-.152.103-.203-1.342.372-.29 1.249-1.851 1.688-.934-.152.628-.624 0-.59-.645-.895-1.613.911-2.819.692l.204-.152c-.849-.085-1.698 1.063-2.903 1.316v-.152a8.101 8.101 0 01-3.515 1.688c.306-.489.51-.321.22-.709-.543.135.272.675-.831.945-.39-.185-1.223-.287-1.376-.742l1.036-.152c-.594-.523-1.341.169-1.901.118v-.27c-1.58.186-1.58.861-3.396.827l.186.202c-.967.659-.815-.371-1.697.102l-.136-.743c-1.112.288-2.25.469-3.396.54a16.552 16.552 0 012.852-.844 5.995 5.995 0 00-2.462.22 1.57 1.57 0 01.833 0 4.912 4.912 0 01-3.108.489c.374-1.249-3.209-.726-3.956-1.873-2.275.135-4.279-.895-6.791-1.435.628 1.198-.713-.152-.832.895-.595-.102-.815-.169-.85-.254a48.19 48.19 0 01-1.527-1.097c-.493-.371.594 0 .61-.287-1.17-.472-.373-.59-1.069-1.097 0 .405-.577.355-1.205 0l.78.794c-1.867-.102-1.103-1.334-2.92-1.536h.646c-.934-.169-2.92-1.435-4.092-1.232 0-.186 0-.54.288-.389-1.698-1.198-4.414-2.16-5.28-3.747h.306c-.34-.219-.85-.168-1.02-.709.103 0 .306 0 .188-.185a3.054 3.054 0 01-1.308-1.013l.527.152c-1.138-1.789-2.65-2.076-3.838-3.494.611-.405-.119-1.94-.458-2.717h.102c-1.223-2.177-2.683-3.376-3.99-5.384 0-1.688-1.8-4.659-2.225-7.022 0 .389-.56.17-.78-.202-.221-.371-1.036-1.249-.357-1.4v.185c.492-.608 0-1.688-.306-2.43l-.883.117a8.059 8.059 0 00-.713-3.966c-.424-1.3-.798-2.498-.305-3.19-.323-.49-.374-1.165-.663-1.688h.476v-4.034l.34.372c0-.996-1.342-1.35-1.291-2.346l.73-.22c.153-1.84 1.155-3.477.95-5.384a.407.407 0 01.239.456c.237-.827 1.426-2.988.424-3.021.628.202.68-1.688.883-2.768l.357.337a3.072 3.072 0 010-2.261c.186-.22.458 0 .17.236.661-.726 0-.861.712-1.688v.523a1.683 1.683 0 00.289-1.468c.17-.625 1.07-1.536 1.511-1.401a1.208 1.208 0 01.306-1.283c.187 0 .136.253.119.371 1.154-1.147 1.018-2.261 2.054-2.869a.358.358 0 00.34 0 19.63 19.63 0 01-1.427 1.688c.357.253 1.036-.506 1.02.506.237-.843.543-2.413 1.392-3.02h.203v.117c.165-.142.293-.322.374-.523.254-.202.441-.32.662-.523.34.169.95-.709 1.324-1.063-.356-.304.17-.726-.56-.557.085 0 0 .118-.255.37-.254.254-.102.136-.119.187l-.883.945a1.38 1.38 0 01.867-1.131 8.237 8.237 0 010-1.063c.984 0 2.24-.675 2.648-.49.493-.624 1.206-1.232 1.783-1.873a4.353 4.353 0 001.273-1.89c.289-.355.56-.085.781 0-.17.219-.407.387-.458.573.594-.709 2.19-1.536 2.02-2.194 1.138-.354-.254.81 1.053 0l-.085.27c3.09-.675 3.685-3.865 7.437-4.05h-.475c3.82-.997 7.538-3.258 11.562-3.19 1.12 0 1.155-.49 1.698-.895l.34.456 1.035-.777c1.563-.709 2.989.777 4.941-.27l-.305-.304c.747 0 2.343-.439 2.258 0 0 0 .204-.371.51-.22v.254l1.799-.59c1.443.117-.153 1.063 1.919 1.012.747-.135 2.156-.86 1.867-1.03-.288-.168-.798-.135-.832-.405l.697-.152c.101-.793.662-1.687-1.138-2.11l-1.223.524-.424-.355h1.036c-.595-.337-.968 0-1.376.254a.744.744 0 00-.543-.389l-1.172.827c-.17-.303.51-.658-.322-.76-.543.39.594.642-.323.946-.628-.304-.475-.607-1.154-.236-.12-.203 0-.338.288-.456-.594.304-1.698.253-1.901.709-.662-.354-2.072.354-2.106-.371a3.82 3.82 0 01-1.562.844c.883-1.047-2.122.287-2.02-.676-.628.912-2.7.878-3.94 1.688 0-.084.17-.253.306-.236a5.008 5.008 0 01-1.579 0c0 .675-1.07 1.08-1.579 1.688-1.07-.355.357-.912-.102-1.418.187.506-1.443.979-1.001 1.317-.815-.186-.663 0-1.189-.422.136.827-.594.337-1.019 1.012-1.12 0-.509-.658-1.528 0-.407-.877.476-1.519.476-1.519zM11.087 33.42l.357-.456c-.085.101-.17.236-.357.456zm-1.46 1.772c.2-.249.388-.508.56-.777.187 0 .255.22.102.406.068-.17-.34.185-.662.37zm5.654-1.435c-.187.287-.34.304-.441.27.14-.145.264-.303.373-.472a.789.789 0 01.068.202z" fill="#4C8DF6"/><path d="M15.281 32.946a.496.496 0 010-.118h-.22v.186l.22-.068zm77.254 5.874a.287.287 0 010-.118v.118zM.323 65.2l.118-.017-.135-.185.017.202zm86.269-37.3a.504.504 0 000-.203v.203zm-3.972-3.764l-.527-.507c.164.18.34.35.527.507zm-3.312-2.616a.887.887 0 00-.186.118l.186-.118zm14.297 59.495a.603.603 0 000 .152c-.221.405-.068.169 0-.152zm4.516-19.207c0 .22.119.439.153.658.068-.355.204-.624-.153-.658zM80.446 99.092l-.119.084.119-.084zm17.726-35.715a1.96 1.96 0 00.102-.911 2.366 2.366 0 00-.102.911zM62.024 15.41h-.204c.01.027.01.057 0 .084l.204-.084zm-.238.05h-.22c.101.034.186.051.22 0zm-.662.119l.492-.085c-.22-.017-.492-.05-.492.085zm6.469.894l.102-.152a.59.59 0 00-.102.152zm1.664.405c-.374-.152-.883-.641-1.477-.692l-.085.118c.34-.152 1.12.76 1.562.574zm5.671 4.54l-1.154-.725c.135.27.305.624-.272.405 1.29 1.232-.136-.524 1.426.32zm3.498 2.312c-.662-.303-.136.22-.221.288.475.118.577.151.22-.287zm17.047 24.018h-.442c.17.557.17 0 .442 0zm3.124 5.502l.204-.59-.425-.236.22.827zm-2.904 3.596v-.237c.079.3.141.605.187.912-.102-.135-.153-.44-.187-.675zM73.01 99.581l.44.338c.323-.338.035-.794-.44-.338zm-20.019 6.988a1.104 1.104 0 00-1.222-.186c.4.102.81.164 1.222.186zM5.858 70.044l.288.372-.373-.743.085.371zm49.697 67.563c.153 0 .476.001.408-.151l-.56-.119.152.27zm1.019-1.215a1.578 1.578 0 00-1.274-.27c.544.186.323.237.968.456 0 .169-.17.304-.39.27.152 0-.12.287.237.371.442-.236.442-.523.085-.827.119-.067.272 0 .374 0zm.458-17.182v.102a.153.153 0 000-.102zm.068-10.65a.172.172 0 00.044.075.16.16 0 00.075.043s-.068-.135-.119-.118zm.628-1.84a.237.237 0 000 .119v-.119zm-.696 12.49l.17-.287c-.17-.016-.119.135-.17.287zm-1.867 14.853c.031.067.085.12.152.152a.604.604 0 010-.152h-.152zm2.563-6.582s-.458-.102-.662-.119a.423.423 0 01.322.169l.34-.05zm-.662 5.721v.102a1.02 1.02 0 000-.102zm1.138-29.823c.053.106.035.053 0 0zm-1.07-30.516c-.425.354-.56-.54-1.019 0 .17-.068.747.439 1.019 0zm-1.919 61.099a.37.37 0 010-.135.185.185 0 000 .135zm2.513-38.229l-.204.084.204-.084zm-.73-2.903s.102-.102 0-.203c0 0 .068.068 0 .203zm-.085-3.14h-.084v.102l.084-.102zm-4.788-59.63c.136-.066.278-.116.425-.152-.34.05-.459-.388-.425.152z" fill="#4C8DF6"/><path d="M55.42 134.063a.25.25 0 01-.115-.027.252.252 0 01-.09-.074v.101h.204zM53.229 92.83v-.49a2.166 2.166 0 000 .49zm-.509-40.643v-.118s-.085.084 0 .118zm.458 38.617a.78.78 0 00.323-.287.256.256 0 00-.119 0l-.204.287z" fill="#4C8DF6"/><path d="M51.344 26.701c0 .473.629.203.985.304.204.54-.458.27-.764.456.17.354.747.607.73.86-.017.254-.136 0-.271 0 .509.355 0 1.098.696 1.503h-.153c.281-.046.568-.046.849 0 0 .202.407.371 0 .455 0-.118-.153-.135-.289-.185l.187.22c-.577.202-.204-.305-.645-.288.204.422.696.912.543 1.25-.577 0-.22-.777-.713-.322l.136-.573c-.9.405 0-.321-.9 0-.153.675.306.742.153 1.4.322.152.475 0 .798.085.594.928-1.426.776-.645 1.452.39.185 1.12.236.747.742l-.662-.169c0 .659.95.355.526 1.047-.255-.118-.238-.507-.306-.405-.51.455.374.303.39.641h-.576c.101.675.543 1.435.662 2.194-.17 0-.357-.169-.527 0 .2 1.007.082 2.05-.34 2.988l.51.337c0 .085-.238.152-.323 0-.186.372.306 0 .51.186.204.186-.272.27-.425.152.425.624.951 1.789.425 2.48l-.017.17c-.187.523 1.036.574.594 1.063l-.102-.084c-.187 1.13.306 2.38-.424 3.257.713.152-.306 1.13.696 1.181-.476.659-.662.49-.968 1.401 0 .254.628.355.747.642h-.526l.56.388-.628.236.153.27a.388.388 0 01.373-.22c.255.44-.34 1.081-.61 1.098l.474 1.03c-.22 0-.288-.186-.424-.321.543.54-.56.118 0 .608h.425a1.178 1.178 0 00-.153 1.265h-.374c0 .777.22 1.688.22 2.498.17-.303.799-.253.867 0l-.56.118c.356.152.203-.27.628 0 0 .338-.611.237-.798 0l.203.389h-.475c.357.151-.543.692 0 .911h-.17c0 .878.221 1.266.272 1.975.475 0 .373.287.764.472a5.04 5.04 0 00-.441 1.688c.237.439.407.118.696.32-.442 0-.39.66-.714.355.06.653.226 1.291.493 1.89.17-.1.255-.219.407-.168.153.05-.186.405-.39.388.679 1.046-1.206 2.498-.272 3.376l.493.877c0 .406-.34-.236-.595 0 .747.929 0 1.502.425 2.279-1.257.641.153 2.144-.645 2.987h.288c.306.203-.152.254-.22.422.237 0 .254-.236.424-.118a16.884 16.884 0 01-.713 5.52c0 .674 1.562.354.866 1.214l-.578-.185c.697 1.333 0 2.768.646 4.084-.136 0-.306 0-.306-.202-.407.287 0 1.03.34 1.03 0 .202-.306 0-.459.185-.152.186.527.692.136.86 0 0-.136 0-.17-.134-.034-.135 0 .86.425.675-.204.506.238.945 0 1.35.526.236-.238.861.51.928-.765 0-.595.878-.222 1.182-.237-.101-.237.287-.56.169 0 .354.17.692.56.607-.9.692.764 1.317-.39 1.688.386.974.687 1.98.9 3.004-.764 0-.102-1.063-.9-1.012.34.911 1.002 1.418.849 2.329-.102.236-.34-.118-.475-.203.339.912 0 1.773.407 2.566 0 0-.153 0-.204-.169 0 .169-.119.371.238.355l-.102-.152c.51-.27 1.07.607 1.341.624-1.001-.253-.237.81-1.51.405a.49.49 0 00.475.203c0 .152-.204.219-.476 0 .204.557.578.354.578.861-.17 0-.238-.102-.425-.152.323.27.662.523.526.962-.102 0-.22 0-.237-.102.085.743.917 1.266.61 2.093-.73-.219-.237.287-.865.338l.204.439.305-.186c0 .405.459.726.272 1.063l-.272-.27.136.726.238-.422c.322.388.798 0 .628.456 0-.101 0 .388-.373.608.203.185.424.371.271.658-.153.287-.696 0-.832 0 .544.169.17.911.747 1.131a1.277 1.277 0 00-.543 0l.441.151c-.135.186-.203.22-.475.186 0 .557.798-.186.476.473 0 0-.102 0-.17-.135-.17.658.305 1.249.102 1.839-.629.186-.17-.506-.697-.303.136.86.798 1.687.68 2.582v-.152c.9.101-.442.625 0 1.03 0-.102-.51-.119-.408 0-.136.557.255 1.147.56 2.008l-.237-.101c-.204.337-.102.878-.204 1.232.238.101.204.321.543.186-1.29 1.147.747 2.109-.322 3.122 0-.118-.204-.287-.204-.186l.238.827c.39 0 .237-.118.526-.286a.658.658 0 01.425.54c-.255-.372-.629 0-.833.185a2.91 2.91 0 01.374 0c-.696.456.781 0 .323.675h-.204c.119.22.39.422.34.659-.459.118-.221-.22-.595-.237 0 .338.883.659.442.979-.136-.152-.153-.354-.272-.489-.526.337-.39.371-.475.624l-.221.574.136-.152c1.188.405.237.861 1.018 1.418-.747-.54-.424 0-.933-.118-.136.152-.29.388-.442.321.425.27-.322.455.306.827-.17 0 0 .287-.442.236.153.354.289 0 .51 0 .577.54-.663 1.3.136 2.059.322.675.9.776 1.188 1.401-.272.219-.611-.152-.611-.152a.707.707 0 000 .911c-.153 0-.272 0-.459.102-.186.101.612.168.374.506a2.595 2.595 0 01-.662-.236c.152.304.475.59.628.894-.289.102-.441-.168-.645-.287.153.355.288.912.747 1.013l.153-.236c0 .135-.374 0-.476 0-.102 0 .153-.439.323-.456l.102.219c.968-.253-.17-.894-.12-1.35l.714.186-.611-.456c.187-.101.577-.185.696 0 .34-.337-.255-.287.119-.574h.119l-.204-.303c.136 0 .492 0 .39.135.39-.574-.543-.895 0-1.131-.254-.777-.51 0-1.137-.642l1.273-.422h-.526a.235.235 0 01.174-.213.229.229 0 01.097-.006c-.373-.287-.237 0-.577-.101.476-.405-.237-1.081.577-1.182-.39-.135-.288.372-.577 0 .883-.135-.153-.472.238-.844.458.102.238.439.628.085-.78-.203.153-.709 0-.996-.611 0-.272-.658-.492-1.148.203 0 .322-.962.526-1.434h.102c-.611-.085-.51-.574-.645-.912a.802.802 0 01.696.253v-.337a.565.565 0 01-.39-.388h.475c0-.439-.578-.861-.272-1.435-.441 0-1.205.472-1.511-.118h.747c.102 0-.204-.169-.102-.27l.39.219c.17-.253-.339-.118-.305-.337.34 0 .238-.152.51-.135.271.016-.136.185 0 .27a.906.906 0 01.492-.625c-.187 0-.442 0-.493-.152 0-.439.39-.169.56-.422-.237-.101 0-.388-.492-.388 0-.135.221-.152.357-.219-.22-.22 0-1.064-.611-.794-.527-.742.237-1.569 0-2.295h.153c-.187-.439-.136-.996-.493-1.3 0-.135.289-.32.492-.27-.135-.32-.322-.354 0-.861.29.338.255-.118.221.355.136-.456.39-.557 0-1.013.425.152.527-.354.39-.557l-.288.321a1.675 1.675 0 010-.658l.577.101c.663-.911-1.205-1.587 0-2.312-.407-.22-.271.506-.747.303 0-.422.866-.86.866-.995.306-.574-.832-.507-.628-1.114-.204 0-.747.168-.934-.27-.187-.439.832-.524 1.002-.27a.115.115 0 01-.02.106.115.115 0 01-.099.045c0 .119.17.304.374.135h-.187c.187-.219.153-.776.492-.658-.203-.304-.34-.118-.441.102.288-.524 0-.828.186-1.368-.118.085-.356.169-.356.085.238-.81-.39-.355-.492-.895.305-.304.747.102.475-.439.204-.337.526-.084.696 0-.407-.489.238-.945.306-1.232l.17.253a.785.785 0 01-.12-.405l-.39.152c0-.152 0-.287.238-.287-.272-.152-.68.135-1.036-.168.187-.203-.238-.625.289-.709-.17.658.543-.085.645.472a.386.386 0 010-.388h.136c.458-.624-.611-.27-.611-.911.305 0 .56-.152.492-.253 0 .253-.492.135-.73-.102.22-.422-.187-.439-.17-.658l-.102.253c-.305 0-.272-.287-.373-.574.237 0 .17.253.271.152-.526-.304.544-.726.17-1.164.204-.22.56 0 .696-.22-.407-.49.408-.54 0-1.063-.407.152-.305.186-.713-.169l.306.844-.595-.54c0 .27.272.54.204.709-.34-.253-.238-.236-.577-.102.611-.37-.357-.692 0-1.113h1.002c.441-.625-.544-1.08-.306-1.89l-.17.27c-.39-.102 0-.507-.237-.76.244 0 .48-.09.662-.253-.238 0 0-.591-.662-.642l.441-.371c.17-.658-.968-.726-.883-1.35.374.185.611-.102.883.303 0-.202 0-.388-.187-.388.204-.135-.458-.574-.153-.76-.152 0-.492-.1-.475-.337a.272.272 0 01.17 0c-.17 0-.238-.371-.611-.152 1.035-.675-.102-1.789.78-2.363a7.62 7.62 0 01-.288-1.4h.136c.306-.574-.968-.321-.628-.98.526-.337.288.338.492.136 1.104-.119-.17-.777.458-1.233v.102c.374-.338-.424-.794-.356-1.334h.153a2.814 2.814 0 01-.934-1.586c.441.152.238.236.662.135 0-.236-.696 0-.832-.388.238-.152.441-.49.9-.557v.438c.594-.236 0-.556 0-.793h.272c-.102-.675-.781-.658-.747-1.384l-.12.152c-.662-.371.374-.338-.135-.726l.679-.135a5.956 5.956 0 01-.815-1.367c.51.253.781.81 1.07 1.131 0-.253 0-.878-.39-.996 0 .102.22.22.118.32a1.391 1.391 0 01-.798-1.231c1.307 0 .306-1.35 1.29-1.688-.492-.911.17-1.823 0-2.886-1.001.405 0-.32-1.07-.22v-.37l.612-.76c.289-.186.238.219.458.202 0-.557.442-.236.714-.608-.374.085-.544-.168-.408-.489l-.475.439c-.56-.743.866-.675.288-1.418l.34.236c-.204-.388 0-1.451-.866-1.823.119 0 .39-.168.475 0 .102-.928-.933-2.059-.441-2.801h.255c0-.169-.476-.304-.238-.523.238-.22.255 0 .272 0 .016 0-.459-.456-.306-.693l.289.203c.305-.928-.73-1.4-.917-2.16.747 0 .968-.743 1.07-1.097h.118c0-1.064-.662-1.79-.985-2.768.798-.625.29-2.076.73-3.072-.135.152-.594 0-.662-.186-.068-.186-.543-.624.153-.608.662-.185.476-.658.493-1.03h-.9c1.273-.995-.544-2.514.61-3.07-.22-.237-.237-.524-.458-.76h.476c.12-.59.12-1.2 0-1.79l.34.17c0-.456-1.393-.54-1.444-.963l.73-.135c0-.793.578-1.603-.102-2.363.12 0 .323 0 .357.152 0-.371.441-1.451-.526-1.3.628 0 0-.81-.255-1.232h.475c-.61-.354-.78-.354-.967-.86 0-.119.39-.119.271 0 .238-.405-.458-.304-.22-.777l.305.169c0-.405-.136-.371-.492-.59-.357-.22.102-.777.526-.845-.255 0-.611-.27-.492-.506a.324.324 0 01.305 0c.306-.692-.577-.996-.119-1.485a.392.392 0 00.29-.085c.04.314.04.632 0 .946.424 0 .492-.456 1.103-.119-.34-.337-1.07-.928-.866-1.35a.324.324 0 01.153 0 .222.222 0 00-.017.034.79.79 0 00.119-.354c.373 0 .186-.507.203-.726-.475 0-.407-.27-.798 0l.085.185c.085.186 0 0 0 .085v.54c-.237-.169-.458-.338-.187-.59a8.374 8.374 0 01-.78-.288c.662-.304 1.001-.894 1.409-.979-.289-.658-.221-1.57-1.121-1.958-.119-.185.255-.236.39-.303.136-.068 0 .236.221.287-.254-.372-.119-1.114-.747-1.182.272-.49.578.253.459-.405l.203.084c.968-1.316-1.698-2.059-.407-3.527a.339.339 0 01-.22.185c.526-1.687-.612-3.375.254-5.063.17-.473-.238-.506-.543-.776l.509-.119-.594-.455c-.459-.675 1.222-1.198.39-2.042l-.34.118c0-.304-.237-.962.17-.929 0 0-.373-.084-.186-.219h.271l-.492-.743c.187-.59 1.07 0 1.104-.793-.102-.304-.798-.878-.968-.76a.456.456 0 01-.442.355l-.136-.287c-.798 0-1.613-.236-2.139.49l.492.472-.39.169v-.405c-.34.236 0 .388.204.54a.715.715 0 00-.425.22l.764.472c-.305 0-.611-.203-.78.135.356.22.695-.236.933.135-.356.236-.645.186-.34.456a.428.428 0 01-.424-.119c.255.237.119.659.543.777-.441.253.136.827-.61.827.169 0 .593.422.627.641-.9-.388 0 .861-1.002.777.816.287.391 1.097.85 1.688 0 0-.187-.085-.153-.136 0 .304-.306.406-.442.608.662 0 .832.507 1.24.743-.629.405-.781-.203-1.393 0 .527 0 .544.641.985.506-.39.287-.187.253-.73.405.832 0 .153.27.662.49-.39.438-.764.135-.51.59-.169.152-.475-.253-.475-.253zm1.698 10.87zm0 .928c.01-.135.01-.27 0-.405.153 0 .323 0 .323.084 0 .085-.153.17-.289.321h-.034zm3.26-2.025c0 .152 0 .202-.118.22a.942.942 0 000-.254l.118.034z" fill="#4C8DF6"/><path d="M55.708 36.237l-.102.085h.136l-.034-.085zm-3.243 14.938h.119l-.102-.085-.017.084zm2.988 73.251h-.136a.345.345 0 00.136 0zm-.068 2.16l-.153.321a1.02 1.02 0 00.153-.321zm-1.373-24.943s-.09-.107 0 0zm1.288 7.913a1.5 1.5 0 01-.22-.253c-.034.135-.051.253.22.253zm-.22-.624a.3.3 0 000 .371.552.552 0 000-.371zm.135 26.718s.057.019 0 0zm.17.27l-.119-.186s-.017.152.12.186zm-.135-3.258c0 .152-.357.405-.238.625h.135c-.271-.068.408-.473.102-.625zm2.071-2.869l-.119.574c.17-.101.425-.237.476 0 .526-.709-.408.169-.357-.574zm.22-1.755c.102.303.272 0 .374 0-.187-.186-.187-.237-.373 0zm-.288-12.659h.475c-.102-.219-.203.017-.475 0zm-2.309-2.38l-.255.236.39.102-.135-.338zm3.073-1.502l.05.101-.17-.388.12.287zm-.662-21.267h-.543c.101.237.713.27.543 0zm-.765-9.215c.273-.101.425-.371.17-.523-.033.253-.237.523-.17.523zm.222-27.511l.186.185-.17-.337-.017.152zm0-39.917a.27.27 0 00.118.49l.442-.423-.56-.067zm1.68 1.857c.476-.085 1.104-.27 1.121-.844-.611.287-.594 0-1.256.438-.34-.084-.459-.421-.323-.573-.17 0-.458-.321-.764 0a1.263 1.263 0 001.41.726c.067.1-.12.185-.188.252zM74.537 41.84v-.219a.47.47 0 000 .22zm1.24 19.748c0-.152 0-.22-.119-.22s.068.254.119.22zm-.679 3.359v-.186s-.034.136 0 .186zm-.56-23.107v.558c.17 0 0-.304 0-.557zm-11.41-25.13a.766.766 0 00-.34 0l.272.117.068-.118zm8.761 16.894v-.151h-.255l.255.151zm-2.785-5.907c0 .135.492 0 .696-.101a.581.581 0 01-.441-.118c-.095.061-.18.135-.255.219zm4.058 10.448l-.153.1a.306.306 0 00.153-.1zM57.49 16.017h-.101v.27l.102-.27zm16.64 55.04c-.017-.169-.017-.169 0 0zm-27.217 30.752c.204.709-1.138-.219-.713.743.05-.203 1.12-.051.713-.743zM63.23 16.878l.237.186a.712.712 0 00-.237-.186zm9.22 68.205a.51.51 0 00.237-.102.409.409 0 00-.238.102zm2.257-10.347l-.101.254a.978.978 0 00.101-.254zM71.855 90.5c0 .136-.153.153-.153.355a.285.285 0 01.153-.354zm-1.935 5.267h.135a.721.721 0 010-.186l-.136.186zM33.618 26.313c.175-.026.352-.026.526 0-.34-.101.153-.911-.526 0z" fill="#4C8DF6"/><path d="M62.975 16.878a.256.256 0 01.255 0l-.17-.101s-.102.101-.085.101zM75.386 91.8l-.34.895c.135-.29.249-.589.34-.895zM28.983 68.39l-.119-.22a.253.253 0 00.12.22zM74.13 95.429a1.51 1.51 0 00-.51.388v.152l.51-.54z" fill="#4C8DF6"/><path d="M38.203 20.963c-.781.573 0 .76 0 1.164-.781.827-.696 0-1.206 0-.458.591-.475 1.401-.883 1.688-.101 0-.203 0-.203-.186-.187.878-1.596 1.688-1.698 2.735h-.187c.286.076.548.22.764.422-.255.337-.153.827-.577.708.17-.185 0-.303 0-.472l-.12.456c-.73 0 .188-.591-.152-.861-.424.793-.475 1.924-.985 2.38-.577-.17.662-1.401-.254-.929l.747-.76c-1.189.17.407-.506-.798-.421-.917 1.13-.646 1.468-1.393 2.667.153.422.476.118.629.523-.255 1.94-1.97.911-1.698 2.548.271.456.934.777.34 1.688l-.425-.557c-.357 1.266.747.912.085 2.144-.221-.27 0-1.03-.153-.844-.68.776.255.675.153 1.316h-.595c-.101 1.384.187 2.887.204 4.321-.17 0-.34-.354-.526 0a17.676 17.676 0 01-.73 5.587l.458.692c0 .152-.238.27-.322.101-.221.675.305 0 .492.388.187.389-.323.507-.458.254a8.107 8.107 0 01.152 4.76l-.136-.254c-.237.979.985 1.148.51 2.042v-.169c-.289 2.144.187 4.507-.577 6.161.73.304-.255 2.143.747 2.262-.459 1.249-.68.894-.9 2.65 0 .472.662.675.798 1.232h-.527l.595.742-.595.456.17.523c0-.202.187-.472.34-.439a2.232 2.232 0 01-.425 2.178c.204.641.39 1.3.629 1.94-.204 0-.323-.337-.476-.59.645.996-.543.253 0 1.181.102-.152.323 0 .442 0a4.196 4.196 0 00.136 2.43l-.374-.1a42.967 42.967 0 001.053 4.742c0-.624.662-.624.832-.152l-.493.304c.408.236.085-.54.645 0 0 .625-.509.557-.78.236l.373.71h-.492c.407.236-.238 1.434.441 1.687l-.153.085c.493 1.687.883 2.312 1.325 3.628.458-.135.543.405 1.052.675.089 1.156.346 2.294.764 3.376.578.692.476 0 .9.304-.373.236.153 1.333-.39.878a12.25 12.25 0 002.088 3.139c0-.253 0-.49.204-.456.203.034.203.743 0 .81a8.051 8.051 0 011.545 3.038 3.995 3.995 0 001.698 2.6h-.102c.51.354.985.725 1.494 1.046.492.658-.56-.135-.373.49 1.8.928 2.037 2.261 3.565 2.936 0 .878.968 1.57 1.987 2.144 1.013.421 1.957.99 2.801 1.688v-.304c.526-.085.425.371.696.574 0-.22-.34-.439 0-.473a38.064 38.064 0 005.671 1.536c2.066.361 4.185.274 6.214-.253 1.478-.506.221-1.688 2.14-1.874l-.204.743c2.326-1.924 4.992-3.544 6.163-6.127 0 .203.153.321 0 .524.68-.22 1.24-1.688.951-1.925.255-.337.306 0 .594 0 .29 0 .29-1.485.765-1.552.085 0 0 .202 0 .303 0-.421.849-1.519.271-1.4.645-.81.612-1.806 1.155-2.43-.289-.66.866-1.47.204-1.891.696.337 1.171-1.418.967-2.11.17.253.39-.456.629-.118.203-.692.22-1.35-.187-1.334 1.24-1.03-.102-2.683 1.205-3.122 0-2.093 0-3.983.187-5.823.764.203-.255 2.008.543 2.076a16.324 16.324 0 010-4.54c.17-.422.289.304.408.472.179-1.63.27-3.27.272-4.911 0 0 .118.186.17.354 0-.303.186-.692-.17-.692v.304c-.56.422-.917-1.3-1.189-1.384.95.608.39-1.485 1.58-.557 0-.202-.205-.472-.442-.439.102-.287.237-.371.475 0-.085-1.097-.492-.742-.407-1.688.17 0 .22.22.407.338a2.406 2.406 0 01-.39-1.873c.101 0 .237 0 .22.219 0-1.435-.73-2.464-.373-4.017.73.49.271-.523.9-.59l-.17-.845-.306.321c0-.726-.441-1.384-.22-2.025l.254.557-.085-1.62-.254.776c-.323-.743-.798.084-.612-.895 0 .203 0-.726.374-1.114a1.532 1.532 0 01-.272-1.282c.187-.136.696.1.832 0-.543-.355-.204-1.688-.78-2.16a.51.51 0 00.542.084l-.441-.27c.119-.355.187-.406.458-.355 0-1.03-.798.354-.509-.878 0 .102.102 0 .187.237.119-1.232-.408-2.33-.272-3.46.611-.389.22.962.73.54a42.577 42.577 0 01-1.035-4.844v.287c-.917-.102.322-1.199-.204-1.941.085.185.526.185.424.151a11.997 11.997 0 00-1.07-3.713l.272.152a16.306 16.306 0 00-.22-2.363c-.272-.152-.323-.54-.595-.253.832-2.38-1.698-3.73-1.171-5.823.085.22.373.456.322.287-.237-.49-.475-.996-.73-1.468-.322.253-.153.287-.322.692a1.555 1.555 0 01-.747-.844c.475.59.594-.22.679-.59-.102.084-.255 0-.357.1.34-1.03-.78.152-.78-1.063h.22c-.272-.354-.68-.608-.798-1.046.322-.355.373.32.713.202-.272-.59-1.307-.793-1.155-1.519.238.186.408.557.646.743a1.545 1.545 0 000-1.283l-.459-1.114v.32c-1.426-.168-1.019-1.366-2.258-1.89 1.171.507.458 0 .934-.27 0-.32-.136-.776 0-.742-.645-.203-.22-.945-1.172-1.199.12-.118-.322-.455 0-.607-.526-.473-.136.303-.34.371-1.052-.49-1.018-2.397-2.665-2.987-1.138-.726-1.698-.49-2.768-1.047-.135-.456.646-.236.646-.236a2.357 2.357 0 00-1.359-1.131c.187 0 .153-.203.12-.473-.425-.27-.63.287-1.02-.287.309-.14.647-.203.985-.185-.577-.22-1.222-.32-1.834-.506 0-.321.56-.17.85-.203-.663-.27-1.699-.726-2.106-.422l.306.355c-.221-.102 0-.406.288-.389a.563.563 0 01.62.463.554.554 0 01-.025.28l-.425-.135c-.136 1.03 1.528.776 2.207 1.35l-.713.355h1.053c0 .27-.119.64-.51.472.255.642.595.118.73.76 0 0 0 .1-.084 0l.577.22c-.187 0-.255.438-.458.134.509.962 1.596.743 1.51 1.401 1.172.878.46-.27 1.699.118l-.459 1.401.493-.22c0 .119.254.372 0 .456.628.22.118-.22.577-.169.102.844 1.426 1.452.849 2.076.475 0-.17-.742.51-.27-.595.676.644.642.678 1.435-.492 0-.645-.574-.61.186.848 0 .542 1.164.916 1.57.56-.287.815.91 1.426 1.687-.204 0 .442 1.688.56 2.6h-.135c.628 0 .866.793 1.205 1.367a.7.7 0 01-.815-.22l.204.557a1.056 1.056 0 01.611.557h-.492c.271.743 1.035 1.367 1.018 2.464.442 0 .934-1.147 1.529-.135-.221.102-.595.253-.764 0 0 0 .271.27.237.49l-.51-.338c0 .507.391.152.46.54-.323.085-.154.338-.425.355-.272.017 0-.355-.119-.473a1.82 1.82 0 01-.22 1.215.376.376 0 01.56.186c.22.793-.323.371-.39.86.27.136.152.693.644.608 0 .237-.17.321-.288.44.305.37.441 1.907.882 1.35v-.119c.748 1.283.204 2.904.595 4.237h-.17c.152.815.403 1.608.747 2.363 0 .236-.238.59-.458.506a2.036 2.036 0 01.186 1.688c-.34-.608-.237.253-.271-.625 0 .827-.323 1.03.22 1.874-.458-.27-.509.658-.356 1.03l.272-.591c.057.397.057.8 0 1.198l-.578-.169c-.577 1.688 1.342 2.954.221 4.27.407.44.255-.91.73-.54 0 .777-.849 1.604-.832 1.84-.305 1.047.832.962.628 2.076.204-.152.748-.287.934.54-.085.794-.849.945-1.019.473 0-.186 0-.287.12-.27 0-.253-.154-.574-.374-.27l.204.101c-.204.371-.204 1.435-.527 1.181.187.574.323.254.442-.168a24.885 24.885 0 00-.255 2.548c.102-.168.356-.303.34-.152-.29 1.486.373.675.407 1.688-.323.557-.713-.236-.51.793-.237.608-.543.102-.695-.151.356.945-.34 1.687-.442 2.228l-.136-.49c.041.252.041.508 0 .76l.425-.254c-.085.287-.102.524-.272.507.238.32.68-.17 1.002.438-.22.355.119 1.182-.425 1.266.289-1.181-.543.085-.543-.928.073.23.073.478 0 .709 0 0-.102 0-.136-.118-.56 1.08.56.574.459 1.688-.289-.186-.612.219-.56.405 0-.473.526-.17.712.287-.322.725 0 .843 0 1.232l.153-.44c.272.187.204.558.238 1.098-.238 0-.102-.49-.238-.32.459.657-.696 1.265-.441 2.126-.255.354-.578 0-.747.27.254.962-.56.928-.374 1.941.442-.22.357-.287.645.439v-1.688l.425 1.097c.085-.49-.102-1.046 0-1.333.271.54.17.472.543.287-.696.573.17 1.35-.373 2.059l-.985-.186c-.611 1.047.187 2.093-.34 3.51l.255-.438c.356.27-.102.911 0 1.418-.323-.119-.492.152-.747.32.255 0-.238 1.064.39 1.317l-.56.557c-.441 1.114.628 1.536.22 2.633-.254-.422-.627 0-.678-.793-.102.37-.255.675 0 .742-.238.169.17 1.131-.255 1.384.102.186.424.338.272.743a.153.153 0 01-.153 0c.153 0 0 .709.475.472-1.358.777-1.035 3.157-2.309 3.73-.251.819-.557 1.62-.917 2.397 0-.101-.153-.084 0-.202-.78.725.51 1.03-.407 1.873-.781.203.102-.675-.289-.472-1.002-.456-.645 1.249-1.698 1.468v-.169c-.645.203-.543 1.367-1.29 1.992 0 0 0-.101-.119-.118a2.271 2.271 0 01-.543 1.316c-.291.438-.64.835-1.036 1.182 0-.524.22-.439-.17-.692-.306.287.51.506-.136 1.08-.34 0-1.001 0-1.273-.304.22-.135.441-.236.645-.388-.628-.321-.832.472-1.24.574v-.254c-.359.204-.671.48-.916.811a1.574 1.574 0 01-1.104.641l.187.169c-.56.793-.645-.186-1.257.388l-.39-.456a6.401 6.401 0 01-2.394.861 20.586 20.586 0 011.935-1.046c-.424 0-1.46.118-1.697.438.17 0 .407-.219.577-.118a2.447 2.447 0 01-2.258.574c.186-.641-.39-.759-1.019-1.013-.628-.253-1.392-.506-1.494-1.08-1.698-.152-2.7-1.519-4.194-2.548 0 1.198-.458-.287-1.002.574-.39-.22-.51-.355-.492-.422a19.3 19.3 0 01-.611-1.351c-.187-.455.458.118.594-.084-.645-.709 0-.591-.255-1.215-.17.354-.611.152-.883-.321l.204.861c-1.358-.557-.187-1.401-1.477-2.026l.526.102c-.611-.372-1.562-1.924-2.632-2.026 0-.169.187-.472.408-.253-.815-1.451-2.819-2.684-2.954-4.135h.288c-.22-.236-.679-.27-.645-.726.102 0 .289 0 .22-.135-.067-.135-.797-.54-.814-.996l.39.203c-.34-1.688-1.698-1.992-2.36-3.274.696-.27.476-1.57.374-2.212h.102a11.225 11.225 0 00-1.07-2.362 13.475 13.475 0 01-1.24-2.245 5.035 5.035 0 000-2.582 16.151 16.151 0 01-.271-3.039c-.085.287-.594 0-.713-.253s-.68-1.097 0-1.13v.151c.628-.405.34-1.232.255-1.907h-.9c1.086-1.89-.934-4.624.203-5.688-.254-.422-.271-.945-.526-1.367h.475a15.2 15.2 0 000-3.274l.357.287c0-.828-1.426-1.013-1.443-1.806l.713-.237c0-1.468.611-2.937 0-4.388.102 0 .306 0 .34.304 0-.675.526-2.65-.459-2.43.645 0 .119-1.503-.136-2.313l.476.152c-.578-.709-.747-.726-.866-1.688 0-.22.373-.185.237.101.289-.725-.407-.59-.118-1.485l.288.355c0-.76-.085-.71-.424-1.148-.34-.439.186-1.435.628-1.52a.88.88 0 01-.425-.995c.153 0 .255.118.29.203.407-1.266-.442-1.941.084-2.785a.392.392 0 00.289-.135 15.358 15.358 0 01-.17 1.688c.424 0 .543-.794 1.12-.102-.288-.675-.95-1.856-.679-2.616a.255.255 0 01.153-.101v.084a.655.655 0 000-.506 2.2 2.2 0 00.187-.625c.356 0 .272-.894.322-1.282-.475 0-.34-.524-.78-.085v1.519a.859.859 0 01-.085-1.097 7.648 7.648 0 01-.714-.641c.714-.49 1.223-1.452 1.698-1.52-.085-1.231.374-2.683-.237-3.662 0-.371.373-.287.56-.354v.557c0-.726.628-1.823.153-2.245.628-.624.305.675.73-.405l.102.236a4.582 4.582 0 001.409-2.633c.115-.51.341-.987.662-1.4a2.599 2.599 0 011.494-.98c-.187 0-.271.085-.373 0 1.256-.793 2.394-1.687 3.65-2.666a9.417 9.417 0 014.143-1.857c.832-.169.747-.59 1.104-1.063l.373.405.594-.878c1.036-.86 2.48.405 3.719-.86l-.306-.254c.56-.135 1.698-.742 1.698-.337 0-.085 0-.405.34-.287l.102.236 1.222-.827c1.12-.118.136 1.063 1.698.675.543-.253 1.443-1.198 1.171-1.3-.271-.1-.628 0-.73-.253l.493-.287c-.102-.776.102-1.688-1.358-1.84l-.782.71-.407-.287.764-.237c-.526-.22-.73.17-.968.456a.712.712 0 00-.51-.287l-.678.979c-.204-.27.22-.709-.425-.692-.322.456.594.54 0 .962-.543-.203-.492-.523-.917 0-.135-.169 0-.338.12-.473-.391.355-1.19.473-1.291.946-.594-.27-1.494.624-1.698 0a2.826 2.826 0 01-1.002 1.012c.442-1.13-1.579.54-1.698-.422-.254.962-1.901 1.182-2.682 2.06 0-.085.084-.254.186-.27a3.194 3.194 0 01-1.273.118c.238.624-.543 1.181-.764 1.806-.968-.186 0-.895-.492-1.317.288.439-.883 1.114-.425 1.367-.713 0-.526.101-1.07-.202.357.742-.39.405-.492 1.097-.934.118-.645-.523-1.24.236-.696-.034-.186-.776-.186-.776zm-8.337 21.502v-.742c0-.27.34 0 .323.202-.051-.067-.17.27-.323.574v-.034zm3.532-3.375c0 .27 0 .354-.153.371-.153.017 0-.27 0-.456a.677.677 0 01.153.118v-.033z" fill="#4C8DF6"/><path d="M32.82 38.6v-.118l-.119.152.136.101-.017-.135zm-4.21 27.85h.118l-.119-.153v.152zm45.01-34.381a.318.318 0 000-.17s.018.018 0 .17zm-1.595-3.95l-.136-.608c.024.207.07.41.136.608zm5.925 46.752v.119c.153.303.051.1 0-.119zM77.594 59.8c.087.15.161.308.22.472.034-.253.051-.473-.22-.473zm-2.157 31.899h-.017l-.034.101.051-.101zm2.377-30.719c.085-.228.085-.48 0-.708-.05.233-.05.475 0 .709zM60.666 15.022l-.136-.102.136.102zm-.187-.034h-.187s.136.034.187 0zm-.577-.118h.39c-.119.017-.254-.085-.39 0zm4.245 2.869l.152-.101a.204.204 0 00-.153.1zm1.035.827c-.204-.253-.356-.793-.764-1.013H64.3c.323.017.476 1.013.883 1.013zm2.02 5.367c-.152-.304-.356-.59-.526-.894 0 .253-.085.59-.407.253.373 1.35.152-.473.933.641zm1.597 2.785c-.357-.422-.221.152-.323.186.323.202.408.253.323-.186zM75.2 48.947h-.493c.153.388.22 0 .492 0zm2.597 4.32l.238-.438-.408-.186.17.624zm-2.954 2.836l-.068-.186.187.71-.119-.524zm-4.907 38.6h.543c.017-.185-.526-.506-.543 0zM59.63 106.13a.588.588 0 00-.697-.151.58.58 0 00-.203.151c.34-.017.696.101.9 0zM33.262 70.652l.203.32-.203-.624v.304zM96.61 61.96c0-.152 0-.473-.119-.405v.557l.12-.152zm-.934-1.013c-.22.383-.292.833-.204 1.266.136-.54.187-.32.34-.962.136 0 .238.169.22.371 0-.135.204.118.272-.22.068-.337-.407-.455-.628-.084a.907.907 0 010-.371zM74.3 60.238a.101.101 0 00.085-.118s-.102.068-.085.118zm-1.41-.572s.02-.037 0 0zm9.594.674l-.221-.17c-.017.186.102.136.22.17zm11.41 1.991a.337.337 0 00.101-.152h-.101v.152zm-7.828-2.515a2.17 2.17 0 000-.22v.22zm2.768-.152s0 .456-.102.658a.505.505 0 01.136-.32 3.214 3.214 0 00-.034-.338zm-4.737.085a1.485 1.485 0 000-.17.503.503 0 000 .17zM7.03 66.415v-.084s-.035.084 0 .084zm-3.345-2.16l.05-.034-.016-.253-.034.287zm43.211-3.966c.272.405-.407.557 0 1.012-.034-.185.34-.76 0-1.012zm17.624-.692a.59.59 0 000 .202.688.688 0 000-.202zm-2.326.743s-.085-.102-.17 0c0 0 .102-.068.17 0zm-47.999 5.485a2.035 2.035 0 01-.136-.422c.05.304-.289.422.136.422z" fill="#4C8DF6"/><path d="M93.876 62.06a.253.253 0 010 .203.47.47 0 000-.202zM62.21 64.137h-.373c.124.025.25.025.374 0zm-31.068.726h-.087a.087.087 0 00.087 0zm29.591-.726a.928.928 0 00-.22-.32v.117l.22.203z" fill="#4C8DF6"/><path d="M11.647 66.618c.357 0 .136-.608.187-.979.425-.203.22.456.39.76.255-.17.425-.76.629-.743.204.017 0 .135 0 .27.255-.523.832 0 1.137-.709v.152a4.329 4.329 0 01-.101-.86c.152 0 .271-.406.356 0-.102 0-.102.151-.136.286l.153-.186c.187.574-.204.22-.187.642.323-.203.68-.709.934-.557 0 .574-.577.22-.22.709l-.391-.186c.34.878-.238 0 .085.895.51.135.56-.321 1.07-.186.101-.32 0-.473 0-.793.696-.608.645 1.418 1.137.624.119-.388.136-1.114.543-.76l-.102.659c.493 0 .238-.945.782-.54 0 .253-.39.236-.306.304.357.506.22-.372.475-.389v.574c.527-.118 1.087-.557 1.698-.692 0 .17-.119.355 0 .523a2.922 2.922 0 012.292.287l.255-.506s.119.22 0 .32c.289.17 0-.32.136-.522.136-.203.22.27.119.421.475-.438 1.341-.962 1.884-.455l-.085.152c.408.169.408-1.047.799-.608v.101c.883.17 1.816-.337 2.512.389.102-.726.883.27.883-.726.527.472.39.658 1.104.962.187 0 .255-.642.475-.76v.524l.289-.557.187.607.22-.135a.457.457 0 01-.186-.388c.322-.253.832.338.849.59l.78-.472c0 .203-.135.287-.237.422.408-.54.102.54.475 0v-.422a.8.8 0 00.985.135v.371c.595 0 1.24-.236 1.902-.253-.238-.152-.22-.776 0-.844l.102.54c.102-.354-.221-.202 0-.624.254 0 .203.608 0 .793l.288-.202v.472c.12-.354.56.524.714 0v.17a10.235 10.235 0 001.494-.288c0-.472.22-.371.356-.76.408.136.866.49 1.342.423.475-.068 0-.405.22-.692 0 .438.527.371.289.692a3.647 3.647 0 001.443-.49c-.085-.185-.17-.253-.136-.405.034-.152.306.169.306.371.78-.675 1.936 1.182 2.547.254l.662-.507c.305 0-.17.338 0 .591.696-.743 1.154 0 1.698-.439.526 1.25 1.698-.152 2.309.641v-.303c.153-.304.204.169.322.22 0-.22-.186-.254-.084-.423 1.358-.422 2.852.338 4.261.557.527 0 .238-1.57.917-.877l-.17.556c1.02-.691 2.14 0 3.124-.64 0 .117 0 .286-.135.286.22.405.78 0 .78-.337.154 0 0 .303.154.472.152.169.526-.54.645-.135 0 0 0 .118-.085.152s.645 0 .492-.422c.39.202.73-.236 1.053 0 .17-.54.662.22.696-.523 0 .776.68.59.917.236 0 .236.22.22.136.557.271 0 .526-.169.458-.574.544.912 1.002-.76 1.325.405a10.306 10.306 0 012.292-.945c0 .76-.815.101-.764.895.696-.321 1.07-.996 1.698-.827.186 0 0 .32-.136.455.679-.337 1.341 0 1.952-.405 0 0 0 .152-.119.22-.118.067.29.1.255-.254l-.119.102c-.204-.49.459-1.064.476-1.334-.17 1.013.628.237.322 1.502a.522.522 0 00.153-.472c.119 0 .17.203 0 .472.442-.202.272-.556.662-.573a2.665 2.665 0 01-.102.438c.187-.337.374-.658.713-.54v.237c.578 0 .951-.895 1.596-.608-.17.743.221.236.272.878l.34-.203-.136-.304c.289 0 .543-.455.798-.27l-.204.27.543-.135-.322-.22c.305-.337 0-.81.356-.64-.084 0 .29 0 .459.37.136-.202.289-.421.51-.27a7 7 0 010 .828c.135-.523.695-.152.865-.726.003.243.067.48.187.692l.119-.422c.136.135.153.203.136.456.424 0-.153-.793.356-.456 0 0 0 .101-.102.169.51.169.951-.304 1.41-.101.152.624-.39.169-.221.692.662-.135 1.341-.794 1.986-.659h-.118c0-.894.475.44.78 0a.905.905 0 000 .405c.442.136.883-.253 1.546-.54l-.085.237c.254.185.679.101.95.185 0-.22.238-.185.136-.523.883 1.283 1.698-.742 2.394.338-.084 0-.203.202-.135.202l.645-.22c0-.387-.102-.236-.238-.54-.136-.303.255-.421.408-.421-.272.27 0 .624.152.844v-.372c.357.692 0-.793.51-.337v.22c.17-.119.322-.389.51-.338 0 .455-.17.22-.188.59.272 0 .51-.86.747-.422-.101.119-.271.136-.373.254.272.523.289.388.492.472l.442.236-.12-.135c.306-1.181.663-.236 1.088-1.012-.408.742 0 .422 0 .928.118.152.288.304.237.439.204-.405.357.32.645-.287 0 .169.221 0 .187.422.255-.135 0-.27 0-.49.39-.573.985.676 1.562-.118.51-.32.595-.877 1.07-1.164.17.253-.119.607-.119.607.272.237.459.186.713 0a.59.59 0 000 .456c.187 0 .12-.608.374-.371-.03.232-.093.46-.187.675.238-.152.458-.473.696-.625 0 .287-.136.44-.22.625.271-.135.695-.27.78-.726l-.288-.32c.102 0 0 .388 0 .472-.238.354-.34-.152-.357-.32l.17-.119c-.204-.962-.696.169-1.036.118l.136-.692-.356.591c0-.186-.136-.574 0-.692-.255-.337-.204.253-.425-.118a.118.118 0 010-.135l-.238.22c0-.153 0-.49.102-.389-.441-.405-.696.523-.866 0-.594.236 0 .506-.492 1.114l-.323-1.249v.506s-.186 0-.17-.253c-.22.355 0 .22 0 .557-.305-.472-.814.237-.9-.59-.101.405.29.303 0 .573-.118-.877-.373.17-.644-.236 0-.456.34-.22 0-.624-.153.776-.544-.152-.765 0 0 .607-.492.27-.883.472 0-.202-.73-.32-1.103-.523v-.118c0 .624-.425.523-.696.658a.941.941 0 01.186-.692h-.254a.505.505 0 01-.289.388v-.472c-.34 0-.679.573-1.12.27 0 .422.373 1.198 0 1.485v-.726c0-.101-.136.203-.221.102l.17-.406c-.204-.168 0 .338-.255.304 0-.337-.119-.236-.102-.506 0 0 .136.135.204 0a.798.798 0 01-.476-.506c0 .185 0 .455-.118.489-.12.034-.136-.388-.34-.557 0 .236-.289 0-.289.49-.101 0-.118-.22-.17-.355-.17.22-.814.084-.594.608-.56.506-1.205-.254-1.698 0v-.152c-.34.185-.764.118-.984.49-.102 0-.255-.305-.221-.507-.255.135-.272.32-.662 0 .254-.304 0-.27.271-.236-.34-.136-.424-.389-.78 0 .118-.422-.272-.524-.425-.389l.238.287a.82.82 0 01-.493 0v-.557c-.696-.658-1.205 1.199-1.698 0-.17.405.39.27.238.726-.323 0-.68-.86-.781-.86-.441-.305-.373.826-.849.624 0 .202.136.742-.187.928-.322.186-.424-.827-.22-.996.203-.169.101 0 .101.118 0 .119.238-.168.102-.37v.202c-.152-.203-.594-.17-.51-.507-.22.203 0 .338.086.44-.408-.288-.628 0-1.053-.187 0 .119.136.338 0 .338-.628-.22-.255.388-.679.49-.238-.287 0-.726-.34-.456-.271-.203 0-.523 0-.692-.356.388-.713-.236-.933-.304l.203-.169a.425.425 0 01-.322.101l.119.406c-.12 0-.221 0-.221-.237-.119.27.119.658-.119 1.03-.17-.203-.475.236-.543-.304.509.169 0-.523.356-.624a.255.255 0 01-.305 0 .151.151 0 010-.152c-.493-.456-.204.607-.697.624 0-.304-.135-.574-.22-.506.204 0 .119.49 0 .726-.323-.22-.34.185-.51.168l.187.102c0 .303-.204.27-.424.37 0-.235.186-.168.102-.27-.221.54-.56-.522-.883-.168-.17-.186 0-.557-.187-.692-.374.405-.425-.388-.815 0 .136.405.153.304-.119.709l.645-.304-.407.59c.204 0 .407-.252.543-.202-.204.338-.187.237 0 .574-.306-.59-.543.371-.866 0v-.894c-.492-.422-.832.54-1.443.303l.204.17c0 .404-.39 0-.578.236a1.16 1.16 0 00-.22-.659c0 .253-.442 0-.476.659l-.288-.422c-.51-.17-.544.962-1.02.86.137-.371 0-.59.222-.86-.153 0-.306 0-.306.168-.102-.202-.425.473-.577.152 0 .152 0 .507-.255.473a.435.435 0 010-.152c0 .152-.272.236-.102.59-.526-1.029-1.375.119-1.834-.759a4.604 4.604 0 01-1.07.287v-.135c-.44-.287-.237.962-.73.641-.492-.32.238-.303.086-.506-.12-1.097-.595.169-.951-.456h.085c-.272-.371-.612.44-1.036.372a.52.52 0 000-.17 2.036 2.036 0 01-1.189.946c.102-.439.17-.236 0-.658-.186 0 0 .692-.288.827-.12-.236-.39-.422-.442-.895h.34c-.187-.59-.442 0-.611 0v-.253c-.51.101-.493.76-1.053.743v.185c-.272.676-.272-.354-.56.152l.119-.827a4.788 4.788 0 01-1.036.81c.214-.404.502-.764.849-1.063-.204 0-.68 0-.781.405.085 0 .186-.236.271-.135-.237.523-.543.794-.934.794 0-1.283-1.052-.288-1.375-1.266-.679.506-1.409-.152-2.224 0 .34.995-.238 0-.136 1.08h-.288l-.68-.625c-.153-.287.17-.236.136-.455-.407 0-.187-.44-.475-.71 0 .372-.12.54-.357.406l.34.472c-.56.574-.527-.843-1.104-.286l.187-.338c-.306.22-1.12 0-1.375.894 0-.118-.153-.405 0-.489-.73-.084-1.562.962-2.14.473v-.254c-.119 0-.203.473-.39.237-.187-.237 0-.253 0-.27 0-.017-.34.455-.527.32l.153-.337c-.73-.304-1.053.726-1.698.928a1.127 1.127 0 00-.883-1.063v-.118c-.815 0-1.358.675-2.105 1.012-.51-.793-1.596-.27-2.377-.692a.655.655 0 01-.119.659c-.187-.136-.475.54-.475-.136-.17-.658-.527-.455-.815-.472v.894c-.798-1.248-1.919.574-2.394-.573-.17.236-.39.236-.544.472v-.472a2.528 2.528 0 00-1.375 0l.119-.355c-.357 0-.374 1.401-.696 1.435l-.119-.71c-.611 0-1.256-.556-1.817.136 0-.118 0-.32.102-.355-.289 0-1.12-.422-.968.54 0-.624-.628 0-.934.27v-.472c-.237.625-.237.776-.628.962-.085 0-.085-.371 0-.253-.322-.236-.203.456-.594.22l.119-.304c-.306 0-.272.135-.425.506-.152.371-.61-.101-.679-.523 0 .27-.17.624-.373.506a.369.369 0 010-.304c-.544-.304-.747.574-1.138.135a.537.537 0 000-.27 1.9 1.9 0 01.713 0c0-.439-.356-.49-.119-1.114-.254.338-.679 1.08-1.018.895a1.541 1.541 0 010-.152h-.204a.477.477 0 00-.272-.118c0-.355-.407-.17-.577-.186 0 .473-.17.422 0 .793h.136c.136 0 0 0 0 0h.407c-.119.253-.255.456-.441.203-.085.32-.153.624-.204.776-.255-.641-.713-.979-.798-1.384-.492.304-1.206.236-1.477 1.148-.136.118-.17-.253-.238-.388-.068-.135.187 0 .22-.203-.27.236-.865.135-.899.76-.374-.27.187-.591-.323-.456v-.203c-1.052-.928-1.528 1.688-2.7.456.086.085.137.118.154.22-1.29-.49-2.547.675-3.838-.152-.356-.152-.373.236-.577.557l-.102-.507-.322.608c-.493.456-.968-1.198-1.58-.355l.102.338c-.237 0-.747.253-.73-.135 0 0 0 .355-.153.186v-.27l-.56.49c-.458-.17 0-1.064-.645-1.081-.238.118-.645.827-.543.996.102.168.254.152.271.405l-.203.152c0 .793-.12 1.688.458 2.126l.357-.506.135.371h-.305c.204.338.288 0 .407-.202.02.15.085.291.187.405l.323-.76c0 .304-.12.608.135.76.153-.355-.203-.675 0-.912.204.338.17.642.357.321a.42.42 0 010 .422c.17-.253.492-.135.577-.557.204.439.629-.152.646.59 0-.185.305-.607.475-.64-.255.91.662 0 .628.978.204-.827.832-.405 1.24-.877 0 0 0 .202-.102.152.237 0 .322.287.475.438 0-.658.357-.827.526-1.249.323.625-.135.777 0 1.385 0-.524.476-.558.34-.996a1.4 1.4 0 01.357.725c0-.827.186-.151.34-.675.356.388.135.777.475.507.441.202.203.506.203.506zm8.27-1.873h-.17.17zm.712 0h-.255v-.321l.255.287v.034zm-1.698-3.207c.102 0 .153 0 .17.101h-.187a.778.778 0 01.051-.135l-.034.034z" fill="#4C8DF6"/><path d="M18.796 62.129s0 .084.085.1v-.151l-.085.05zm11.563 3.004v-.118l-.051.1.05.018zM86.49 61.96v.118a.217.217 0 000-.118zm1.681.067l.238.169a1.074 1.074 0 00-.238-.169zm1.291.203a.827.827 0 000-.203v.203zm-20.425 1.08c-.17.118-.085.067 0 0zm6.043-1.283c-.057.082-.12.161-.186.236.102.034.187.034.187-.236zm-.474.22a.204.204 0 00.288 0s-.187-.068-.288 0zm20.714-.135l-.153.118s.119.017.153-.118zm-2.513.101c.135 0 .322.371.492.253v-.135c-.068.253-.374-.405-.492-.118zm-2.19-2.076l.424.118c0-.169-.17-.422 0-.473-.543-.54.136.406-.424.355zm-1.359-.237c.238-.1 0-.27 0-.37-.136.168-.17.202 0 .37zm-9.728.22v-.439c-.154.068.016.169 0 .439zm-1.8 2.278l.186.254.068-.389-.254.136zm-1.172-3.055l.068-.067-.289.169.221-.102zm-16.334.642l.085.523c.119-.084.119-.692-.085-.523zm-7.029.776c0-.27-.289-.422-.39-.169-.103.254.322.254.39.17zm-21.173.017l.136-.169-.255.152.12.017zM86.389 36.49c0-.135 0-.472-.119-.388v.557l.119-.168zm-.832-1.046c-.168.4-.216.84-.136 1.266.102-.54.153-.32.255-.962.118 0 .22.169.203.371 0-.152.187.102.238-.236.051-.338-.374-.439-.543 0a.923.923 0 01-.017-.439zm-18.167 0v-.135c0-.05-.018.135 0 .135zm6.944-.152l-.187-.152c0 .17.102.118.187.152zm9.763 1.638a.252.252 0 000-.152v.151zM79.7 34.414v.676c0-.203 0-.287.101-.338.102-.05 0-.203-.102-.338zm-4.025.236a.42.42 0 000-.168.503.503 0 000 .169zM10.883 45.03v-.084s-.016.085 0 .085zm-3.039-1.923l.034-.034-.017-.27-.017.304zm36.301-6.447c.272.404-.305.59.085 1.012-.085-.169.204-.76-.085-1.013zm14.84-1.452v.202a.404.404 0 000-.202zm-1.868.827s0-.101-.136 0c0 0 .068-.068.136 0zm-40.24 7.848a2.862 2.862 0 01-.153-.405c.085.405-.187.557.153.405zm67.203-7.207v.203a.47.47 0 000-.203zm-26.708 3.089h-.323a.667.667 0 00.323 0zm-1.257.118a.658.658 0 00-.22-.304v.118l.22.186z" fill="#4C8DF6"/><path d="M14.805 44.947c.306 0 0-.625 0-.996.34-.22.238.438.408.742.187-.202.289-.793.458-.793.17 0 0 .135 0 .27.17-.523.713-.118.9-.776v.135a4.32 4.32 0 01-.153-.827c.136 0 .187-.44.306 0 0 0 0 .169-.102.287l.119-.186c.204.557-.17.22-.102.658.255-.236.51-.76.73-.624.136.557-.458.27-.102.725l-.356-.168c.373.86-.22 0 .153.894.441.102.441-.354.883-.253 0-.32-.085-.456 0-.793.526-.642.679 1.367 1.018.557 0-.405 0-1.131.374-.794v.659c.424 0 .119-.945.611-.574 0 .253-.306.253-.22.32.339.473.135-.388.356-.421l.119.557c.441-.135.866-.625 1.341-.794 0 .186 0 .372.085.524a2.219 2.219 0 011.97.151l.152-.506s.136.203 0 .304c.255.152 0-.32 0-.523s.204.27.136.422c.357-.473 1.053-1.047 1.562-.574v.152c.357.152.255-1.047.628-.642v.102c.764.118 1.512-.44 2.157.236 0-.726.764.236.696-.76.475.44.373.625 1.002.878.17 0 .17-.641.34-.76v.507l.203-.574.22.608.154-.152a.59.59 0 01-.187-.372c.254-.27.747.27.78.54l.629-.523a.79.79 0 01-.17.44c.289-.575.12.54.39 0v-.423a.612.612 0 00.85.101v.287a10.27 10.27 0 001.596-.354c-.221-.135-.238-.76 0-.844l.119.54c0-.337-.187-.185 0-.624.22 0 .203.607.118.793l.221-.22c.009.158.009.316 0 .473 0-.354.51.49.577-.118v.169a12.92 12.92 0 001.257-.355c0-.472.136-.388.238-.793.356.118.764.456 1.171.371.408-.084 0-.422.136-.709 0 .422.458.338.289.676.44-.084.85-.282 1.188-.574 0-.17-.17-.237-.153-.389.017-.151.272.152.289.372.628-.71 1.698 1.08 2.19.135l.527-.523c.271 0-.12.337.101.59.544-.776.985 0 1.444-.523.509 1.232 1.375-.236 1.986.523v-.303c.119-.304.187.151.289.219 0-.236-.17-.253-.102-.422 1.12-.49 2.445.203 3.65.355.442 0 .102-1.57.713-.912l-.05.76c.815-.76 1.8-.152 2.597-.794 0 .135 0 .304-.102.304.221.388.68 0 .646-.371.136 0 0 .287.152.456.153.168.408-.558.544-.17a.202.202 0 010 .17c.102-.203.56 0 .407-.456.34.202.595-.253.866 0 .136-.54.578.185.578-.54 0 .76.61.557.78.185 0 .237.204.22.153.54.238 0 .425-.185.357-.573.51.877.798-.81 1.138.337a8.502 8.502 0 011.884-1.03c0 .76-.679.136-.594.929.577-.355.849-1.047 1.46-.912.153.102 0 .338-.102.473.56-.354 1.138 0 1.698-.473a.302.302 0 01-.085.22c.102 0 .255.084.204-.253l-.085.101c-.204-.49.323-1.08.323-1.35-.102.995.543.202.356 1.485a.623.623 0 00.102-.473c.102 0 .153.186 0 .456.357-.22.187-.574.526-.59v.438c.153-.337.29-.675.595-.557v.236c.475-.1.764-.945 1.324-.658-.102.726.187.22.272.844l.271-.202-.135-.304c.254 0 .441-.473.662-.287l-.153.27.458-.152-.288-.22c.237-.337-.085-.793.254-.64 0 0 .255 0 .425.354.102-.22.22-.44.407-.287.187.152 0 .692 0 .827 0-.54.578-.186.697-.76a1.075 1.075 0 000 .523v-.421c.118.118.152.185.152.455.357 0-.17-.793.272-.49v.186c.441.135.798-.337 1.188-.151.17.624-.322.168-.152.692.543-.152 1.103-.828 1.698-.726h-.102c0-.912.424.405.662 0v.405c.373.118.73-.27 1.273-.59v.235c.238.186.578.085.815.17 0-.237.204-.203.085-.54.815 1.265 1.341-.794 2.055.27-.085 0-.17.202-.12.202l.544-.237c0-.388-.085-.236-.22-.54-.136-.303.186-.422.322-.422-.22.27 0 .625.17.827a2.706 2.706 0 010-.37c.322.674 0-.777.424-.338v.202c.136-.118.255-.388.425-.337 0 .438-.136.219-.136.59.22 0 .39-.878.611-.439-.085.118-.22.135-.306.27.255.507.272.372.442.456l.39.22-.118-.136c.22-1.198.56-.253.882-1.046-.322.743 0 .422 0 .945.102.135.255.27.221.422.153-.422.323.304.527-.304 0 .152.203 0 .186.422.221-.151 0-.287 0-.49.323-.59.866.625 1.325-.168.424-.338.475-.894.866-1.198.153.253 0 .607 0 .607s.407.17.594 0a.69.69 0 00.102.456c.153 0 0-.607.305-.371a4.533 4.533 0 01-.135.658c.186-.152.373-.473.56-.624.085.27 0 .438-.153.624.22-.135.577-.287.628-.743l-.153-.168v.49c-.17.354-.288-.153-.305-.322l.136-.1c-.204-.963-.578.185-.866.134v-.709l-.272.608c-.085-.186-.136-.574 0-.692-.238-.32-.17.27-.373-.101a.118.118 0 010-.135l-.204.219c0-.152 0-.49.085-.388-.408-.388-.578.557-.747 0-.493.27 0 .523-.374 1.148l-.323-1.266v.523s-.17 0-.152-.253c-.187.354 0 .22 0 .557-.289-.456-.696.253-.798-.557 0 .405.254.287 0 .573-.136-.877-.306.17-.56-.219 0-.456.271-.236 0-.624-.103.776-.46-.135-.646 0 0 .607-.407.287-.73.506 0-.203-.645-.304-.95-.506v-.102c0 .625-.34.524-.561.675-.039-.237.003-.48.119-.691h-.713a.538.538 0 01-.238.388v-.473c-.272 0-.543.574-.934.287 0 .439.374 1.181 0 1.502v-.726c0-.1-.102.203-.187.102l.136-.405c-.186-.152 0 .337-.203.303 0-.32-.12-.219-.12-.489s.136.135.17 0a.78.78 0 01-.424-.49v.507c0 .05-.119-.405-.289-.557 0 .236-.254 0-.237.506-.085 0-.102-.236-.153-.371-.136.236-.68.118-.476.624-.458.524-1.035-.219-1.51 0v-.168c-.272.202-.646.151-.816.523 0 0-.22-.287-.204-.49-.203.135-.22.321-.56 0 .204-.303-.085-.253.22-.22-.305-.134-.39-.387-.661.085 0-.422-.255-.523-.374-.388l.22.304a.734.734 0 01-.424 0v-.574c-.645-.641-.984 1.232-1.51.135-.12.405.339.253.237.726-.272 0-.611-.844-.696-.844-.39-.287-.289.844-.696.658 0 .203.153.726-.12.928-.27 0-.39-.81-.237-.978.153-.17.102 0 .102.1a.255.255 0 00.082-.185.252.252 0 00-.082-.185v.202c-.153-.203-.51-.152-.458-.49-.187.22 0 .338.102.44-.374-.27-.544 0-.917-.136 0 .102.135.321.085.338-.544-.22-.204.388-.544.506-.237-.287 0-.726-.322-.455-.238-.186 0-.524 0-.692-.289.405-.629-.203-.815-.254l.153-.185a.307.307 0 01-.255.118l.119.388c-.102 0-.187 0-.204-.22-.085.27.136.659 0 1.03-.153-.185-.39.253-.492-.27.441.135 0-.54.271-.641-.068.067-.153.067-.255 0a.135.135 0 010-.135c-.441-.439-.135.607-.56.624 0-.303-.136-.557-.204-.49-.067.068.12.507 0 .744-.288-.22-.271.185-.424.168l.17.102c0 .303-.17.27-.34.388 0-.237.153-.17 0-.27-.17.54-.526-.507-.78-.135-.154-.186 0-.557-.188-.692-.288.422-.373-.372-.696 0 .136.405.136.303 0 .709l.544-.321-.323.607c.17 0 .34-.287.441-.219-.135.338-.135.236 0 .557-.288-.574-.424.405-.73 0v-.996c-.441-.405-.679.574-1.222.355l.187.168c0 .406-.323.085-.476.254a1.245 1.245 0 00-.22-.642c0 .236-.374 0-.374.675l-.272-.422c-.424-.135-.39.996-.798.912 0-.371-.119-.59.136-.878-.136 0-.272 0-.255.186 0-.203-.322.49-.475.186 0 .151 0 .489-.187.472a.269.269 0 010-.152c0 .152-.22.236 0 .59-.51-.995-1.154.187-1.596-.674a3.41 3.41 0 01-.9.32v-.135c-.407-.27-.152.98-.594.676-.441-.304.187-.304 0-.507-.153-1.08-.492.203-.832-.405v-.084c-.255-.338-.492.472-.849.422a.318.318 0 000-.17 1.769 1.769 0 01-.95.997c0-.44.135-.237 0-.675-.154.084.101.708-.187.843a2.019 2.019 0 01-.425-.86h.289c-.204-.591-.374 0-.544 0v-.27c-.424.135-.373.793-.849.793v.186c-.186.692-.254-.338-.458.168l-.136-.658a3.959 3.959 0 01-.832.86 3.64 3.64 0 01.645-1.113c-.17 0-.56.101-.61.439 0 0 .118-.236.203-.135-.153.54-.408.81-.747.844 0-1.3-.9-.253-1.24-1.215-.543.54-1.205 0-1.884 0 .356.978-.204 0 0 1.063-.153.084-.221.084-.238 0l-.475-.574c-.136-.287.136-.236.102-.473-.357 0-.204-.405-.459-.658.085.355 0 .54-.289.422l.34.439c-.441.59-.526-.81-.95-.22l.118-.337c-.238.202-.95.084-1.104.928 0-.101-.152-.388 0-.472-.61 0-1.256 1.03-1.782.573v-.202c-.102.084-.136.49-.306.253-.17-.236 0-.253 0-.27 0-.017-.255.473-.407.354l.084-.303c-.628-.253-.832.793-1.307 1.012a1.127 1.127 0 00-.815-1.012v-.102c-.696 0-1.104.743-1.698 1.097-.492-.742-1.392-.168-2.071-.556a.723.723 0 010 .675c-.153-.135-.34.557-.408-.119-.187-.64-.475-.438-.713-.422v.878c-.78-1.198-1.596.675-2.071-.439-.12.254-.306.27-.442.507v-.473a1.963 1.963 0 00-1.154 0v-.354c-.306 0-.204 1.417-.459 1.485l-.17-.709c-.526.084-1.12-.473-1.528.236v-.354c-.237 0-.984-.371-.78.59-.086-.624-.527 0-.765.321v-.472c-.153.624-.153.793-.441.996-.085 0-.12-.355 0-.254-.289-.219-.153.473-.493.254l.085-.304c-.271 0-.237.152-.34.523-.101.371-.509 0-.61-.473 0 .254-.102.625-.272.524a.42.42 0 010-.321c-.493-.253-.594.624-.951.22 0-.17 0-.237-.085-.27.201-.047.41-.047.611 0 0-.44-.356-.473-.203-1.098-.187.355-.476 1.114-.781.945a.565.565 0 010-.135s-.12 0-.17.085c-.051.084-.153-.102-.238-.102-.085-.337-.357-.135-.492-.135 0 .456-.12.406.102.777l.101-.084c.102-.085 0 0 0 0l.357-.085c0 .253-.17.473-.373.236l-.085.777c-.29-.625-.697-.928-.815-1.334-.39.321-.985.321-1.138 1.232-.102.136-.17-.236-.238-.37-.068-.136.136-.085.17-.22-.22.253-.713.185-.696.81-.34-.236.102-.59-.306-.439v-.186c-.985-.877-1.137 1.688-2.24.625a.422.422 0 01.135.203c-1.138-.406-2.088.827-3.26.084-.323-.135-.289.27-.425.59l-.135-.489-.238.625c-.374.49-.934-1.131-1.358-.237l.118.321c-.203 0-.61.304-.628-.101 0 0 0 .371-.119.202v-.27l-.407.523c-.408-.135-.102-1.046-.662-1.03-.187.136-.476.862-.357 1.03.119.17.22.136.272.389l-.17.168c.085.777 0 1.604.611 2.076l.238-.523.17.371H8.59c.204.338.255 0 .34-.219.03.142.094.276.186.388l.204-.776c0 .287 0 .624.187.76.102-.372-.238-.676 0-.929.204.338.204.625.34.304a.57.57 0 010 .422c.118-.27.407-.169.424-.59.22.404.526-.187.611.54 0-.186.204-.608.34-.659-.136.911.56 0 .628.911 0-.81.662-.455.95-.945v.169c0-.034.306.27.46.405 0-.658.203-.86.322-1.283.323.591 0 .794.119 1.384 0-.523.356-.59.204-1.012.182.192.305.432.356.692 0-.827.153-.17.238-.692.322.371.187.76.441.472.085.186-.136.523-.136.523zm6.792-2.38h-.136.136zm.594 0a.65.65 0 00-.254 0v-.338l.288.253-.034.085zm-1.698-3.089c.085-.084.136 0 .17.101h-.17v-.169.068z" fill="#4C8DF6"/><path d="M30.494 42.347l-.017-.118-.034.118h.051zm47.32-5.569a.15.15 0 000 .118v-.118zm1.426.033l.205.152a.442.442 0 00-.204-.152zm-11.087.422L68 37.47c.085.017.17.034.153-.236zm-10.747 2.549v-.017h-.034l.034.017z" fill="#4C8DF6"/><path d="M67.763 37.47c.102.084.17 0 .237 0 .068 0-.085-.068-.237 0zm17.352-.605s.02-.057 0 0zm.187-.189l-.119.135s.085 0 .119-.135zm-1.681.102v.185a.521.521 0 000-.185zm-.424.084c.102 0 .288.354.424.236v-.135c-.068.253-.424-.405-.424-.101zm-1.97-2.025l.374.118c0-.186-.17-.422 0-.473-.493-.523.118.405-.374.355zm-1.154-.203c.187-.084 0-.253 0-.371-.136.185-.153.22 0 .371zm-8.235.523v-.422c-.17.068 0 .169 0 .422zm-1.426 2.346l.17.253.033-.405-.203.152zm-1.155-3.004l.068-.068-.238.17.17-.102zm-13.821 1.266l.085.523c.102-.101.068-.692-.085-.523zm-5.908 1.097c-.102-.253-.29-.405-.357-.135.068.017.288.202.357.135zm-17.964 1.063l.085-.185-.204.168.119.017zM88.715 84.39c0-.151 0-.472-.136-.404v.557l.136-.152zm-.832-1.029c-.17.4-.211.842-.119 1.266.101-.32.18-.648.238-.979.119 0 .22.169.204.371 0-.135.186.118.22-.236s-.356-.422-.526 0a.923.923 0 01-.017-.422zm-11.053-.135s.015.015 0 0zm-6.843.101a.136.136 0 00.085-.118s-.085.068-.085.118zm-1.188-.538s.018-.088 0 0zm8.031.437l-.204-.169c0 .186.102.135.204.17zm9.627 1.587a.317.317 0 000-.152v.152zm-4.364-2.465v.659c0-.186 0-.287.102-.321a1.362 1.362 0 00-.102-.338zm-3.99.237a.417.417 0 000-.169v.169zm-67.135 3.629l.051-.034v-.253l-.05.287zM66.642 82.3s.019-.056 0 0zm-19.526 1.247c.238.405-.34.557 0 1.013-.017-.17.289-.743 0-1.013zm14.636-.709v.203a.688.688 0 000-.203zm3.684.488s-.015-.014 0 0zm-5.551.271s0-.1-.136 0c0 0 .085-.067.136 0zm-40.189 4.642a3.346 3.346 0 010-.439c-.051.338-.34.473 0 .439zm66.744-3.696v.202a.47.47 0 000-.202zm-26.453 2.801h-.323c.107.017.216.017.323 0zm-1.24.051a1.046 1.046 0 00-.203-.32.527.527 0 010 .134l.203.186z" fill="#4C8DF6"/><path d="M17.54 88.965c.305 0 .135-.625.203-.98.357-.185.17.457.289.777.22-.169.39-.743.56-.726a.486.486 0 010 .27c.238-.489.713 0 .968-.658a.537.537 0 010 .152 5.403 5.403 0 010-.844c.136 0 .254-.405.305 0 0 0 0 .152-.119.287l.136-.185c.136.59-.187.202-.187.64.272-.185.595-.674.799-.522 0 .573-.493.202-.204.709l-.323-.22c.255.911-.204 0 0 .911.425.152.476-.303.9-.134v-.794c.594-.59.51 1.435.934.658.119-.388.136-1.114.475-.725l-.102.641c.408 0 .221-.928.663-.506 0 .253-.323.22-.255.303.288.507.187-.37.407-.388v.574c.442-.101.917-.523 1.41-.624 0 .168-.102.354 0 .523.61-.304 1.307 0 1.918.371l.221-.506s.102.22 0 .32c.238.186 0-.303.102-.506.102-.202.187.27.102.422.407-.422 1.154-.928 1.596-.405v.152c.34.186.356-1.03.679-.574v.101c.73.186 1.528-.287 2.088.456.102-.726.73.304.764-.692.425.473.306.658.9.979.17 0 .221-.641.408-.743v.524l.254-.557.153.624.187-.135a.49.49 0 01-.153-.388c.272-.236.696.338.713.608l.662-.456a.758.758 0 01-.203.422c.34-.54 0 .54.39 0v-.422a.576.576 0 00.815.169v.354c.493.084 1.036-.203 1.596-.203-.203-.168-.17-.793 0-.86v.557c.102-.355-.17-.203 0-.625.204 0 .153.625 0 .794l.255-.186a2.48 2.48 0 010 .456c.102-.338.458.54.594 0v.168a10.23 10.23 0 001.257-.253c0-.472.186-.371.305-.76.34.136.713.507 1.12.456.408-.05 0-.405.188-.692 0 .422.441.372.237.692a2.673 2.673 0 001.223-.49c-.085-.168-.153-.235-.119-.387.034-.152.255.169.238.371.662-.675 1.698 1.215 2.139.287l.56-.49c.255 0-.153.321 0 .591.578-.742.968 0 1.46-.439.442 1.266 1.376-.135 1.936.659v-.304c.136-.304.17.169.289.236 0-.236-.17-.27-.085-.439 1.137-.405 2.394.338 3.582.557.442 0 .187-1.553.764-.86l-.135.556c.832-.692 1.782 0 2.614-.658 0 .135 0 .304-.135.304.203.388.679 0 .662-.338.136 0 0 .287.136.456.135.169.424-.54.543-.135 0 0 0 .135-.085.169s.56 0 .425-.439c.322.203.594-.236.865 0 .153-.523.56.236.578-.506 0 .76.594.59.78.22 0 .235.188.235.12.556.237 0 .441-.185.373-.574.476.895.832-.776 1.12.389a7.471 7.471 0 011.902-.963c0 .76-.679.102-.61.895.56-.338.865-1.013 1.46-.844.152 0 0 .32-.12.456.578-.338 1.138 0 1.698-.422 0 0 0 .135-.085.202-.085.068.238.102.204-.253l-.085.101c-.204-.489.34-1.063.34-1.333-.119.996.526.22.322 1.485a.622.622 0 00.12-.455c.101 0 .135.185 0 .455.356-.202.203-.574.543-.574.013.146.013.293 0 .44.153-.338.305-.676.594-.558v.237c.475 0 .764-.912 1.307-.625-.102.743.204.236.272.86l.272-.202-.136-.303c.254 0 .441-.473.662-.287l-.17.27.476-.135-.29-.237c.239-.337 0-.793.273-.624 0 0 .254 0 .407.354.102-.22.22-.422.408-.287.186.135 0 .71 0 .827 0-.523.577-.168.696-.742-.033.173-.033.35 0 .523v-.422c.119.118.136.186.136.456.356 0-.153-.793.271-.473v.169c.425.152.781-.32 1.172-.135.153.624-.323.186-.153.709.543-.152 1.087-.827 1.698-.71h-.102c0-.894.407.423.662 0v.39c.374.134.73-.254 1.274-.575v.237c.237.185.577 0 .815.168 0-.236.186-.202.084-.54.798 1.266 1.325-.776 2.02.27 0 0-.169.22-.1.203l.525-.237c0-.388 0-.236-.22-.523-.221-.287.187-.438.322-.438-.22.27 0 .624.17.827a2.706 2.706 0 010-.372c.323.675 0-.776.408-.337v.202c.152-.118.254-.388.424-.337 0 .438-.153.219-.136.59.22 0 .374-.894.612-.455-.085.135-.221.151-.306.27.255.523.272.388.424.455l.39.22-.101-.135c.187-1.199.543-.253.849-1.047-.306.76 0 .422 0 .946.102.135.255.286.22.422.153-.422.323.303.527-.304 0 .152.187 0 .17.405.22-.135 0-.27 0-.49.305-.574.866.625 1.307-.168.408-.355.459-.912.832-1.216.153.253 0 .608 0 .608s.39.169.594 0a.705.705 0 000 .439c.17 0 0-.608.306-.372a3.356 3.356 0 01-.119.675c.187-.168.357-.489.544-.658.084.287 0 .44-.136.642.203-.152.56-.304.594-.76l-.153-.152c.085 0 0 .388 0 .473-.17.371-.289-.135-.323-.304l.136-.118c-.203-.945-.56.202-.849.169v-.71l-.254.592c0-.17-.136-.557 0-.676-.221-.337-.153.27-.357-.118a.101.101 0 010-.118l-.187.22v-.389c-.39-.388-.543.557-.713 0-.475.27 0 .507-.34 1.148l-.339-1.249v.506s-.153 0-.153-.253c-.17.372 0 .22 0 .574-.288-.456-.679.253-.798-.557 0 .405.272.287 0 .574-.136-.878-.288.169-.56-.22 0-.455.272-.236 0-.624 0 .776-.441-.135-.628 0 0 .608-.408.27-.713.506 0-.22-.629-.303-.951-.506v-.101c0 .624-.34.523-.56.675a.958.958 0 01.135-.692h-.424a.523.523 0 01-.22.388v-.472c-.29 0-.527.59-.918.303 0 .422.374 1.182 0 1.486v-.726c0-.102-.119.202-.186.101l.135-.405c-.186-.152 0 .338-.203.32 0-.337-.12-.236-.12-.506s.137.135.17 0a.782.782 0 01-.424-.49v.507c0 .05-.119-.405-.306-.557 0 .237-.237 0-.22.507-.085 0-.102-.237-.153-.372-.136.236-.68.118-.475.625-.442.523-1.02-.22-1.478 0v-.169c-.271.203-.628.152-.815.523-.085 0-.22-.287-.186-.49-.204.136-.221.321-.56 0 .203-.303-.086-.253.22-.219-.289-.135-.374-.388-.645.085 0-.44-.255-.523-.374-.389l.221.287a.734.734 0 01-.424 0v-.573c-.612-.642-.968 1.232-1.46.118-.136.388.322.253.203.709-.255 0-.577-.844-.662-.844-.39-.287-.289.844-.68.658 0 .186.137.726-.152.928-.289.203-.374-.81-.204-.996.17-.185 0 0 .102.119a.286.286 0 000-.389v.203c-.136-.186-.492-.152-.441-.473-.187.186 0 .321.101.422-.356-.27-.543 0-.9-.152 0 .102.12.338 0 .338-.526-.22-.203.388-.543.49-.22-.287 0-.726-.305-.456-.221-.186 0-.523 0-.692-.306.405-.612-.22-.798-.287l.152-.169a.358.358 0 01-.254.118l.119.388c-.102 0-.187 0-.187-.22-.085.254.102.66 0 1.03-.153-.202-.39.237-.476-.287.425.152 0-.54.272-.64h-.238a.135.135 0 010-.136c-.424-.456-.152.608-.56.608 0-.287-.136-.557-.204-.49-.068.068.12.49 0 .726-.288-.203-.288.203-.424.186l.17.084c0 .304-.17.27-.357.388 0-.236.153-.169 0-.27-.17.54-.492-.523-.747-.152-.153-.202 0-.557-.17-.692-.288.405-.373-.388-.679 0 .119.388.119.287 0 .692l.526-.303-.322.607c.17 0 .34-.27.441-.22-.153.338-.136.237 0 .575-.271-.591-.441.37-.713 0v-.996c-.424-.439-.679.54-1.205.32l.17.152c0 .406-.306.085-.459.254a1.311 1.311 0 00-.204-.659c0 .237-.373 0-.39.659l-.238-.304c-.424-.152-.424.962-.832.877.102-.37 0-.59.153-.86-.119 0-.255 0-.238.168-.085-.202-.34.473-.475.17 0 .134 0 .489-.204.472a.866.866 0 010-.169c0 .169-.22.236 0 .608-.458-1.03-1.138.118-1.545-.76-.28.135-.577.232-.883.287v-.135c-.373-.287-.17.962-.611.641-.442-.32.22-.303 0-.49-.102-1.096-.493.17-.798-.455-.22-.371-.493.439-.85.371a.52.52 0 000-.168 1.685 1.685 0 01-.984.945c.085-.439.136-.236 0-.658-.136 0 .085.692-.22.827a2.237 2.237 0 01-.374-.895h.288c-.186-.59-.373 0-.526 0V83.8c-.424.101-.39.76-.866.726v.202c-.22.675-.22-.354-.458.135l-.102-.658a3.89 3.89 0 01-.85.81c.166-.398.402-.764.697-1.08-.17 0-.56 0-.645.405 0 0 .153-.22.22-.135-.186.54-.44.81-.78.81 0-1.3-.866-.287-1.155-1.282-.56.506-1.172-.152-1.85 0 .288.995-.188 0-.103 1.063h-.237l-.51-.591c-.119-.304.136-.236.12-.472-.357 0-.154-.422-.408-.693 0 .372-.102.54-.306.405l.306.456c-.459.574-.459-.844-.917-.287l.136-.32c-.238.202-.917 0-1.138.86 0-.118-.119-.405 0-.472-.594-.101-1.307.928-1.698.422v-.253c-.119.084-.187.49-.322.236-.136-.253 0-.253 0-.27 0-.017-.29.456-.442.32l.119-.286c-.594-.321-.883.709-1.358.911a1.11 1.11 0 00-.73-1.08v-.118c-.68 0-1.138.658-1.698.962-.408-.793-1.325-.287-1.97-.726a.705.705 0 01-.119.658c-.152-.152-.39.523-.39-.152-.12-.658-.425-.472-.662-.49v.895c-.646-1.282-1.613.524-1.987-.624-.136.22-.322.22-.458.456v-.49a1.981 1.981 0 00-1.138 0l.102-.337c-.289 0-.323 1.384-.594 1.417l-.102-.709c-.51 0-1.036-.59-1.511 0 0-.1 0-.32.102-.337-.238 0-.934-.473-.832.506 0-.641-.527 0-.782.236v-.472c-.22.608-.22.776-.543.945-.322.169 0-.371 0-.253-.271-.253-.187.439-.51.202l.103-.303c-.255 0-.238.135-.374.49-.136.354-.492-.119-.543-.541 0 .27-.153.608-.323.49a.437.437 0 010-.304c-.441-.321-.645.557-.95.101a.687.687 0 000-.287 1.71 1.71 0 01.61 0c0-.439-.288-.506 0-1.114-.22.338-.577 1.046-.865.86v-.151h-.187c-.051 0-.136-.118-.22-.118 0-.371-.323-.186-.46-.203 0 .473-.169.388 0 .777h.12c.119 0 0 0 0 0h.356c-.119.236-.22.455-.373.185 0 .304-.153.625-.187.777-.204-.659-.577-1.013-.645-1.418-.425.27-1.002.186-1.257 1.08-.119.118-.135-.253-.186-.388-.051-.135.152 0 .186-.203-.237.237-.713.102-.764.726-.305-.287.17-.574-.255-.472v-.186c-.831-.979-1.324 1.688-2.258.337a.404.404 0 01.12.22c-1.053-.557-2.157.557-3.193-.32-.306-.186-.322.219-.492.522l-.085-.506-.289.59c-.424.44-.764-1.248-1.307-.421v.337c-.187 0-.611.203-.594-.185 0 0 0 .354-.136.185v-.27l-.493.456c-.373-.186 0-1.063-.492-1.097-.204.101-.577.776-.492.945.085.169.203.169.22.44l-.186.134c0 .793-.17 1.603.288 2.144l.577-.794.102.388h-.271c.152.372.254 0 .356-.168.02.147.066.29.136.422l.306-.642c0 .304-.136.608 0 .777.136-.355-.153-.692.102-.912.152.355.101.642.288.338.05.136.05.286 0 .422.153-.253.425-.118.493-.523.17.438.543-.135.543.624 0-.186.272-.59.407-.624-.254.894.56 0 .493.995.187-.793.713-.354 1.07-.81 0 0 0 .203-.102.152-.102-.05.271.304.39.456 0-.658.323-.81.493-1.215.254.624-.136.776 0 1.384 0-.54.407-.54.322-.98.146.218.239.467.272.727 0-.828.17-.135.305-.659.272.405.085.777.374.523.102.22-.17.524-.17.524zm6.995-1.553h-.153.152zm.577 0h-.255v-.32s.17.168.255.303v.017zm-1.342-3.275c.085 0 .12 0 .136.119l-.136.135a.873.873 0 010-.254z" fill="#4C8DF6"/><path d="M33.279 88.12l-.018-.117-.034.1.052.018zm46.981-3.409a.15.15 0 000 .119.404.404 0 010-.119zm1.392.017l.22.152-.22-.152zm-15.961 1.756c-.136.118-.085.084 0 0zm5.026-1.384l-.153.236s.153.034.153-.236zm-.39.236a.153.153 0 00.237 0c-.084-.034-.17-.085-.237 0zm17.318-.793l-.119.118s.102.017.12-.118zm-2.088.202c.102 0 .288.355.424.236v-.151c-.05.27-.356-.44-.424-.085zm-1.953-2.042l.374.101c-.085-.169-.187-.405 0-.472-.51-.456.101.455-.374.37zm-1.137-.135c.186-.101 0-.27 0-.371-.136.168-.153.219 0 .37zm-8.117.506v-.371c-.152 0 .018.118 0 .371zm-1.409 2.329l.17.254.034-.389-.204.135zm-1.103-3.021l.068-.067-.238.169.17-.102zm-13.6.878v.523c.17-.101.17-.692 0-.523zm-5.858.81c0-.27-.238-.439-.34-.169-.102.27.289.237.34.169zm-17.658-.253l.119-.186-.22.152.101.034zm16.011-67.259c.17.1.493 0 .357-.389l-.612-.152.255.54zm.628-2.617c-.34-.388-.866-.827-1.341-.49.594.372.374.507 1.087.878.118.338-.085.659-.306.625.17.101 0 .59.357.726a1.411 1.411 0 00-.17-1.688c.102-.186.272-.068.373-.05zM75.692 3.882l-.204-.101a.391.391 0 00.204.101zm19.746 8.912h-.271c-.034 0 .271.067.271 0zm2.497 2.768l-.136-.17a.202.202 0 00.136.17zM75.692 3.882l.543.304c.068-.169-.271-.203-.543-.304zM49.579 9.08a.961.961 0 00.17.321v-.304l-.17-.017zm16.503-6.16h-.17l-.17.202.34-.202zm-7.386-.152c.17 0 .22-.456.272-.658a.472.472 0 01-.357.32c0 .118.03.234.085.338zm12.615.878a.42.42 0 000 .168.202.202 0 000-.168zM19.373 118.552s-.068-.034 0 0zm-6.52-6.515h.119l.187-.202-.306.202zm89.326-91.395c-.17-.135-.085-.067 0 0zm4.516 58.432c.629-.54.153 1.266.934.405-.204.034-.407-1.147-.934-.405zM49.646 8.878a1.93 1.93 0 010-.32.873.873 0 000 .32zm60.038 24.659a.438.438 0 00.152-.203s-.084.068-.152.203zm-4.414-10.414l.118.27a.574.574 0 00-.118-.27zm6.349 16.034v.422s-.051-.236 0-.422zm.544 6.228l.101-.118a.858.858 0 010-.202l-.101.32zm-73.4 78.197a2.335 2.335 0 01-.22-.473c.05.338-.918.304.22.473z" fill="#4C8DF6"/><path d="M49.85 9.064c-.119 0-.187 0-.203-.186v.22s.17.016.203-.034zm65.607 29.756v1.063c.031-.354.031-.71 0-1.063zm-31.021 76.627l-.17.168a.27.27 0 00.17-.168zm31.377-72.374c-.14.179-.239.386-.289.608a.801.801 0 00.119.118l.17-.726z" fill="#4C8DF6"/><path d="M31.615 122.873c.967.219.594-.49.866-.793 1.205 0 .441.557.764.962.764 0 1.426-.473 1.97-.338 0 .101.118.169 0 .27.848-.337 2.274.405 3.276 0a.393.393 0 01.085.169 1.678 1.678 0 010-.861c.441 0 .866-.253.968.186-.272 0-.323.101-.459.202l.476-.101c.322.658-.645.101-.73.523a8.266 8.266 0 012.7-.084c0 .591-1.699 0-.799.591l-1.018-.389c.662 1.03-.646-.168 0 .912 1.375.388 1.613 0 2.988.337.356-.27 0-.489.323-.759 2.054-.321 1.392 1.688 2.954 1.029.424-.337.645-1.029 1.698-.557l-.425.608c1.375.186.866-.844 2.275-.321-.271.237-1.103.135-.9.237.9.574.68-.321 1.41-.287l.102.591c1.494 0 3.124-.389 4.754-.524-.085.169-.374.355 0 .524a35.84 35.84 0 016.469 0l.696-.591c.187 0 .373.185.187.304.815 0 0-.321.34-.574.339-.253.627.169.373.371.809-.408 1.65-.752 2.513-1.03a6.7 6.7 0 012.665-.489l-.22.219c1.154-.101.933-1.35 2.054-1.198l-.17.135c2.428-.489 4.72-1.958 6.792-2.059 0-.743 2.309-.793 2.003-1.688a7.739 7.739 0 002.904-.742c.475-.22.356-.912.849-1.351l.288.439.442-.945.73.27.441-.456c-.22.118-.56.102-.611 0a2.928 2.928 0 012.31-.844l1.544-1.687c0 .202-.17.489-.322.776.628-1.148.509.304 1.07-.776-.187 0-.12-.287-.17-.389a4.818 4.818 0 002.207-1.586l.119.405a47.848 47.848 0 003.82-3.815c-.594.355-.917-.202-.577-.624l.543.236c0-.489-.543.253-.34-.54.527-.456.781 0 .629.506l.441-.759c.153 0 .085.287.204.473 0-.49 1.409-.709 1.307-1.486h.153c1.24-1.418 1.698-2.194 2.58-3.375-.373-.321.086-.726 0-1.317a15.25 15.25 0 002.548-2.717c.322-.895-.187-.44-.187-.945.407.185 1.087-.98.968-.22a16.427 16.427 0 001.698-3.73c-.255.118-.459.287-.51.101-.051-.185.56-.624.713-.49v.102c.544-2.245 3.549-4.101 3.396-6.144v.102l.289-1.907c.407-.76.102.607.594.118.119-2.144 1.273-2.954 1.375-4.692 1.698-.81 1.325-4.372 2.547-5.84h-.322c-.17-.507.305-.473.458-.777-.255 0-.391.405-.475 0 .594-3.747 2.156-7.561 2.937-11.426.255-1.401-1.426-.98-.509-2.684l.509.574c-.374-2.937.56-5.873 0-8.709.136.169.289.186.289.456.441-.574 0-2.194-.255-2.211 0-.44.305-.085.475-.355.255-.607-.509-1.502-.102-1.823 0 0 .136.17.17.27-.187-.388 0-1.822-.441-1.434.203-1.064-.272-2.026 0-2.886-.561-.524.119-1.84-.645-1.958.781 0 .441-1.941 0-2.566.254.203.152-.607.509-.388-.119-.776-.391-1.468-.747-1.266.662-1.603-1.291-2.65-.357-3.713-1.001-2.16-1.986-4.101-3.022-5.907.73-.254 1.002 2.076 1.698 1.688a34.583 34.583 0 01-2.717-4.119c-.153-.49.442 0 .628.186a27.894 27.894 0 00-3.259-4.54s.237 0 .39.168c-.221-.253-.39-.708-.645-.472l.272.22c-.085.725-1.698-.49-1.902-.355 1.154-.169-.866-1.469.696-1.553-.187-.135-.509-.253-.645 0-.17-.304-.136-.49.288-.388-.916-.844-.933-.236-1.697-1.08.118-.119.322 0 .543 0a3.16 3.16 0 01-1.698-1.165c.119 0 .136-.203.323 0-1.172-1.13-2.547-1.317-3.668-2.684.883-.219-.305-.573 0-1.114l-.849-.455.102.472c-.645-.54-1.528-.59-1.953-1.198l.646.169a28.352 28.352 0 00-1.325-.827c.187.236.39.455.56.709-.865-.237-.39.692-1.17-.085.203.085-.663-.472-.816-1.012a1.992 1.992 0 01-1.341-.557c0-.254.475-.524.458-.692-.611.219-1.698-.878-2.462-.642.204 0 .374-.304.374-.388l-.51.203c-.271-.304-.288-.389-.101-.591-.985-.608 0 .86-1.104 0h.323c-1.138-.793-2.496-.928-3.55-1.688-.084-.743 1.07.304.9-.354-1.697-.642-3.769-.76-5.382-1.435l.29.169c-.527.776-1.105-.844-2.09-.692.238 0 .425-.405.34-.321a14.034 14.034 0 00-4.261-.625l.271-.168a16.933 16.933 0 00-2.547-.844c-.271.169-.696 0-.492.439-2.105-1.688-4.516 0-6.452-1.3.255 0 .611-.152.424-.169h-1.731c.118.405.22.253.56.591-.347.24-.767.353-1.189.32.815-.202 0-.624-.288-.86v.371c-.883-.76-.204.76-1.426.236v-.202c-.457.168-.94.254-1.427.253-.186-.456.51-.186.56-.557-.713 0-1.426.81-2.07.355.305-.135.746-.119 1.052-.254a1.857 1.857 0 00-1.308-.489L59.426.186l.323.135c-.9 1.198-1.834.22-3.023 1.046 1.155-.776.187-.439.255-.945-.272-.135-.747-.27-.628-.422-.543.439-.95-.304-1.8.371 0-.168-.696 0-.611-.354-.866.287.272.236.204.472-.595.372-1.376.338-2.327.76a2.646 2.646 0 00-1.29 1.046 2.62 2.62 0 00-.407 1.604c0 1.688.713 1.84.916 3.173-.254.439-.594-.371-.594-.371a2.77 2.77 0 000 1.924c-.153-.135-.271 0-.441.22 0 .556.611.354.39 1.08a2.29 2.29 0 01-.679-.524c.17.642.526 1.266.73 1.907-.288.203-.475-.371-.679-.59.17.742.425 1.924.917 2.092l.102-.489c0 .27-.374.186-.476 0a.59.59 0 01.238-.979l.136.456c.934-.557-.306-1.857-.272-2.819l.73.371-.577-.91c.17-.203.56-.355.68.1.339-.658-.255-.574.135-1.147h.119l-.204-.642c.153.135.493-.084.39.304.425-1.13-.475-1.907.12-2.245v.085c0-.726-.102-.794-.29-.827-.186-.034-.44 0-.474-.76a3.09 3.09 0 011.596.068 3.936 3.936 0 01-.29-.44c.103-.1.357-.236.442 0 .238-.573-.22-.134-.118-.59.815 0 2.07-.81 2.343 0 .254-.422-.781-.236 0-.59.288.86.984-.203 1.697.185-.22.456-.916.236-.17.624.425-.793 1.444.119 2.055 0 0-.607 1.341-.27 2.394-.455 0 .202 1.953.388 2.904.658v.101c.22-.607 1.222-.422 1.952-.506 0 .371-.187.506-.594.641h.679a1.02 1.02 0 01.849-.304l-.22.44c.9 0 1.884-.372 3.004.084.12-.422-.797-1.317.493-1.435 0 .236 0 .625-.323.692.102 0 .39-.152.595 0l-.544.338c.51.236.323-.287.747-.203 0 .32.272.287.17.54-.102.253-.34-.202-.526-.084.459.09.872.334 1.171.692a.369.369 0 01.248-.424.376.376 0 01.177-.015c.9.118.237.439.73.692.255-.186.78.152.883-.338.255 0 .271.287.34.44.509-.136 2.156.387 1.697-.237h-.119.085c1.698-.169 3.056.996 4.568 1.232v.152c.89.219 1.8.343 2.716.371.255 0 .493.507.323.659a2.54 2.54 0 011.698.573c-.747 0 .136.321-.747 0 .798.44.866.794 1.952.726-.475.287.408.743.832.827l-.441-.54c.42.141.825.328 1.205.557l-.458.422c1.341 1.35 3.497.422 4.143 2.11.61-.101-.73-.726-.12-.912.714.473 1.037 1.688 1.24 1.688.781.878 1.359-.135 2.225.743 0-.253.17-.777 1.035-.405.866.371.34 1.3-.17 1.097-.17-.101-.22-.203-.17-.253-.271-.102-.61-.237-.458.135l.204-.102c.238.389 1.138 1.08.73 1.165.611.236.425 0 .102-.456.68.878 1.341 1.013 2.054 1.89v-.37c1.087 1.231.798.168 1.698.843.255.659-.679.388.323.945.356.608-.272.49-.577.422 1.001.405 1.137 1.486 1.477 1.925l-.476-.254c.241.134.454.311.629.524l.101-.49c.153.27.323.473.187.574.408 0 .34-.625 1.036-.405.119.456 1.019.793.679 1.266-.696-1.097-.306.439-1.087-.304.222.134.394.335.493.574h-.187c.408 1.232.815 0 1.698 1.046-.34 0-.272.574-.102.71-.306-.423.255-.507.713-.271.306.81.679.625.9.996l-.187-.473c.34 0 .561.32.951.76-.17.168-.424-.355-.39-.118.781.253.356 1.502 1.103 2.076 0 .455-.475.32-.407.692.832.658.17 1.114.917 1.873.22-.439.118-.456.798 0-.357-.456-.663-.928-1.053-1.367.358.211.704.442 1.036.692-.221-.473-.73-.86-.832-1.165.56.304.441.304.611 0-.17.895.968 1.098 1.002 2.026l-.917.405c.102 1.283 1.375 1.772 1.698 3.375v-.54c.441 0 .407.895.713 1.35-.34 0-.357.406-.493.676.255-.102.306 1.114.985 1.08l-.237.81c.118 1.283 1.256 1.232 1.392 2.498-.442-.304-.561.304-.968-.473 0 .405 0 .777.306.743-.17.287.645 1.08.373 1.52.17.151.526.151.56.624a.167.167 0 01-.169 0c.169 0 .305.709.628.253-.866 1.4.407 3.645-.442 4.844.152.95.248 1.908.289 2.87-.102 0-.17 0-.136-.153-.305 1.148.968.71.594 2.042-.543.676-.271-.708-.492-.287-1.104.152.119 1.688-.56 2.465v-.22c-.408.675.373 1.688.204 2.785a.208.208 0 00-.17 0 7.483 7.483 0 01.645 3.376c-.391-.372-.17-.507-.628-.338 0 .49.713 0 .73.895-.255.287-.527.962-1.002.996v-.895c-.662.388-.102 1.165-.272 1.688l-.254-.084c0 1.367.577 1.468.322 2.953l.221-.135c.526.912-.475.625-.102 1.502l-.713.135c.186.968.277 1.952.272 2.937-.305-.81-.51-1.655-.612-2.515 0 .523-.271 1.79 0 2.11 0-.22-.135-.506 0-.692.311.73.382 1.54.204 2.312-1.239-.455-.9 2.65-2.105 3.14 0 1.924-1.138 3.51-1.698 5.57 1.205-.406-.17.624.849.81-.102.506-.17.692-.255.709-.339.421-.73.843-1.103 1.248-.374.406 0-.54-.272-.573-.459 1.012-.577.287-1.087.877.391 0 .357.54 0 1.064l.747-.642c0 1.688-1.29.912-1.375 2.549l-.102-.574c-.102.81-1.154 2.65-.747 3.713-.17 0-.509.118-.424-.22-.9 1.689-1.104 4.17-2.309 5.2l-.153-.237c-.102.337.119.76-.323 1.03 0 0-.153-.254-.255-.119a2.203 2.203 0 01-.492 1.334v-.473c-1.24 1.384-.95 2.734-1.698 4.135-.594-.422-1.698.591-2.19 1.097v-.084a13.5 13.5 0 00-1.681 2.515 17.9 17.9 0 01-1.375 2.464c-1.41.388-3.158 2.785-4.975 3.747.322-.101.356.473.136.76-.221.286-.662 1.232-1.036.658h.136c-.713-.304-1.325.439-1.919.894l.459.777a5.475 5.475 0 00-3.023 1.688c-.9.759-1.698 1.485-2.462 1.265-.288.422-.798.726-1.086 1.148l-.221-.422a25.787 25.787 0 00-3.158 1.688l.136-.456c-.798.388-.408 1.688-1.189 2.11l-.526-.54c-1.443.692-3.158.641-4.415 1.772a.4.4 0 01.204-.422c-.713.22-2.87.405-2.343 1.266-.187-.574-1.579.338-2.36.827v-.658c-.56.759-.543.928-1.528 1.266-.255 0-.272-.321 0-.27-.85-.102-.544.557-1.562.489l.322-.371c-.832.118-.73.27-1.137.675-.408.405-1.596 0-1.698-.338a.963.963 0 01-1.019.591.39.39 0 01.187-.321c-1.41-.202-2.038.692-3.022.27a.398.398 0 00-.17-.287h1.901c0-.421-.9-.438-.254-1.097-.662.389-1.85 1.148-2.734.946a1.303 1.303 0 01-.119-.152.984.984 0 00-.543 0 2.616 2.616 0 00-.713-.118c-.102-.372-1.002-.22-1.443-.237 0 .473-.56.372 0 .777h1.681a1.043 1.043 0 01-1.206.168 9.285 9.285 0 01-.645.743c-.611-.675-1.698-1.097-1.902-1.519-1.358.203-3.192 0-4.143.709-.407 0-.424-.304-.56-.456.238 0 .51 0 .645-.135-.798.135-2.309-.202-2.58.388-.934-.422.628-.489-.713-.573l.203-.169c-2.462-1.367-4.567.877-7.25-.945.187.118.289.168.306.27-3.175-1.199-6.961-.946-9.848-2.819-.832-.456-1.053-.118-1.698 0v-.557l-1.12.219c-1.495-.101-1.698-2.025-3.634-2.042v.405c-.543-.32-1.885-.726-1.596-1.029-.085 0-.34.219-.475 0l.119-.254c-.527-.101-1.036-.253-1.563-.388-.9-.81.713-.793-.662-1.688-.577-.27-1.918-.438-1.85-.151.067.286.441.523.288.742l-.56-.236c-.56.557-1.477.878-.543 2.262.39.101.78.168 1.171.236l.085.506-.696-.742c.238.59.696.506 1.12.54a.754.754 0 00.153.59h1.308c0 .338-.713.287-.187.794.611 0 0-.827.764-.608.272.557 0 .743.68.76 0 .219-.188.27-.442.236.577 0 1.324.574 1.697.321.272.658 1.698.658 1.325 1.316.52-.12 1.06-.12 1.579 0-1.172.506 1.698.726 1.137 1.519.917-.506 2.412.473 3.668.388 0 0-.238.118-.323 0 .409.212.78.485 1.104.81.255-.607 1.29-.489 1.919-.742.61.827-.663.624-.578 1.283.085-.524 1.495-.152 1.325-.659.509.524.475.304.645.912.306-.777.594 0 1.205-.372.781.591 0 .811 1.053.777.476.304-.441.405-.441.405zm23.176 1.384h-.492.492zm1.952 0h-.849a.219.219 0 01.187-.338c-.05.068.357.152.662.27v.068zm-4.108-3.291c.288 0 .39 0 .424.135h-.51a.443.443 0 01.086-.135z" fill="#4C8DF6"/><path d="M52.125 121.523a.345.345 0 01-.136 0l.187.118.102-.152-.153.034zm30.596-4.676l-.068-.101-.085.186.153-.085zM65.233.709l-.136-.135a.49.49 0 00.136.135zM60.632.422l-.646-.186c.21.08.426.142.646.186zm47.167 20.676a.29.29 0 00.102.101c.272.22.102.05-.102-.101zM94.844 10.127a2.2 2.2 0 01.578.118c-.238-.118-.34-.27-.578-.118zm20.528 28.643h-.017l.017.117v-.118zM96.05 10.768a1.308 1.308 0 00-.629-.456c.179.19.392.345.629.456zM49.748 12.27v.186h.085l-.085-.186zm.085.186v.186a.201.201 0 000-.186zm.237.574l-.17-.388c.018.135.018.32.17.388zm-.339-5.502h-.17a.26.26 0 00.17 0zm-.017-1.435c0 .338-.39.844-.288 1.333h.136c-.323-.185.424-1.012.152-1.333zm4.33-3.578c-.329.01-.655.067-.968.169.238.1.476.253.17.438.56 0 .492 0 .39-.151-.101-.152-.254-.338.408-.456zm3.515.034c-.629.1 0 .27 0 .37.373-.185.475-.219 0-.37zm25.638 3.797l-.255.405c.475.085.068-.169.255-.405zm5.484-.118l-.323-.439-.373.253.696.186zm1.239 4.085l-.203-.051.747.253-.543-.203zm21.767 33.975l.526-.168c-.152-.237-.713-.355-.526.168zm-.424 18.735a.845.845 0 00-.34 1.03c.102-.422.374-.81.34-1.03zM84.47 110.451l.187-.355-.475.54.288-.185zm-6.078 27.292c-.123.404-.18.826-.17 1.249 0-.524 0-.304.204-.946 0 0 .085.186 0 .389 0-.135.085.135.136-.22.05-.354-.153-.456-.272-.101.015-.128.05-.253.102-.371zm-9.271-1.486a.218.218 0 000-.135.403.403 0 000 .135zm-.611-.64s.018-.037 0 0zm4.177 1.096l-.102-.186c0 .186.05.068.102.186zm1.579-.473a1.55 1.55 0 010-.236v.236zm1.206-.033a5.16 5.16 0 000 .658 1.196 1.196 0 010-.338v-.32zm-37.117 2.312l.018-.034-.017-.253v.287zm18.779-3.072c.119.422-.187.557 0 1.03-.017-.186.153-.76 0-1.03zm7.692-.169v.203a1.043 1.043 0 000-.203zm-1.001.678s0-.107 0 0c0 0-.036-.089 0 0zm-20.783 4.268c0-.135 0-.287-.085-.422.05.287-.085.455.085.422zm34.501-1.435a.69.69 0 010 .203v-.203zm-13.736.895h-.17a.224.224 0 00.085.016c.03 0 .058-.005.085-.016zm-.646.016a1.354 1.354 0 00-.101-.337v.118l.101.219z" fill="#4C8DF6"/><path d="M41.989 141c.153 0 0-.608 0-.962s.136.439.22.759c.102-.185.136-.759.221-.742a.657.657 0 010 .27c.085-.506.357 0 .442-.692a.623.623 0 010 .152c0-.304 0-.625-.085-.844-.085-.22.085-.405.153 0v.287-.186c.118.574-.085.203 0 .642.135-.203.254-.692.373-.541 0 .574-.238.203 0 .709l-.187-.202c.204.877-.102 0 .102.894.22.152.22-.304.442-.168v-.777c.254-.608.356 1.418.526.625 0-.372 0-1.097.187-.726v.591c.22 0 0-.946.305-.524 0 .254-.153.237-.119.304.187.507 0-.371.187-.388v.574c.221-.101.442-.54.68-.658a1.106 1.106 0 000 .523c.288-.321.679 0 1.001.337l.085-.506v-.186c0-.185.119.27.085.422.187-.439.543-.945.798-.422v.152c.187.186.136-1.029.323-.59v.101c.39.185.78-.304 1.12.439 0-.726.39.287.357-.709.237.489.187.658.51.979.084 0 .084-.625.186-.743v.523l.119-.557.102.625.084-.135a1.13 1.13 0 01-.101-.388c.136-.237.39.354.407.607l.323-.456a.905.905 0 01-.102.422c.17-.54 0 .541.204 0a3.495 3.495 0 010-.422c.102.321.288.304.424.169v.507c.255 0 .526-.186.815-.203a1.326 1.326 0 010-.844v.54c0-.337-.102-.202 0-.624.119 0 .102.624 0 .81l.119-.203a4.39 4.39 0 010 .473c0-.354.255.54.288 0v.051c.29 0 .408-.203.646-.237 0-.489.085-.388.136-.759.186.135.39.506.594.455.204-.05 0-.405.085-.692 0 .439.22.389.136.709.237 0 .305-.101.61-.472a1.175 1.175 0 010-.388c0-.085.137.168.137.371.34-.658.866 1.232 1.12.321l.272-.473c.136 0 0 .338 0 .591.288-.726.492.101.747-.388.238 1.265.713-.119 1.002.692v-.304c0-.287.102.169.153.236v-.422c.594-.388 1.239.405 1.85.658.221.085.102-1.552.39-.844v.557c.442-.675.918 0 1.36-.557v.287c.084.405.339 0 .339-.303v.455c0 .152.22-.506.271-.101a.218.218 0 010 .152c0-.186.272 0 .221-.422.17.236.306-.203.441 0 0-.523.29.253.306-.49 0 .76.306.608.408.254v.557c.118 0 .22-.152.203-.541.221.912.442-.725.56.439a3.72 3.72 0 011.002-.86c0 .759-.356 0-.34.86.306-.303.476-.962.782-.776.306.186 0 .337 0 .456.306-.304.577 0 .849-.338a.69.69 0 010 .203s.119.118.119-.22a4.21 4.21 0 01.22-1.316c-.102.996.272.253.12 1.502.032-.15.032-.306 0-.456v.473c.186-.186.118-.557.288-.557.17 0 0 .236 0 .439 0-.321.187-.659.323-.507.135.152 0 .237 0 .22.254 0 .44-.861.713-.54-.102.725 0 .236 0 .877l.152-.185v-.321c.12 0 .255-.439.357-.236l-.102.27.238-.119-.12-.236c.137-.337 0-.81.17-.624.17.185.12 0 .188.388 0-.203.135-.422.22-.253.085.169 0 .692 0 .827 0-.523.306-.135.408-.692a1.932 1.932 0 000 .523v-.422a.726.726 0 010 .456c.187 0 0-.794.17-.439v.152c.22.185.424-.253.628 0 0 .641-.187.152-.136.692.288-.101.611-.743.883-.591 0-.894.204.456.34 0-.02.129-.02.26 0 .388.186.152.39-.202.678-.472v.219c.102.22.29.135.408.236 0-.219.102-.185 0-.523.34 1.317.73-.675 1.019.422v.203l.288-.203c.03-.179.03-.361 0-.54 0-.236.12-.405.204-.405-.093.274-.093.57 0 .844v-.371c.119.692 0-.777.238-.304v.202c0-.101.153-.371.238-.304 0 .439 0 .203-.102.574.102 0 .254-.844.34-.388 0 .118-.137.118-.188.236.102.541.12.405.187.49l.187.253v-.152c.187-1.164.306-.202.526-.962-.22.726 0 .422-.084.928.052.147.08.301.084.456.102-.405.136.321.289-.27v.439c.119-.135 0-.287 0-.506.204-.557.39.708.696 0 .238-.304.306-.861.526-1.131a1.31 1.31 0 01-.084.607c.102.237.186.203.305 0a1.363 1.363 0 000 .456c.102 0 .102-.608.204-.354.102.253 0 .472-.119.658.102-.152.22-.456.323-.591a1.953 1.953 0 01-.12.625c.065-.197.07-.408.018-.608v-.169a1.21 1.21 0 010 .473c-.119.354-.136-.152-.136-.321l.085-.101c0-.979-.306.135-.459 0l.102-.692-.186.574a1.242 1.242 0 010-.675c0-.355-.102.236-.187-.152a.253.253 0 010-.118l-.119.202v-.388c-.17-.422-.34.506-.374 0-.271.219 0 .506-.271 1.114v-1.283.253c-.12.338 0 .22 0 .54-.102-.472-.374.22-.357-.607 0 .388.102.304 0 .574 0-.878-.153.135-.254-.27-.102-.406.152-.203 0-.608-.102.759-.221-.186-.34 0 0 .624-.22.253-.407.456 0-.203-.306-.355-.442-.574v-.101c0 .607-.204.489-.323.607a1.864 1.864 0 01.102-.675h-.102c0 .203 0 .304-.152.371v-.472c-.153 0-.323.54-.493.219 0 .439.102 1.215-.102 1.502a3.04 3.04 0 010-.742s0 .202-.102.101l.102-.388c-.085-.186 0 .32-.118.287v-.507c0-.27 0 .135.084 0a1.058 1.058 0 01-.186-.523 1.11 1.11 0 010 .49c-.153 0 0-.406-.12-.574 0 .236-.135 0-.152.489v-.371c0 .219-.357 0-.289.574-.254.489-.51-.304-.764-.102v-.168c-.153.185-.322.101-.441.472a.788.788 0 010-.506c-.119.118-.136.304-.289 0 .119-.287 0-.253.119-.203-.153-.152-.17-.422-.34 0 0-.422-.101-.54-.17-.405v.304h-.203v-.557c-.289-.692-.577 1.148-.781 0 0 .388.153.27 0 .743-.136 0-.255-.895-.306-.895-.186-.32-.186.81-.39.591a1.67 1.67 0 01-.12.928 1.427 1.427 0 010-.996v.102a.373.373 0 000-.372v.203c0-.203-.254-.186-.203-.506a.334.334 0 000 .422c-.187-.287-.288 0-.458-.203v.338s-.12.388-.306.472c-.102-.321 0-.742-.153-.472a1.107 1.107 0 010-.709c-.187.455-.187-.203-.356-.203l.102-.169c0 .102-.102.102-.153.102v.405s-.102 0 0-.253a8.085 8.085 0 01-.085 1.029c0-.202-.204.22-.22-.321.203.186 0-.523.152-.607.153-.085 0 0-.119 0a.185.185 0 010-.135c-.204-.473-.102.591-.323.574v-.49.726c-.135-.236-.152.169-.22.135v.118c0 .304-.102.253-.204.355v-.271c-.102.524-.238-.54-.39-.185v-.709c-.17.388-.187-.405-.357 0 .076.224.076.468 0 .692l.289-.287-.187.591s.187-.253.238-.186a.788.788 0 000 .557c-.12-.591-.238.355-.374 0v-.996c-.204-.439-.373.507-.645.253v.186c0 .388-.17 0-.255.203a1.834 1.834 0 00-.085-.659c0 .254-.186 0-.22.642l-.17-.642c-.221-.168-.238.962-.459.844 0-.371 0-.607.12-.86 0 0-.137 0-.137.168 0-.202-.186.456-.254.135 0 .135 0 .49-.12.456a.4.4 0 010-.152c0 .152-.118.22 0 .591-.22-1.047-.593 0-.797-.81a1.413 1.413 0 01-.459.253v-.135c-.186-.321-.102.945-.322.607-.221-.337.102-.286 0-.489 0-1.097-.255.152-.408-.489-.119-.372-.271.421-.458.337a.49.49 0 000-.169c-.047.357-.23.683-.51.912.035-.218.035-.44 0-.659 0 0 0 .692-.118.828a4.159 4.159 0 01-.204-.912h.153c0-.608-.187 0-.272 0v-.439c-.22.102-.204.76-.458.709v.203c-.12.658-.12-.372-.238.135v-.675c-.116.278-.27.54-.459.776.08-.363.205-.715.374-1.046-.085 0-.306 0-.34.388 0 0 0-.237.12-.135-.103.54-.239.793-.408.793 0-1.3-.459-.321-.611-1.317-.29.473-.612-.185-.968-.101.153.996-.102 0 0 1.064h-.136l-.255-.608v-.473c0-.236-.085-.422-.22-.692 0 .355 0 .524-.153.389l.152.472c-.237.557-.237-.861-.475-.304v-.337c-.136.202-.492 0-.594.844a.908.908 0 010-.473c-.323-.118-.662.911-.934.405v-.253s0 .473-.17.219c-.17-.253 0-.236 0-.253 0-.017-.136.439-.22.304v-.287c-.323-.321-.459.709-.697.895a1.413 1.413 0 00-.407-1.097v-.102c-.374 0-.594.642-.9.945-.255-.793-.713-.303-1.07-.742.053.216.053.442 0 .658-.085-.135-.186.523-.22-.152-.085-.675-.238-.489-.374-.489v.877c-.39-1.265-.832.54-1.07-.624 0 .236-.17.236-.22.456v-.473a.576.576 0 00-.595 0v-.338c-.152 0-.118 1.384-.254 1.418l-.085-.709c-.255 0-.578-.574-.781 0v-.337c0-.034-.527-.456-.408.523 0-.641-.288 0-.407.236v-.472c-.085.607-.085.776-.238.962-.153.185 0-.372 0-.253-.153-.254 0 .438-.255.202v-.304c-.153 0-.119.135-.17.49-.05.354-.271-.102-.322-.523 0 .253 0 .607-.136.489a.858.858 0 010-.304c-.238-.304-.288.574-.475.118.011-.089.011-.18 0-.27h.322c-.1-.356-.14-.727-.119-1.097-.101.338-.237 1.064-.407.861v-.186h-.085c-.085 0-.085-.118-.119-.118 0-.354-.187-.185-.255-.185v.692c0-.085 0 0 0 0h.187c0 .253-.085.455-.187.202v.76c-.152-.642-.373-.979-.424-1.384-.204.27-.51.202-.577 1.114 0 .118-.102-.254-.136-.389-.034-.135 0 0 .085-.219-.102.236-.374.118-.357.743-.17-.27 0-.574-.152-.456v-.152c-.51-.962-.56 1.688-1.155.405a.43.43 0 01.085.219c-.595-.523-1.07.608-1.698-.219-.17-.169-.153.236-.204.54l-.085-.506-.102.607c-.186.439-.526-1.215-.73-.371v.338c-.102 0-.305.236-.322-.169v.186-.254l-.204.473c-.22-.169 0-1.063-.374-1.08a2.05 2.05 0 00-.152.979s.118.152.152.422v.135a5.923 5.923 0 00.357 2.126l.119-.506.102.388h-.136c.102.338.119 0 .153-.202.023.144.063.286.118.422l.085-.777c0 .321 0 .625.12.777 0-.355-.154-.676 0-.912.118.338.118.642.186.321a.856.856 0 010 .422c0-.253.204-.118.204-.54.136.439.271-.135.34.607a1.403 1.403 0 01.152-.641c0 .894.289 0 .34.979 0-.81.34-.388.475-.844v.152c0-.034.17.287.238.439a4.377 4.377 0 01.153-1.232c.186.624 0 .776.085 1.384 0-.541.17-.557.084-.996.104.23.173.475.204.726 0-.827 0-.152.102-.659.187.388.102.76.238.507a.82.82 0 01.085.641zm3.497-1.688h-.084.084zm.289 0h-.119v-.321c.05.099.112.19.187.271l-.068.05zm-.883-3.24v.118-.186.068z" fill="#4C8DF6"/><path d="M50.037 139.886l-.017-.118-.017.118h.034zm24.313-1.485a.25.25 0 000 .118.334.334 0 000-.118zm.714.135l.102.169a.35.35 0 00-.102-.169zm.56.253a.758.758 0 010-.203v.203zm-8.862.338s-.053.087 0 0zm2.648-1.064l-.085.22s.068.118.085-.22zm-5.585 1.639v-.018h-.018l.018.018z" fill="#4C8DF6"/><path d="M69.189 138.266c0 .101 0 0 .136 0s-.085-.068-.136 0zm8.099.59v.186a.524.524 0 000-.186zm-.221.051s.12.371.204.27v-.135c-.034.253-.136-.422-.204-.135zm-.832-2.194l.17.152v-.473c-.17-.54 0 .422-.17.321zm-.577-.27c.102 0 0-.27 0-.371a.366.366 0 000 .371zm-5.111 2.076l.068.27.051-.405-.119.135zm-.424-3.089l.05-.067-.135.168.085-.101zm-7.148.101v.541c.084-.102.084-.692 0-.541zm-3.074.591c0-.27-.135-.439-.186-.169-.051.271.152.237.186.169zm-9.287-.54l.051-.186-.119.169.068.017z" fill="#4C8DF6"/></svg>