<svg width="141" height="122" fill="none" xmlns="http://www.w3.org/2000/svg"><path d="M2.224 2.839c-.206.128-.103.448.461.4l.428-.528-.89.128zM5.986 3.91c.684-.24 1.453-.671 1.043-1.167-.667.496-.82.272-1.556.864-.565 0-.975-.192-.873-.384-.205.128-.872-.144-1.197.176a3.18 3.18 0 002.634.16c.205.128 0 .255-.051.351zM61.26 4.934h-.359c.12.013.24.013.36 0zm34.24-.848c-.257 0-.36.08-.377.128.24-.016.445-.016.376-.128zm5.883.288h-.342c.11.04.231.04.342 0z" fill="#DC362E"/><path d="M61.26 4.934l.907.144c.069-.176-.462-.112-.906-.144zM13.682 2.807a3.684 3.684 0 00-.496.128h.479l.017-.128zm32.494 2.751h-.273a1.03 1.03 0 00-.24.223l.513-.223zm-11.612.112c.257 0 .36-.432.462-.624a.924.924 0 01-.582.304.66.66 0 00.12.32zm19.89-.096a.38.38 0 00.102.16.182.182 0 00-.029-.093.2.2 0 00-.073-.067zM.325 14.895s.015-.076 0 0zM2.788 2.343V2.6h.29l-.29-.256zm89.086 76.679c.478-1.023.478 1.712 1.026.16-.189.176-.684-1.423-1.026-.16zM13.938 2.887h.48a2.302 2.302 0 00-.48 0zm96.475 23.699a.573.573 0 00.188-.24s-.103.064-.188.24zm.051-17.174v.431a2.594 2.594 0 000-.431zm.941 26.066a1.49 1.49 0 000 .623.195.195 0 000-.096.607.607 0 010-.527zm.342 9.275l.102-.176a1.73 1.73 0 010-.288l-.102.464zM.907 43.138c.106-.172.252-.32.427-.432-.342.144-.496-1.216-.427.431z" fill="#DC362E"/><path d="M13.682 3.063a.347.347 0 01.129-.127.378.378 0 01.179-.049h-.308s-.12.144 0 .176zm101.536 32.67v1.472c.025-.49.025-.981 0-1.471zm-76.413 42.65h-.359a.638.638 0 00.36 0zm76.619-36.797a2.43 2.43 0 00-.291.832c.029.064.07.123.12.176l.171-1.008z" fill="#DC362E"/><path d="M0 32.983c0 1.407.633.656.992.943.205 1.6-.445.784-.77 1.36.314.86.577 1.735.787 2.622-.103 0-.137.208-.274 0 .513 1.104 0 3.295.753 4.574a.423.423 0 01-.154.176 1.21 1.21 0 01.872-.224c0 .624.41 1.167 0 1.407 0-.384-.17-.416-.308-.592l.206.656c-.582.608-.24-.895-.667-.895.356 1.232.563 2.498.615 3.774-.581.224-.273-2.303-.752-.976l.188-1.599c-.89 1.183 0-.928-.907.16-.12 2.015.36 2.255.24 4.254.342.447.479-.16.804.287.667 2.83-1.386 2.287-.548 4.35.41.528 1.146.72.821 2.223l-.684-.48c0 1.951.992 1.072.633 3.199-.274-.368-.274-1.6-.342-1.232-.479 1.343.41.928.445 1.935l-.582.224c.188 2.079.701 4.334.907 6.62-.171-.111-.377-.495-.53 0 .298 2.99.298 5.999 0 8.988.238.49.432.998.58 1.519 0 .4-.17.88-.29.432 0 2.046.308 0 .565.751.256.752-.206 1.6-.394.992 0 .272.12.575.171.895l2.976-.256 2.702-.191a14.796 14.796 0 013.66.143l-.428.144c1.71.176 1.899-.975 3.421-.575l-.308.096c3.677.144 7.696-.4 10.518.207.496-.687 3.643.176 3.831-.767 1.457.415 2.96.667 4.48.752.788 0 1.147-.656 2.104-.8v.496l1.283-.592.736.56.906-.176c-.36 0-.787-.176-.736-.32a5.874 5.874 0 013.54.384l3.336-.624c0 .208-.616.304-1.044.464 1.71-.624.36.495 1.967-.08-.222-.096.103-.288.137-.4a11.86 11.86 0 004.259-.032l-.24.368c2.497-.096 5.285-.592 7.987-.768-.975-.096-.804-.703 0-.815l.359.511c.496-.351-.838-.144.188-.607 1.026 0 .701.56.137.767l1.214-.224c0 .144-.205.24-.273.432.495-.336 2.018.496 2.719 0v.16c.987.049 1.97.161 2.941.336.874.129 1.732.332 2.566.608.222-.416.94 0 1.71-.112 1.402.735 2.77 1.823 4.48 2.75 1.3.464.548-.144 1.232 0-.137.4 1.574 1.36.53 1.104a44.948 44.948 0 005.49 2.702c-.188-.304-.479-.544-.24-.576.531.224 1.027.768.839.896h-.154a39.208 39.208 0 015.13 2.655c.87.465 1.787.85 2.737 1.151l.701.144 1.095.176a8.732 8.732 0 001.847 0h-.24 2.224c.513.16.325-.432.342-.768v-1.12c.222-1.886.24 1.392.615.097 0-.672 0-1.28-.12-1.871-.12-.592 0-.88 0-1.295a13.127 13.127 0 010-1.6 11.345 11.345 0 000-3.198 4.56 4.56 0 00.685-2.399v-1.359a.783.783 0 01.342 0h1.317l-.188-.256c.632-.352.838 0 1.334 0-.086-.208-.753-.176-.36-.368a74.847 74.847 0 018.808-.847l4.703-.208a4.789 4.789 0 002.001-.334 4.508 4.508 0 001.642-1.121 3.708 3.708 0 00.787-1.711 10.78 10.78 0 000-1.935c0-2.031-1.608-1.104-.975-3.678l.598.72c-.838-4.063-.29-8.348-1.009-12.314.137.224.308.224.325.623a4.144 4.144 0 00-.427-3.198c0-.623.291-.144.445-.544.205-.847-.599-2.094-.206-2.558 0 0 .137.224.171.384-.205-.544 0-2.575-.496-2.031.171-1.503-.308-2.863 0-4.062-.564-.768.154-2.575-.598-2.799.769.08.53-2.638.119-3.582.257.32.223-.831.548-.464 0-1.087-.223-2.062-.616-1.87.855-2.015-.889-3.982.257-5.134a142.252 142.252 0 01-1.215-9.05c.787.08.206 3.197 1.009 3.038a33.068 33.068 0 01-1.06-7.005c0-.72.359.384.496.624-.428-2.735-.12-5.31-.633-7.724 0 0 .154.256.223.512 0-.48 0-1.12-.274-1.056l.12.464c-.496.784-1.146-1.871-1.403-1.95 1.026.783.154-2.416 1.471-1.168a1.76 1.76 0 00-.188-.464c0-.176-.188-.32-.308-.24 0-.704 0-1.023.445-.288a2.628 2.628 0 00-.3-1.073 2.794 2.794 0 00-.726-.878 5.49 5.49 0 00-1.711-.991c0-.144.582 0 .924 0a5.463 5.463 0 00-1.967-.272l-1.112.112a6.154 6.154 0 01-.957 0c0-.096-.103-.224.325-.24-2.412.176-4.071 1.055-6.739.896.753-.736-.906-.176-1.077-.768l-1.42.24.53.304c-1.126.218-2.27.352-3.42.4l.907-.304-2.258.24 1.334.16c-1.249.367.188.751-1.488.655.325-.08-1.248 0-1.915-.272a4.431 4.431 0 01-2.172.336c-.24-.176.17-.672 0-.784-.582.528-2.908.256-3.66.816a.39.39 0 00.197-.223.36.36 0 00-.026-.289l-.496.432c-.582-.112-.684-.176-.599-.416-1.71 0 .599.736-1.488.48.154 0 0-.096.41-.176-2.069-.08-3.984.416-5.9.272-.598-.576 1.71-.192.992-.688a88.618 88.618 0 01-8.329.848h.496c-.342.863-1.983-.368-3.317 0 .325 0 .41-.48.325-.384a44.97 44.97 0 00-6.465.624l.325-.224c-1.078-.16-2.822 0-3.985-.128-.342.224-1.009.192-.599.496-3.591-1.168-6.84.767-10.004-.24.376 0 .906-.192.598-.192l-2.685.224c.205.368.342.224.924.496-.527.262-1.114.4-1.71.4 1.214-.24 0-.592-.548-.784.103.112 0 .24 0 .352-1.42-.656-.24.735-2.172.303l.103-.192a8.757 8.757 0 01-2.172.304c-.308-.431.77-.192.82-.543-1.094 0-2.154.8-3.146.383.462-.128 1.146-.128 1.607-.24a3.773 3.773 0 00-2.052-.335l-1.847-.224.479.144c-1.385 1.103-2.788.192-4.635.911 1.796-.687.291-.4.428-.88-.462-.143-1.18-.287-.975-.431-.872.384-1.454-.304-2.685.256 0-.16-.924 0-.736-.416-1.128.112.274.272.172.464-1.71.512-4.088-.688-6.602 0-2.172.272-2.582.783-4.6 1.007-.667-.256.564-.543.564-.543a7.05 7.05 0 00-2.942 0c.205-.144 0-.256-.308-.432-.838 0-.564.543-1.71.304.237-.254.52-.465.838-.624-.975.128-1.95.4-2.959.528-.256-.288.616-.4.975-.576-1.128.096-2.941.176-3.3.608l.718.16c-.41 0-.188-.368.12-.432.974-.32 1.385.176 1.436.336h-.718c.718.927 2.89 0 4.344 0l-.633.655 1.505-.527c.308.175.513.56-.205.64 1.043.383 1.043-.177 1.881.191.103 0 0 .096 0 .112l1.01-.176c-.189.144.17.48-.463.368 1.813.416 2.96-.448 3.626 0h-.154c2.531-.176.257-.48 2.155-1.024l1.266 1.216.273-.384c.257 0 .77 0 .667.256.975-.336-.154-.224.41-.528 1.25.464 3.421-.176 3.729.608.462-.368-1.197-.304.154-.544.376.832 1.54-.144 2.685.256-.36.432-1.437.192-.29.576.7-.72 2.223.176 3.197 0 0-.576 2.104-.24 3.729-.432a36.45 36.45 0 004.532.56v.096c.29-.576 1.847-.48 2.976-.608 0 .352-.24.496-.855.656h1.077a2.423 2.423 0 011.266-.368l-.274.448a22.436 22.436 0 014.686-.272c.103-.416-1.454-1.12.462-1.424 0 .224.154.608-.36.704.295-.104.612-.137.924-.096l-.752.368c.82.16.427-.304 1.094-.288 0 .32.479.224.394.48-.086.256-.582-.128-.838 0 .685.01 1.358.169 1.966.464 0-.176 0-.432.547-.48 1.42 0 .48.384 1.317.528.342-.224 1.249 0 1.266-.496.41 0 .496.224.667.352.718-.224 3.42-.128 2.582-.608h-.188.12c2.394-.496 4.994.16 7.388 0v.144c1.405-.08 2.8-.268 4.173-.56.41 0 1.01.272.821.464a6.644 6.644 0 012.788-.128c-1.078.32.393.24-1.112.24a6.274 6.274 0 003.25-.144c-.496.416 1.094.48 1.71.336l-1.01-.256a13.293 13.293 0 012.087 0l-.342.544c2.925.543 5.13-1.296 7.44-.304.735-.4-1.59-.192-.924-.656a19.91 19.91 0 013.164.704c1.847.208 1.71-.848 3.592-.736-.257-.176-.513-.672.906-.911 1.42-.24 1.71.703.838.895-.308 0-.462 0-.462-.08-.427.096-.992.192-.444.384l.154-.208c.684.176 2.514 0 2.103.384.992-.224.41-.336-.342-.384 1.71.176 2.668-.128 4.447 0-.291-.096-.565-.304-.291-.32 2.6.112 1.112-.416 2.856-.591 1.009.24-.308.703 1.437.367 1.077.144.256.496-.154.672a10.573 10.573 0 013.916.096l-.821.192c.462-.112 1.061-.144.941-.144s0-.24-.137-.368c.24 0 .257 0 .24.224a1.53 1.53 0 00.153-.448.528.528 0 01.138-.293.586.586 0 01.29-.17c.137.127.393.191.547.383a.322.322 0 01.032.444.366.366 0 01-.134.1c0-.464-.206-.336-.308-.192-.103.144-.274.24-.445.16.103 0 .171.08.137.208a.146.146 0 01-.154 0c-.188.24 0 .128.171.24.171.112.496.432.513 1.375-.308-.224-.547.464-.479.784 0-.784.496-.384.753.32-.188 1.247.222 1.327.222 1.982V8.9c.308.24.291.847.428 1.71-.24 0-.206-.783-.291-.463.564.944-.479 2.175 0 3.502-.171.624-.564.08-.684.624.444 1.487-.359 1.6 0 3.198.393-.463.291-.527.735.56l-.359-2.815.65 1.6c0-.784-.325-1.6-.274-2.111.377.783.274.703.582.32-.565 1.087.444 2.094 0 3.342h-1.009c-.376 1.87.65 3.198.479 5.693l.136-.784c.428.304.12 1.487.308 2.255-.342 0-.444.432-.65.768.257 0 0 1.759.736 1.966l-.411 1.088c-.102 1.95 1.044 2.19.992 4.062-.376-.56-.581.304-.889-.944 0 .624 0 1.184.205 1.184-.205.383.513 1.727.223 2.302.153.256.513.336.513 1.04 0 .08-.171 0-.171 0s.256 1.087.615.464c-.975 1.95.274 5.373-.564 7.068.154 1.36.325 2.99.393 4.221-.102 0-.171 0-.137-.223-.256 1.71 1.009 1.007.719 2.958-.496 1.023-.325-1.007-.513-.384-1.095.304.239 2.335-.36 3.662v-.32c-.342 1.008.514 2.415.496 4.062 0 0-.102-.08-.171 0a16.386 16.386 0 011.095 4.798c-.462-.464-.257-.704-.684-.384 0 .688.701-.24.872 1.167-.222.464-.393 1.488-.855 1.6v-1.328c-.581.704 0 1.711 0 2.415h-.274c.12 1.967.924 2.287.753 3.614h.239c.223.624-.137.752-.393.72a1.132 1.132 0 00-.459.005 1.084 1.084 0 00-.413.187 3.64 3.64 0 01-.445-.592 3.554 3.554 0 01-.684.24l-1.112.335a21.44 21.44 0 01-2.411.608 21.347 21.347 0 013.557-1.375 9.983 9.983 0 00-3.198.72 2.35 2.35 0 011.077-.24 8.977 8.977 0 01-3.916 1.151c.137-1.247-4.344.16-5.66-.656-.85.23-1.72.38-2.6.448l-1.95.16-2.326.16c-.086.96-.171 1.951-.257 2.958l-.102 1.216v.96c1.077-1.088 0 .927 1.026.783v1.087l-.735 2.24c-.325.51-.188-.72-.428-.657-.154 1.6-.479.656-.804 1.728.377-.208.513.591.325 1.519l.547-1.296c.085.434.085.878 0 1.312 0 .303-.188.64-.29.623-.103-.016-.445 0-.188.4a2.497 2.497 0 00-.308-.368.42.42 0 010 .192h-.564a4.4 4.4 0 00-1.215.144c-.17-.176-.342-.496.154-.432-2.497-.767-6.123-1.599-7.833-3.102l.325-.096c-.496-.192-1.06 0-1.522-.624.085 0 .325-.096.12-.24a5.512 5.512 0 01-2.035-.879l.684.096c-2.31-1.727-4.225-1.743-6.516-2.719.376-.623-1.71-1.887-2.805-2.414a19.191 19.191 0 00-9.68-.992 12.776 12.776 0 00-4.635-.304 48.24 48.24 0 01-5.37.176c.496.096 0 .56-.581.672-.582.112-2.001.624-1.95 0h.274c-.616-.592-2.121-.32-3.301-.256l-.137.864c-3.181-1.024-8.09.927-9.85 0-.753.24-1.711.287-2.412.527v-.447a51.058 51.058 0 00-5.678.16l.513-.336c-1.437 0-1.71 1.375-3.113 1.439l-.427-.656c-2.532 0-5.131-.448-7.577.224 0-.112.103-.304.513-.336-1.18 0-4.6-.384-4.156.544 0-.608-2.6 0-3.967.24l.205-.448c-.564.288-.89.48-1.214.608-.333.167-.7.266-1.078.288-.24 0 0-.352.223-.24-.462-.176-.719.16-1.249.224a1.109 1.109 0 010-.528.71.71 0 00.308 0c0-.64-.154-.448-.53-.816a2.996 2.996 0 010-1.343c0-.512.222-.96.444-1.055a1.769 1.769 0 01-.507-.731 1.666 1.666 0 01-.074-.868c.154-.096.274.16.325.287.222-2.063-.718-3.022-.308-4.445a.383.383 0 00.175-.093.347.347 0 00.099-.163c0 1.599.12 2.942 0 2.814.444 0 .444-1.327 1.111-.32a10.132 10.132 0 01-1.043-4.093.45.45 0 01.137-.176v.128a1.757 1.757 0 00-.103-.8 7.719 7.719 0 000-1.071c.342-.16.12-1.503.12-2.16-.479 0-.445-.783-.804 0 0-.111 0 .113.103.56-.012.09-.012.182 0 .272 0 .432 0 .992.102 1.6a2.117 2.117 0 01-.33-.863 2.07 2.07 0 01.074-.913c-.325-.32-.667-.687-.821-.879.633-.928.923-2.67 1.334-2.926-.342-1.983-.36-4.702-1.3-5.933-.137-.56.24-.656.376-.88.043.306.124.607.24.896-.274-1.136-.205-3.374-.838-3.63.24-1.44.598.8.444-1.168l.189.256c.906-3.886-1.71-6.268-.565-10.586 0 .304-.102.448-.205.512.462-4.91-.718-10.091.171-14.936.171-1.376-.24-1.52-.547-2.367l.513-.304-.394-1.327c-.444-2.031 1.266-3.535.445-6.11l-.274.305c0-.928-.188-2.927.206-2.767a.592.592 0 01-.22-.304.555.555 0 01.014-.367h.274l-.513-2.303c.222-1.76 1.077.288 1.163-2.287-.103-.96-.77-2.719-.924-2.367-.153.352-.17.976-.444 1.008l-.171-.8c-.787-.24-1.59-.927-2.172 1.215l.462 1.504-.377.48V4.533a1.685 1.685 0 00.154 1.6c-.22.151-.372.373-.427.623l.752 1.487c-.308.176-.616-.672-.787.32.343.688.702-.656.924.48-.36.72-.667.511-.36 1.343-.204.128-.324 0-.41-.384.24.752 0 1.983.513 2.367-.461.832.086 2.607-.667 2.527.359.652.574 1.364.633 2.094-.906-1.263 0 2.575-1.009 2.24.804.927.376 3.357.838 5.005 0-.096-.205-.272-.154-.416a6.767 6.767 0 01-.461 1.79c.667.113.838 1.6 1.265 2.336-.633 1.135-.804-.688-1.42-.32.548 0 .565 1.967 1.027 1.599-.394.88-.188.752-.736 1.215.838.144.154.8.667 1.52-.393 1.263-.77.335-.496 1.71-.256.544-.564-.687-.564-.687zm2.463 32.814v-.671c-.052.144-.034.336 0 .671zm.137 2.767v-1.2c.153-.111.325 0 .342.272-.154-.143-.223.528-.342.928zm3.06-5.965c0 .432 0 .576-.102.64v-.752c.04.032.075.07.103.112z" fill="#DC362E"/><path d="M4.994 61.847a1.495 1.495 0 010-.191 1.66 1.66 0 00-.086.272l.154.143s-.068-.16-.068-.224zM60.833 4.87a.365.365 0 01-.137 0s.103-.016.137 0zM35.539 78.782l-.017-.111-.257.111h.274zm9.03-75.255s0-.08-.206-.112a.775.775 0 00.206.112zm-6.944-.08l-.992-.16.992.16zm-5.438-.24a.348.348 0 00-.12.192l.12-.192zm81.475 5.789a.77.77 0 000 .192c.137.415.103.112 0-.192zM92.353 2.6c.261-.103.53-.188.803-.257-.444-.096-.803-.08-.803.256zm22.864 32.974h-.016l.016.16v-.16zM94.336 2.215a3.179 3.179 0 00-1.18 0 4.15 4.15 0 001.18 0zm-85.785.496h-.29c.119.048.29.048.29 0zm-.906.144l.615-.096c-.222 0-.479-.032-.615.096zm8.312.175l.085-.159a.296.296 0 00-.086.16zm2.171-.015a8.012 8.012 0 00-2.018-.272v.128c.274-.272 1.523.416 2.018.144zm9.031 2.127l-1.83-.144c.325.176.735.416-.086.448 2.292.543-.479-.4 1.916-.304zm5.643.288c-.992 0 0 .255 0 .351.565-.16.718-.191 0-.351zm40.738-.512v.416c.701-.08 0-.16 0-.416zm7.73-2.367l-.735-.224-.342.384 1.077-.16zm4.72 2.735l-.325.08 1.249-.208-.924.128zm25.278 37.835l.53-.24c-.12-.463-.633-.543-.53.24zm1.505 26.914c-.291 0-.633.16-.718.416.359 0 .821-.192.718-.416zm-69.675 4.27l.564-.208-1.094.208h.53zM24.046 30.216c-.188.144 0 .448.513.368l.376-.56-.889.192zm3.916.784c.65-.288 1.403-.768.941-1.231-.633.543-.804.336-1.488.975-.581 0-1.009-.128-.923-.32-.206.144-.907 0-1.198.272a3.332 3.332 0 002.686 0c.222.064.017.208-.018.304zm90.677-1.567c-.274 0-.376 0-.393.128.239-.048.444-.08.393-.128zm5.917.527h-.342c.137.017.274.049.342 0zm-40.6-.175l.923.144c.069-.144-.479-.144-.923-.144zm-48.349-.416c-.172.031-.34.085-.496.16l.462-.08.034-.08zm33.076 1.279h-.274l-.222.224.496-.224zm-11.733.464c.274 0 .343-.432.445-.64a.932.932 0 01-.564.336c.006.11.048.216.12.304zm20.13-.624a.38.38 0 00.103.16.184.184 0 00-.03-.092.2.2 0 00-.073-.068zm-54.847 12.41h.085c.086 0-.085-.08-.085 0zm2.822-12.666v.176a.727.727 0 00.256 0l-.256-.176zm106.514 1.153c-.087-.194-.052-.113 0 0zm-17.787 68.762c1.146.384-1.83.56-.12.96-.171-.16 1.54-.704.12-.96zm19.462-45.767a.72.72 0 00.188-.24s-.034.064-.188.24zm-.307-17.415v.432a2.395 2.395 0 000-.432zm1.488 26.402c-.052.21-.052.429 0 .64v-.097a.73.73 0 010-.543zM22.421 71.57c.113-.167.258-.313.428-.431-.342.224-.496-1.232-.428.431z" fill="#DC362E"/><path d="M35.624 29.625a.34.34 0 01.115-.141.373.373 0 01.176-.067h-.342c-.017.112-.017.176.051.208zm102.614 33.934v1.503c.035-.416.035-.96 0-1.503zm-78.876 43.976l-.12-.336a.67.67 0 00.12.336zm79.167-38.043a2.662 2.662 0 00-.291.847c.042.061.087.12.137.176l.154-1.023z" fill="#DC362E"/><path d="M21.566 61.272c0 1.423.633.656.992.96.188 1.71-.462.799-.787 1.375.308.876.565 1.768.77 2.67-.103 0-.154.224-.274 0 .496 1.12.086 3.342.736 4.638 0 .112-.103.16-.154.176.122-.09.262-.153.413-.19.15-.035.306-.041.459-.018 0 .64.427 1.167 0 1.423 0-.4-.171-.416-.29-.608l.187.672c-.581.624-.222-.912-.667-.896.362 1.243.574 2.52.633 3.806-.581.24-.274-2.334-.753-.975l.172-1.6c-.873 1.216 0-.943-.907.177-.102 2.047.376 2.27.274 4.317.342.448.479-.16.82.288.702 2.863-1.367 2.335-.495 4.43.427.528 1.163.704.872 2.239l-.701-.48c0 1.983 1.009 1.087.7 3.198-.29-.352-.307-1.599-.375-1.231-.445 1.375.427.927.496 1.95l-.565.257c.24 2.095.838 4.381 1.146 6.7-.17-.112-.393-.496-.53 0 .266 1.513.426 3.041.479 4.574v3.55c0 .687 0 1.359.12 2.015.12.655.461 1.087.684 1.599 0 .16.102.144.17.16a.21.21 0 01.137.08s0 .144-.342.192c1.984.16.36-.304 1.454-.496 1.095-.192 1.351.256.53.4l1.54-.16h1.282a43.22 43.22 0 012.19-.24 15.332 15.332 0 014.087.128l-.428.144c1.71.176 1.916-.976 3.506-.56l-.308.096c3.712.176 7.799-.304 10.62.384.531-.672 3.678.272 3.9-.672a21.18 21.18 0 004.498.912c.163.039.333.039.496 0l.137-.224a.662.662 0 01.245-.232.723.723 0 01.336-.088l-.307.464a.883.883 0 01.718 0 2.155 2.155 0 01-.53.495l.188.416c0-.448.188-.448.325-.512.108.272.165.559.17.848.027.362.027.725 0 1.087 0 .672-.204 1.184-.324 1.216l.992 2.814c-.223 0-.377-.559-.582-.959.787 1.599-.496.368.223 1.855.085-.224.325 0 .427.096-.03.25-.03.502 0 .751v.24a3.7 3.7 0 000 .416l.103.896c0 .623.17 1.295.29 1.887.12.591.325 1.039.462 1.599h-.376l.171.719.103.368V121s0 .128.12 0l1.71-.512a18.8 18.8 0 003.283-1.231 11.89 11.89 0 002.685-1.583c.633-.448 1.198-.944 1.71-1.407-.94.559-1.145 0-.547-.64l.633.16c.188-.592-.804.448-.257-.576.838-.672.992 0 .65.48l.821-1.008c.188 0 0 .32.103.512.17-.592 2.018-1.167 2.103-2.063h.171a38.155 38.155 0 014.242-3.966c-.257-.399.462-.751.787-1.359a40.943 40.943 0 014.925-1.487c1.214-.56.274-.464.787-.88.205.368 2.07 0 1.163.432 2.257-.496 2.89-.592 5.883-1.231-.342-.144-.735-.176-.547-.336.547-.112 1.282 0 1.214.256h-.137c3.42-.912 8.055.591 10.74-.384h-.154l2.822-.432c1.317 0-.769.336.223.544 3.044-.8 4.857 0 7.388-.56 1.984 1.152 6.978-.16 9.611.656l-.119-.272c.684-.272.821.16 1.317.24 0-.224-.736-.272-.308-.416a59.992 59.992 0 018.91.384l1.129.128h1.488a4.99 4.99 0 002.028-.363 4.715 4.715 0 001.666-1.14 4.567 4.567 0 00.872-1.679 7.225 7.225 0 00.239-1.807v-2.207c0-2.047-1.71-1.072-1.06-3.694l.599.703c-.907-4.094-.462-8.443-1.266-12.457.154.224.325.224.342.624.359-.88-.171-3.199-.496-3.199 0-.64.291-.16.445-.56.188-.879-.65-2.126-.274-2.606 0 0 .154.24.188.4-.222-.56 0-2.607-.53-2.047.137-1.6-.376-2.895-.171-4.126-.564-.767.103-2.607-.65-2.814.77 0 .462-2.703 0-3.647.257.32.188-.847.53-.48 0-1.087-.273-2.094-.649-1.886.803-2.063-.975-4.014.136-5.213a134.26 134.26 0 01-1.385-9.148c.77.08.257 3.199 1.06 3.07a34.143 34.143 0 01-1.197-7.083c0-.72.342.383.496.623-.479-2.766-.239-5.373-.804-7.82 0 0 .171.272.24.512 0-.48 0-1.135-.291-1.055l.12.463c-.462.8-1.163-1.87-1.437-1.95 1.043.767.103-2.447 1.454-1.2 0-.304-.291-.751-.513-.655 0-.512.137-.704.462-.192a3.534 3.534 0 00-.633-1.6c-.222-.287-.274-.543-.941-1.599.137-.096.496.304.77.448-1.004-1.118-2.432-1.829-3.985-1.983.12-.08 0-.24.462-.16a12.52 12.52 0 00-3.592.32 13.824 13.824 0 01-3.523.16c.787-.704-.923-.224-1.06-.816l-1.454.192.582.272c-1.13.184-2.274.275-3.421.272l.941-.256-2.377.144 1.351.208c-1.283.32.136.752-1.54.608.342 0-1.282 0-1.932-.336a4.675 4.675 0 01-2.206.272c-.257-.192.188-.672 0-.784-.599.496-2.959.176-3.746.72.05-.02.095-.05.132-.088a.364.364 0 00.102-.28.342.342 0 00-.046-.144l-.513.416c-.581-.128-.684-.176-.581-.432-1.71 0 .564.752-1.539.448.171 0 0-.096.427-.16-2.103-.128-4.053.32-6.003.16-.581-.592 1.71-.176 1.026-.672-2.787.16-5.763.832-8.465.752h.513c-.36.863-2.018-.368-3.42 0 .341 0 .427-.48.341-.384a42.39 42.39 0 00-6.567.64l.342-.224c-1.094-.176-2.873 0-4.053-.112-.342.224-1.026.208-.599.511-3.677-1.151-6.84.864-10.159-.08.394 0 .924-.223.616-.207l-2.668.463c.223.368.36.208.94.48a3.87 3.87 0 01-1.71.448c1.232-.288 0-.592-.564-.784.086.112 0 .24 0 .352-1.47-.608-.222.752-2.189.368v-.192a9.594 9.594 0 01-2.172.368c-.342-.416.77-.224.804-.576-1.112 0-2.155.896-3.181.496.479-.128 1.146-.16 1.607-.288a4.058 4.058 0 00-2.086-.384l-1.881-.16.479.128c-1.334 1.152-2.805.304-4.652 1.104 1.71-.768.29-.416.41-.912-.479-.112-1.214-.24-1.026-.384-.855.432-1.488-.24-2.702.368 0-.144-.94 0-.77-.368-1.128.16.291.256.206.448-1.71.608-4.19-.48-6.704.368-2.173.384-2.566.927-4.584 1.28-.701-.225.53-.592.53-.592a7.138 7.138 0 00-2.976.127c.206-.143 0-.255-.359-.415-.838.08-.53.591-1.71.415.22-.27.492-.498.804-.671-.975.192-1.933.527-2.959.72-.29-.256.599-.448.94-.64-1.128.176-2.958.383-3.283.831l.736.112c-.41 0-.223-.352 0-.447.974-.384 1.436.08 1.505.24l-.736.127c.804.88 2.925-.272 4.395-.288l-.581.688 1.47-.624c.343.16.565.528-.153.656 1.077.288.923-.272 1.847 0 .102 0 0 .096 0 .128l1.026-.256c-.205.16.188.464-.445.4 1.864.304 2.942-.624 3.66-.144h-.154c2.549-.336.223-.512 2.121-1.151l1.351 1.151.222-.512c.257 0 .787 0 .702.224.957-.368-.171-.208.376-.544 1.3.4 3.42-.351 3.814.416.444-.384-1.232-.24.12-.543.427.815 1.556-.208 2.736.143-.342.448-1.454.256-.274.592.667-.752 2.275.08 3.25-.096 0-.591 2.103-.32 3.745-.575a40.18 40.18 0 004.635.383v.096c.273-.591 1.847-.543 2.993-.703 0 .351-.24.511-.856.687h1.078a2.475 2.475 0 011.283-.384l-.257.432c1.56-.284 3.15-.402 4.737-.352 0-.415-1.522-1.103.428-1.439 0 .224.171.608-.342.704.3-.103.622-.141.94-.112l-.769.4c.838.128.428-.336 1.095-.32 0 .32.513.208.427.463-.085.256-.599-.111-.855 0a5.121 5.121 0 012.001.432c0-.176 0-.431.53-.48 1.437 0 .513.368 1.351.512.342-.24 1.266 0 1.266-.511.427 0 .513.224.684.335.735-.224 3.42-.143 2.617-.623h-.206.137c2.412-.528 5.13.144 7.474-.112v.24c1.42-.08 2.832-.256 4.224-.528.428 0 1.026.256.838.448a6.63 6.63 0 012.822 0c-1.112.288.393.24-1.129.224a6.378 6.378 0 003.404-.272c-.513.416 1.094.495 1.71.352l-.872-.224a15.689 15.689 0 012.12 0l-.359.527c2.942.608 5.268-1.183 7.508-.128.77-.383-1.59-.24-.906-.687 1.089.177 2.159.444 3.198.8 1.847.271 1.71-.8 3.643-.624-.257-.192-.496-.688.957-.896 1.351 0 1.711.784.821.944-.325 0-.496 0-.479-.096-.427 0-1.009.16-.461.352l.222-.192c.667.192 2.531.144 2.086.463 1.027-.192.445-.32-.324-.4 1.71.257 2.719 0 4.497.145-.29-.096-.547-.32-.273-.32 2.616.208 1.163-.368 2.924-.464 1.009.272-.359.688 1.42.432 1.094.192.239.496-.188.655a5.698 5.698 0 012.206 0c.547.112.889.368.838.4a.57.57 0 01-.274.096h.291a.735.735 0 00.103-.384c.102.112.171.176 0 .288.134-.08.25-.183.342-.304a.452.452 0 01.244-.193.491.491 0 01.32.001c0 .256.718 1.232.188 1.504 0-.816-.205-.688-.342-.592-.137.096-.325.16-.513-.224a.976.976 0 01.188.688s-.12 0-.171-.112c-.12.687 0 .911.257 1.087.256.176.496.432.547 1.407-.308-.24-.547.48-.462.784 0-.784.479-.4.753.32-.154 1.263.256 1.343.273 1.999v-.752c.308.24.308.864.462 1.743-.239.08-.222-.783-.308-.48.599.944-.427 2.223 0 3.55-.171.64-.564.097-.684.656.479 1.488-.308 1.6.103 3.199.376-.48.273-.56.735.543l-.427-2.606.684 1.599c0-.8-.359-1.6-.308-2.143.376.784.274.704.581.32-.547 1.103.479 2.127.137 3.39h-1.009c-.342 1.903.701 3.31.599 5.757l.119-.8c.428.32.154 1.504.36 2.287-.342 0-.445.448-.633.8.256 0 0 1.775.769 1.967l-.376 1.103c0 1.983 1.078 2.207 1.078 4.11-.411-.56-.599.32-.924-.944 0 .64 0 1.2.24 1.2-.189.383.547 1.727.256 2.334.171.256.53.32.53 1.04h-.154s.291 1.103.616.464c-.941 1.999.393 5.437-.41 7.164.188 1.375.393 3.038.478 4.286-.102 0-.154 0-.136-.24-.223 1.743 1.026 1.023.786 3.006-.479 1.023-.359-1.04-.53-.4-1.094.336.291 2.367-.274 3.726v-.32c-.324 1.024.565 2.447.565 4.094h-.154a17.73 17.73 0 011.18 4.798c-.462-.48-.274-.72-.701-.384.102.704.701-.256.906 1.167-.205.48-.359 1.504-.821 1.6l-.102-1.328c-.565.704.119 1.727 0 2.43h-.274c.205 2.048.872 2.048.958 4.239l.188-.224c.359.56.256.831.137.991a.96.96 0 00-.206.848 3.428 3.428 0 01-.701-.176 1.12 1.12 0 01-.297.507 1.24 1.24 0 01-.524.308l-.427.128-.616.08c-.416.023-.832.023-1.248 0a8.8 8.8 0 011.71-.479c.179-.036.349-.107.496-.209.148-.103.27-.233.359-.383a1.947 1.947 0 01-.752.224c-.484.009-.963.09-1.42.24a2.93 2.93 0 011.112 0 9.507 9.507 0 01-4.122.559c.359-1.215-4.378-.463-5.592-1.423-2.993.4-5.935-.272-9.441-.16 1.249.944-1.026 0-.787 1.024-.395.07-.801.07-1.197 0l-2.36-.496c-.581-.272.77-.224.701-.448-1.71 0-.769-.4-1.949-.624.239.352-.616.512-1.711.416l1.437.416c-2.463.592-2.172-.768-4.669-.144l.787-.336c-1.283.224-4.772.208-5.969 1.088-.24-.096-.564-.352 0-.464-3.096.08-6.738 1.295-9.201 1.071l.205-.271c-.581.127-.958.559-1.71.399 0-.096.205-.256 0-.24a7.701 7.701 0 01-2.275.608l.599-.368c-3.147.208-4.6 1.599-6.944 2.639-.273-.688-2.736.144-3.899.783v-.111c-3.335 2.062-4.412 4.397-6.43 6.684a22.974 22.974 0 00-3.42 2.383c-.343.224-.668.479-1.01.671-.075.05-.155.093-.24.128h-.547a1.546 1.546 0 01-.24.464c-.136.208-.358.432-.358.336 0-.096-.103-.256-.188-.384-.086-.128-.086-.256.222-.432v.096c.178-.164.328-.352.445-.559v-.656c0-.304-.103-.608-.137-.88h-.924a11.16 11.16 0 00-.462-5.293 25.444 25.444 0 00-.29-1.311 5.797 5.797 0 00-.513-1.775 5.058 5.058 0 00-2.001-1.951 12.542 12.542 0 00-2.07 0 9.307 9.307 0 00-1.231.224v-.448a49.328 49.328 0 00-5.78 0l.53-.336c-1.471 0-1.848 1.327-3.199 1.359l-.427-.671c-2.566 0-5.13-.528-7.713.096.04-.1.113-.184.208-.242a.554.554 0 01.322-.078c-1.197 0-4.686-.416-4.224.512 0-.608-2.651 0-4.037.24l.206-.448a5.69 5.69 0 01-2.84.911c-.393 0-.341-.352.172-.256-1.317-.207-1.01.432-1.967.208l.462-.288a1.411 1.411 0 00-.684.096l-.308.144a.34.34 0 01-.24 0 2.083 2.083 0 01-.09-1.009c.054-.338.19-.661.398-.942a1.862 1.862 0 01-.523-.686 1.75 1.75 0 01-.144-.833c.154-.112.274.144.342.272.103-2.095-.872-3.022-.547-4.478a.348.348 0 00.17-.092.313.313 0 00.086-.163c.154 1.599.274 2.958.223 2.83.445 0 .376-1.36 1.094-.368a10.176 10.176 0 01-1.3-4.094.452.452 0 01.137-.175v.127a1.84 1.84 0 00-.154-.815 5.69 5.69 0 000-1.072c.343-.176 0-1.599 0-2.19-.478 0-.461-.784-.786 0 0-.096 0 .128.102.56v.287c0 .432.103 1.008.171 1.6a2.163 2.163 0 01-.154-1.76c-.324-.32-.666-.671-.837-.88.615-.943.855-2.702 1.248-2.974-.393-1.999-.479-4.797-1.42-5.98-.153-.576.223-.672.36-.896.04.306.12.607.24.895-.275-1.135-.24-3.39-.873-3.646.222-1.47.598.8.427-1.199l.206.272c.872-3.95-1.813-6.397-.582-10.73 0 .303-.102.463-.205.527.496-4.973-.599-10.234.376-15.128a3.404 3.404 0 00-.496-2.398l.513-.304-.564-1.455c-.393-2.08 1.351-3.55.599-6.173l-.36.336c0-.944-.102-2.975.291-2.815a.572.572 0 01-.205-.309.542.542 0 01.034-.362h.274l-.377-2.303c.257-1.791 1.06.304 1.215-2.287 0-.975-.684-2.782-.872-2.43-.189.351-.206.99-.48 1.007l-.102-.896c-.804-.176-1.59-.895-2.223 1.264l.427 1.599-.41.48v-1.28a1.69 1.69 0 00.102 1.695c-.224.15-.383.372-.444.624l.7 1.52c-.307.175-.58-.688-.786.303.325.72.719-.64.907.512-.394.72-.667.495-.394 1.359-.205.112-.342 0-.41-.4.222.752 0 2 .445 2.415-.462.736 0 2.559-.702 2.463.319.646.515 1.338.582 2.047-.89-1.28-.12 2.622-1.078 2.254.787.96.308 3.422.736 5.102a.644.644 0 01-.154-.432 6.971 6.971 0 01-.445 1.823c.667.128.804 1.599 1.214 2.383-.65 1.151-.77-.704-1.402-.352.547 0 .53 2.015.992 1.599-.41.88-.205.767-.752 1.215.837.16.136.832.666 1.6-.41 1.279-.786.335-.53 1.742-.256.56-.564-.687-.564-.687zm2.89 33.294v-.688c-.085.16-.051.352 0 .688zm.274 2.799c0-.336 0-.768-.103-1.216.154-.112.325 0 .342.272-.12-.144-.154.528-.24.944zm2.787-6.141c.103.432 0 .592 0 .655 0-.207 0-.447-.136-.767a.59.59 0 01.136.112z" fill="#DC362E"/><path d="M26.817 90.552a.535.535 0 010-.176 1.754 1.754 0 00-.103.272l.17.144-.067-.24zm31.981 15.992v-.112h-.12l.12.112zm8.226-77.894a.526.526 0 00-.222-.113s.102.064.222.112zm-7.166.143l-1.009-.128c.333.064.67.107 1.01.128zm-5.421-.032a.515.515 0 00-.103.192l.103-.192zm81.681 7.692v.192c.154.464.102.16 0-.192zm-20.609-8.683c.258-.088.521-.163.787-.224-.428-.032-.787-.032-.787.224zm22.728 35.629h-.016l.016.16v-.16zm-20.693-35.853a3.1 3.1 0 00-1.214 0c.404.04.811.04 1.214 0zm-87.102 2.079h-.29c.136.048.256.048.29 0zm-.906.16l.615-.144a.883.883 0 00-.615.144zm8.447-.352v-.16a.179.179 0 000 .16zm2.19-.144a8.93 8.93 0 00-2.052-.16v.144c.257-.272 1.573.32 2.052.016zm9.27 1.631h-1.847c.325.16.752.368 0 .448 2.274.384-.565-.416 1.847-.448zm5.712.032c-.975.128 0 .256 0 .352.599-.176.752-.224 0-.352zm41.268-1.167l-.103.4c.77-.064.017-.144.103-.4zm7.85-2.271l-.753-.24-.342.384 1.095-.144zm4.703 2.846l-.325.064 1.266-.176-.941.112zm25.465 40.747l.531-.24c-.12-.48-.736-.544-.531.24zm2.138 27.937a1.525 1.525 0 00-.256.655.486.486 0 000 .464c.072-.16.129-.326.171-.496.079-.199.108-.412.085-.623zm-72.548 12.233l.257.544-.29-1.04.033.496z" fill="#DC362E"/></svg>