<svg xmlns="http://www.w3.org/2000/svg" viewBox="0 0 94.66 68.57"><defs><style>.cls-1{fill:#4c8df5}</style></defs><g id="Camada_2" data-name="Camada 2"><g id="Layer_1" data-name="Layer 1"><path class="cls-1" d="M52.93 40.52c.32.66.42.38.17-.19l-.05.06zm-.12.12v-.13c-.07-.06.08.59 0 .13z"/><path class="cls-1" d="M52.77 40.51a.68.68 0 010 .13c.15.91.83 1.3-.08-.35.01 0 .04.09.08.22zm-15.83.8c.12 2.47.33-.16 0 0zm-3.89 1.12s-.08 0-.12.1a.69.69 0 00.15.56c.05-.01.03-.68-.03-.66zm13.12-.85l-.17-.49z"/><path class="cls-1" d="M50.69 35.1c-.31-.45-.23-.15-.11.28s-.08-.11-.16-.22c0 .06.94 2.18.61 1.64s-.73-1.42-1.03-2.17c-.27-.57-.75-1.35-.54-.69s.51.85.85 1.66c-.12.14-.67-1.21-.74-1.12s.14.48.35.91c-.11.13-.61-1.11-.73-1.11s0 .09-.24-.2c-.33-.48 0 .33.22.94s.34.84.27.93l-.72-1.68c-.33-.77 0 .29 0 .48s-.13.14-.18.22a4.48 4.48 0 00.14.73c-.11-.06-1.36-2.87-.67-.81.25.61 0 .23-.1.1-.27-.47-.24-.16-.19.21 0 .7-.15 0-.53-.5s.24 1.19.53 2c-.13-.34-.24-.44-.45-1a2.53 2.53 0 00-.27-.6c-.29-.38-.38 0-.57-.09s-.5-.4-.55-.11a13 13 0 00.58 1.81c-.12-.37-.16-.23-.31-.57s-.18-.48-.26-.74-.15 0-.17 0 0 .39 0 .41-.31-.26-.37-.08.37 1.59.09 1.19-.85-1.74-.88-1.23c0 .21.32 1.93-.14.29a4 4 0 00.13.71c-.68-2.31-.83-1.25-1.07-1.06 0 0-.51.09-.34.83 0 .11-.13-.15-.22-.21s-.23 0-.33.11-.38-.24-.55-.12-.2 0-.08.58c.12.45.12.72.07.76s-.18-.15-.3-.59c-.11-.14-.13.24-.26 0s-.33-1.09-.18-.25a2.45 2.45 0 010 1l-.2-1.26c-.12-.37-.18.85-.23 1s-.21-.18-.33-.31-.41-.84-.31.13c.07.61.11 1 .16 1.6-.14-.44-.32-1.28-.43-1.61-.21-.6.15 1.54.17 1.76a16 16 0 01-.52-2.55c-.16-.61-.16.42-.23.47s-.36-.39-.29.18l.05.47a1.27 1.27 0 00-.05.55l.1 1.18c-.07 0-.37-2.52-.5-2.83s-.34.08-.47.16-.59-.6-.53.92c-.12-1-.43-.34-.54-.39s-.24-.7-.22-.31a8.94 8.94 0 00.16 1.56c0 1.34-.48-1.72-.54-1.46v1.53a7.25 7.25 0 010 1.27c-.08-.37-.14-3.87-.34-2.82-.11.59-.31.05-.41 1-.08.32-.29 1.05-.39.66 0-.94-.28-1.79-.27-.64 0-2.56-.49-1.28-.47 1 0-.57-.07-1.27-.09-1.79-.05-.72-.16-.46-.27-.41s-.37-.4-.36.6c-.06-.51-.19-.59-.3-.54s-.19.5-.26 1.73a14.58 14.58 0 01-.11-1.82 2.45 2.45 0 01-.18 1c.12-1.84-.13-1.34-.31-1.27a19.43 19.43 0 00-.48 2.71c-.08.65-.11 1.47-.19 2.05s-.08-.15-.07-.38c.06-.85.17-1.78.26-2.6 0 .11.19-1.51.14-1.37s-.11.29-.16.25a1.74 1.74 0 000-.45s-.13-.07-.17.28-.11 3.23-.11 3.15c-.09-.37 0-2.8-.32-.94.05.65-.15 1.72-.13 2.44s.46-1.37.42-.57a12 12 0 00-.08 1.74c-.05.67.2-.07.26-.09a10.57 10.57 0 00.38-2.52 7.16 7.16 0 01.22-1.36c0-.06.22-.22.19.18a9 9 0 01-.29 1.21 12.58 12.58 0 00-.16 1.77c.07-1.14.24-.69.37-1.35.14-.05.06.33.13.69s.19.11.27.11 0 .51 0 .89c0 .56.18.5.27.63s.4.77.39 0c0-1.2.06-1.6.25-1.36s.08 1.62.22.7.22.83.29.08c0-.22 0-1 .05-1.74v-1.44c.08.08 0 1.63.08 2.06a8.37 8.37 0 01.2 1.33c-.06 0 0 .47 0 .47s0-.41.08-.5c0-.62.15-.59.21-.57s-.17-1.47 0-1.25a19.29 19.29 0 01.17 2.47c.16.6.27-.52.27-1.32s0-.56.14-.61c0-.06.19.4.17 0 0-.69-.11-1.16.1-.59.18.94-.12.94-.09 2 .17-.26.18.9.32.06.08-.48.4.08.3-1.19 0 .63.14.83.18.34s0-1.09 0-1.66c0-1.08.18.64.21 1 .05.51.16 2.15.28 1.77.07-.23.24-1.07.29.28 0-.93-.21-3.62.09-2.59.16.54.23 2.74.38 1.88 0-.14.07-1.33.14-1.07s.13 1.06.21 1.37.08-.39.17-.43-.06-1 0-1.33c0-.52.21-.16.22-.91 0-.15 0-1.4.12-.43.15.57.33.87.45.79s.1-.59.17-.82.21 2.34.37 2.8 0-1.19 0-1.39 0-.77.1-.27c0-.24-.28-1.81-.24-1.79a28.58 28.58 0 01.53 3.44c.13-.07-.15-1.44 0-1.53.16 1.62.25.3.37.68s.12 1 .24 1 .06-.18.12-.33.24.14.32.08l.39-.24a6.72 6.72 0 01-.27-1.73c0-.49.31.85.4 1.13.12.75.37 1.06.4.7a4.37 4.37 0 00-.32-1.38c-.12-.38.16-1.13.35-.14.36 1.92 0-1.58 0-1.61a6.88 6.88 0 00.37 1.55s.27-.75.32.1c.09.07.12-.83.26-.18.07.3.41 1.21.33.76a9.63 9.63 0 00-.73-2.09 4.38 4.38 0 01-.06-.8c.06-.11.3.78.39 1.11l.54 1.76c0-.34-.06-.69-.08-1-.2-1.25 0-.39.23.21.58 1.47.3-1.29.83.46.07.21-.25-1.61 0-.95 0 .13.56 2 .46 1.21-.06-.41-.41-1.46-.3-1.54a3 3 0 01.37.76s-.33-.67-.13 0c.15.52.38.67.43.63s.23 0 .08-.46-.48-1.45-.58-1.38a6.7 6.7 0 01-.27-1.12c0-.4.23.31.33.53a20.21 20.21 0 01.86 2.35 3.82 3.82 0 01-.19-.93s.33.83.43 1c.25.52.24-.16.25-.45a5.46 5.46 0 00-.08-1.37c-.06-.22-.3-1.22-.12-.83.07.14.24.7.4 1.23.07.27.14.53.2.72a2.24 2.24 0 01.08.34c0-.16-.3-1.4-.26-1.43a4.78 4.78 0 00.39 1c.1.13.28.13.07-.48a2.59 2.59 0 000-1.16c.09-.54.34.53.75 1.18s-.19-1.08-.34-.94a4.86 4.86 0 00-.4-2.25c.25.7.38 1.25.67 2 .18.43.3.7.45 1.08-.41-1.21-.33-1.37-.1-1.38s.57.94.93 1.49c-.27-.72.17-.74.2-.86s-.36-1.19-.23-1.16 1.71 2.57.89.6c.08 0 .82 1.25.58.56s-.4-1.16-.59-1.83c.3.79.58 1.52.84 2.29L50.16 37c.08.2.77 2 .77 2a13.92 13.92 0 00-1.11-2.92 15.78 15.78 0 011.1 2.25c.4.86.06-.1.33.27.13.17.37.79.35.51s-.27-.86-.11-.75a1.49 1.49 0 01.36.24c.12.12 1 1.27.85.86l-.62-1.37c-.49-1.11-.59-1.36-.31-1.13.13.1-.18-.57-.25-.82-.01.25-.58-.68-.83-1.04z"/><path class="cls-1" d="M48.33 39.78l.16.44a3.16 3.16 0 00-.16-.44zm-17.89 1.5c-.07-.17-.19-.31-.22.52s.19.57.3.5v-.91c-.07-.1-.08-.13-.08-.11z"/><path class="cls-1" d="M31.59 36.73c-.05-.8-.2.55-.23-.17s-.44.89-.65 1.13c.11-1 .05-1.08-.11-.76s-.25 1-.4 1.55c.27-1 .16-3.28 0-1.09 0 .77-.21.61-.18 0 0-.76.15-1.38 0-1.32-.1-.67-.35 2.11-.37 2.36a33.8 33.8 0 00-.53 3.58c.08.19.26-.9.3-.32 0 .27 0 1.38.11.84s.12-1.44.2-1.87l.16-.77c-.09.74-.17 1.91 0 1.09.1-.4.35-1.9.41-2.3l-.37 2.82c.14 0 .17-1.18.31-1.39s.17.18.28.26.33-.19.38.53a6.09 6.09 0 00.07 1s.09-1.41.12-1.64c.15 0 0 1 0 1.67a3.87 3.87 0 01.31-1.22c.14-.25.16-.39.22-1.33a21.14 21.14 0 00-.03-2.65z"/><path class="cls-1" d="M30 36.11c.14 0-.06-.42 0 0zm-.34.55c0-1-.35 1.41-.43 1.92a15 15 0 00.22-2.47 10.93 10.93 0 01-.36 1.58c-.09.08-.23.19-.28 0s.11-.52.14-.75c.13-.87-.06-.71-.22.14.05-.68-.37 1.08-.35.39a6.71 6.71 0 01.35-1.47 9.3 9.3 0 00-.72 2.4c.11-.8.2-1.43.38-2.31a18.28 18.28 0 01-.92 2.91c.16-.75.51-2.57.22-2.09-.17.28-.08 1.51-.37 2.06s.34-1.9.18-1.76-.37 1.23-.29.48c0 0 .13-.68.13-.71a9.33 9.33 0 00-.29 1.02 8.71 8.71 0 00.28-2.1c0-.29-.12.18-.22.62.11-.59.13-1 .05-1.07s-.26.56-.4.86-.31.59-.39.59a9.63 9.63 0 01.3-1.31 6 6 0 00-.45 1l-.11.38c-.43 1.5-.5 2.25-.88 3.79s0 .75.18.86.23.86.52.09a6.42 6.42 0 00.39-2.05 22.58 22.58 0 00.82-2.45c-.11.52-.29 1.07-.42 1.63-.06.29-.1.77-.1.77-.09.44-.59 1.89-.44 1.86s.42 1.42.82-.53c0 .21.23.19.29.15s0 .81.08 1 .26.22.46-.23c.41-.93 0 .66.25.62a12.91 12.91 0 01.32-2.18c.1-.37.5-1.78.47-1.08a21.59 21.59 0 01-.63 3.22c.1 0 .43.3.59-.45s.34-2.53.5-2.92a6.92 6.92 0 00.33-2.41zm-4.61 3.64c-.22.35-.29.92-.16.91s.28-.93.16-.91zm.53-3.6h-.07c-.3.57-.35 1.54.07 0z"/><path class="cls-1" d="M24.8 39c.26-1.13.54-2.46.88-3.64a5.48 5.48 0 00-.76 1.52c-.31.91.23 0 .14.25-.18.54-.48.87-.37.28a19 19 0 00.46-1.9c0-1.37-.57 1.76-.72 1.94s.46-2.13.41-2.34-.08-.46-.49.86c-.16 0 .13-.85.11-1.19s-.2-.26-.5.71c.57-1.66-.55 0-.52-.59v-.12c-.19.54-.69 2.1-1 3.13-.28.8-.1.68-.21 1-.06.19-.55 1.73-.23 1.07.18-.38.23-.76.33-.77a.44.44 0 00.19 0 14.48 14.48 0 00.73-1.65c.6-1.17-.78 2.29-.77 2.23-.06.23.6-1.19.48-.57s-.49 1.73-.22 1.55a3 3 0 00.62-1.25c0-.11-.34.39-.25.15.28-.73.61-.71.62-.43a1.39 1.39 0 01-.19.55 5.08 5.08 0 00-.41 1.14c.25-.49.53-1.21.79-1.84-.1.31-.71 2.32-.5 1.95s.42-1.14.57-1.34-.06.47-.06.57c0 .6.78-2.35.21.13-.17 1-.16 1.41.27.42s-.19 1.47.17.49.92-2.79 1.26-4c.78-2.72-.72 1.01-1.04 1.69z"/><path class="cls-1" d="M23.45 34.8a.57.57 0 000 .12s.13-.46 0-.12zm-5.2 2.71a2.49 2.49 0 00-.7 1.28c.13 0 .87-1.28.7-1.28zm-1.6.29c0 .42.54-.37.26-.4a1.45 1.45 0 00-.26.4z"/><path class="cls-1" d="M22.18 38.36c.09-.26.34-.81.37-1 .13-.65-.46.84.13-.77.2-.55.51-1.84.19-1.19-.21.43-.51 1.15-.74 1.66a9.59 9.59 0 00.63-1.94c-.05-.09-.58.66-.15-.44a5 5 0 01-.74 1.52 13.78 13.78 0 00.71-2s0 .08-.11.2l-.24.45-.42.78c-.7 1.05.42-1.21.38-1.36a5.29 5.29 0 00-.53.66 8.5 8.5 0 00-.61 1.3c-.14 0 .54-1.37.64-1.62s-.1-.21 0-.58c.2-.61.18-.5-.12-.08s-.25.19-.19-.12c0-.13.43-1.26.15-.7-.14.26-.55 1.27-.64 1.35s.11-.5.27-.85c.63-1.41-.37.39-.45.62 0-.12.42-1.05.3-1.05s-.27.56-.47.91.3-1.17.31-1.23c.06-.24-.36.53-.51.68a7.53 7.53 0 00-1.07 1.32c-.2.3-.6.91-.45.46s.72-1.71.64-1.71.2-.62.34-1c.37-1-1.21 1.59-.38-.26-.47.9-.92 1.62-.9 1.25s.72-1.69.64-1.69a25.08 25.08 0 00-1.25 2.63 24.87 24.87 0 01-1.64 2.58c-.49.79.05.67.11.66.26 0 .67-1.49 1-1.93-.18.25-.41.63-.62 1 .28-.52.61-1.1.86-1.46.39-.55 0 .27-.22.73-.35.72-.73 1.75 0 .45.25-.44 1-1.84 1-1.52a20.31 20.31 0 01-1.2 2.36c-.32.65 0 .47.1.47.29 0 .17.73 1.12-1.24-.21.7.31-.31.45-.31s-.42 1-.34 1 1.24-2.43 1-1.36a8.78 8.78 0 01-.61 1.64c-.27.41.07-.49.09-.63s-.2.13-.41.57c-.31.65-.27.48-.36.42-.41.84-.28 1.29.11.44.15 0-.11.71.12.6a2.88 2.88 0 00.89-1.44 10.68 10.68 0 01.46-1.23c.14-.27 1-1.53.78-1.11-.33.7-.57 1.32-.83 2s-.42 1.12-.31 1.22-.22.9-.16 1c-.07-.18 2.85-6.37.54-1-.4.93-.41 1.3 0 .76.09-.13.36-.68.62-1.2l.5-1a3.5 3.5 0 01-.17.43l-.39 1a5.2 5.2 0 00-.48 1.37 19.75 19.75 0 011.37-3.08c.23-.11-.79 2.09-.87 2.53 0 .22.12.08.16.12s-.16.51-.15.66 1-1.43 1-1.43a6 6 0 00-.48 1.23c0 .17.13 0 .24-.19s.9-1.81.92-1.69-.54 1.7-.62 2.15c-.11.62.29-.23.49-.79s.02-.34.2-.98z"/><path class="cls-1" d="M17.64 34.77c.36-.66.82-1.7.5-1.32l-.1.11-1.1 2a10 10 0 01.57-.89c-.27.33-.81 1.81.13.1zm-1.85 1.63c-.18.22-.83 1.17-.71 1.23s.84-1.22.71-1.23z"/><path class="cls-1" d="M19.22 31.21c0-.05-.49.65-.52.67s.07-.4-.08-.34a2.28 2.28 0 00-.59.56c-.12.14-.51.77-.51.77l.27-.56c.14-.27.26-.51.19-.43-.3.39-1 1.51-1.28 2L15 36.73c.12 0 1.35-2 1.31-1.76s-1.43 2.18-1.24 2.21c.93-1.68.51-.57 1-1.3s1.13-2.14 1.29-1.88-.6 1.05-.89 1.45a15.67 15.67 0 00-1.07 2.25 28.54 28.54 0 001.77-2.75 15.45 15.45 0 011.68-2.6c-.18-.04-.11-.21.37-1.14zM18.18 31c0-.12-.24-.06-.61.38s-.87 1.31-1.12 1.62 1.1-2.08 1.14-2.22-.15 0-.26 0-.32.08-.39 0 .23-.76-.62.22c-.1.11-2.22 3.08-1.86 2.32 0-.09.68-.88.84-1.12a8.06 8.06 0 00.54-.93c.36-.79.25-1 .06-1s-.15-.2-.5.17c-.51.54-.17.43-.15.41s-.87 1.07-1 1.19c-.46.6-1.13 1.45-1.55 2s.09.14-.15.5c-.41.6-.55.82-.3.72s.57-.27 1.37-1.38c.26-.36.81-1.17.5-.91s.52-.77.58-.84 1-1.24.88-.91c0 .11-.62.79-.73.94a13.49 13.49 0 00-1 1.49s-.12.33-.27.68a2 2 0 01-.54.84c-.07 0 .13-.41-.11-.15s-.2 1.15.66-.36c.4-.58.27-.28.49-.47s.19-.22.52-.67c-.12.15-.74 1.47-.8 1.61-.26.61 0 .48.2.51-.21.87 1-1.54 1.55-2.27.14-.19.18-.12.18-.08a6.5 6.5 0 01-.47.79c-.41.64-.92 1.55-.47 1.1s1.05-1.33 1.49-1.83c.16 0 .64-.8.87-.94S16 34.2 15.89 34.38a11 11 0 00-1.05 1.81c-.13.51.55-.44.9-1.11.19-.36.35-.77.57-1.13s.24-.26.17-.11a8.7 8.7 0 001.7-2.84zm-3.6-.55c.66-.73-1 1.09 0 0z"/><path class="cls-1" d="M14.38 31.05c0-.13.61-.74.77-1s-.3.13-.57.42-2.68 3-2 2.62c-.4.52-.72.87-.74.71-.6.77.45.1.6 0a11.7 11.7 0 002.32-2.5c1.65-2.3-.37.08-.38-.25zm-.7-2.59c.29-.32.31-.35.26-.37h-.07c-.21.25-.31.42-.19.37zm-3.26.54l-.15.12-.38.29c-.44.32-.81.61-.67.67a10.7 10.7 0 001.59-1.38 3.25 3.25 0 00-.39.3z"/><path class="cls-1" d="M10.42 29c.2-.17-.59.45-.53.41l.38-.29zm-2.27 2c-.1 0 .19-.4.08-.45-.92.59-.15.45-.08.45z"/><path class="cls-1" d="M12 33.38c-.16 0 1-1.44.72-1.32s-.58.49-.81.65c0 0-.43.19-.17 0a9 9 0 00-.91 1c.62-.75 1-1.26 1.55-2-.47.44-1.77 1.71-1.59 1.25a7.56 7.56 0 011.47-1.75c.08-.08.39-.33.31-.36.13-.19-.17.05-.29.15a9.38 9.38 0 00-1.13 1c-.51.6-1.17 1.23-1.17 1s1.14-1.36 1.38-1.74c.12-.19-.35.13-.65.36a9.1 9.1 0 01-.84 1c-.8.79-.79.54-.08-.21-.26.27-.67.64-.61.47a9.83 9.83 0 011-1.15c1-1.05 2-2.11 3-3.16-.7.75-1.66 1.44-2.22 2.08-.28.32-.54.74-.93 1.12s.1-.34.16-.43c.42-.54 1.82-2 1.41-1.81a16.34 16.34 0 00-1.6 1.91c-1 1.34-.77.62-.88.57s-.76.39-.51 0c.12-.18.85-.9 1.09-1.14A23.54 23.54 0 0011.35 29c0-.06-1.88 1.87-1.88 1.82s.41-.47.12-.26-.76.77-1.06 1c-1.18 1-.07-.25.47-.76-.53.51-1.53 1.35-.68.44s2.39-2.45 3.27-3.22l-.65.4c-.49.33-1 .72-1.58 1.16-1.18 1.25.27-.6.29-.59l-.65.69c-.32.3-.58.52-.38.21s-.68.36-.76.31.68-.75.61-.79c.09.05-2.45 2.15-1.76 1.27.41-.51 2-1.81 2.74-2.49L8.19 29a10.79 10.79 0 00-1.27.87s.21 0 .1.15c-.41.53-.63 0-.63 0s-.48-.07.27-.59c2.43-1.66-1.12.3-.66-.29a23.54 23.54 0 012.17-1.64A23.66 23.66 0 0111 25.62c.53-.24.14 0-.64.63-.55.4-.9.95-1.1 1.07.59-.34 1.46-1 2.16-1.5-.37.27-3.34 2.61-2.4 2 .79-.53 1.79-1.34 2.33-1.62s1.11-.45 0 .42c.9-.75.49-.23.09.16-.13.12-1.21 1.22-.44.61.61-.5 1.39-1.13 1.09-.69s.18 0 .33 0c-.8.92.46.36.59.5s.13.12-.18.48a5.26 5.26 0 01-.52.5c-.21.2-.42.36-.42.36s.93-.7 1.13-.83c.37-.24.07.19-.12.5-1 1.17.06.06.38-.19s.25-.11.24 0-.48.49-.54.56.86-.67.84-.58a21.31 21.31 0 01-1.2 1.8c-.54.85.93-.91 1.3-1.31.74-.81-.19.51.35 0-1.07 1.2.43 0 .07.46a12.21 12.21 0 00-1.34 1.6l-.38.74 1.38-1.8a7.48 7.48 0 01.6-.76c.15-.1 0 .06-.22.36 0 .05.31-.11.1.16-.4.52-.49.63-.38.65s.56-.47.14 0c.37-.14 0 .06.8-.8-.25.26.14.45-1.05 1.62a16.15 16.15 0 01-1.19 1.49l-.59.74c.1.05.08.1-.21.43zm.12-3.15c.13-.29-.53.37-.88.75a6.41 6.41 0 00-.48.58 9 9 0 001.38-1.33zM8.45 26a5.58 5.58 0 001-.73c-.06-.05-1.74 1.18-1 .73z"/><path class="cls-1" d="M10.19 25.41c-.32.15-.79.47-1.15.61-.69.25.25-.24.72-.57.3-.21 1.48-1.11.69-.65-.59.35-1.46.94-2 1.33-1.17 1-.93.41-.89.38-.29.21-.76.52-1.23.82l-.33.16a7.36 7.36 0 00-1.26.74c-.36.38.35 0 .84-.33.13-.09 1.68-1 1.18-.62s-1.19.77-1.58 1.12 0 .22.24.16c.42-.11.38.12.6.16A13.31 13.31 0 008.8 26.9c.95-.74 2.43-1.98 1.39-1.49z"/><path class="cls-1" d="M6 27.49l.31-.16c.33-.23-1.02.5-.31.16zm-.84-2.17c-.51.16-2.15 1-1.58.85a5.3 5.3 0 001.58-.85zm.49-.73c-.69.12-2.42 1.13-2 1.11s2.92-1.41 2-1.11z"/><path class="cls-1" d="M5.65 24.59c.49-.15-.54.1 0 0zm-3.56-6.54c-1.06 0-2 .37-.81.26.72-.07 1.64-.31.81-.26zm5.49-3.53v-.06c-.65-.11-1.58.14 0 .06z"/><path class="cls-1" d="M10.41 24.55c-.26.09-1.36.51-.24-.11.79-.45.42-.45.37-.48s-.23-.28-.79-.17.31-.52.11-.61-2.3 1-.93.19c.89-.44-.16-.29.08-.4.81-.36.12-.48 0-.57s.26-.37.09-.48a3.54 3.54 0 01-.79.41c-.37.11-.17-.13-.21-.16s-.45.17-.53.1.34-.26.78-.44l.11.09c.81-.43.77-.48.36-.48s.45-.29.35-.37a9.33 9.33 0 00-1.59.22c-.45 0 .77-.42 1.08-.59.81-.43-.66-.18-.42-.47s.22-.18-.64.09c-.58.18.13-.28.11-.32-.07-.19-.5-.06.92-.5.48-.14-.62 0-.83 0-1 .16-1.32.34-1.44.19.39-.24-.37 0-1 .17a24.16 24.16 0 01-3 .67A15.25 15.25 0 015 19.88a16.25 16.25 0 011.87-.34c.86-.19 2.39-.6.83-.33.39-.18.88-.27.79-.37-.6.07-.64-.06-.66-.15s.49-.35-.12-.41a3.45 3.45 0 00-.88 0 7 7 0 001.71-.49l-.36.05-.9.16-1.47.27a6.56 6.56 0 002.25-.6c0-.11.13-.34-.77-.24a1.82 1.82 0 00.9-.34c.11-.14-.24-.05-.86 0 0 0 .86-.26.87-.29s-1.35 0-1.68 0-1 0-1 .12-.41.17-.38.22c-.08-.13-.08-.24.57-.42s1.31-.12 1.74-.23-1.18 0-1.37 0c-.41 0 .69-.24.87-.28.87-.23 1-.47-.45-.37-.24 0 .23-.39 1-.36a6.11 6.11 0 01-1.19 0c0-.09.54-.19.8-.28s-1.39.07-1.73.1a8.88 8.88 0 011.07-.22 7.5 7.5 0 001.4-.16 3.1 3.1 0 00-.52 0l-.07-.12h-.15c-.62-.05-1.61-.06-2.44-.05-.55 0-1.32.11-1.37 0l2.35-.13c.6-.05.29-.09.58-.15s1.12 0 1.21-.11.1-.15-.18-.15c-.43 0-1.32.17-1.72.15s.14-.15.44-.19c1.16-.15 1.38 0 1.26-.28s-1.85-.15-3.39 0C3 13.9 2 14 1 14c-1.93.08.8.17.81.19H.15c0 .09 1 0 1.26.1.46.13.3.31.65.44.16.07.82.21-.08.27a6.46 6.46 0 01-1.46 0c.09.18-.05.43.41.57a16.33 16.33 0 002.76-.12c-.78.06-.25.16-.2.2a9 9 0 01-1.11.12c-.55.05-2.79.37-1.49.39A16.86 16.86 0 003.15 16c.55-.07 1.17.09.71.15a4.77 4.77 0 00-1 .09c-.07.07.56.09 0 .21a10 10 0 01-1.13.18c.75-.09 4.81-.58 3.81-.19-.24.09-4.72.48-4.59.53a24.36 24.36 0 002.75-.17 15.38 15.38 0 00-2 .41c-.68.28 1.64-.27 1.34-.22.42-.06.36.13.55.1.65-.08.44 0 .49.08-.41.09-2.4.43-1.92.18-.77.08-2.05.46-1.12.43.64 0 2.53-.37 2.93-.3l-1.09.14a4.71 4.71 0 00-1.14.23c-.06.21 1.92-.12 2.62-.22.06.11-.81.14-.85.27s0 .16-.26.29a5.36 5.36 0 01-1.15.45c-.41.12-.9.18-.77.28s.5.07.19.21-.37.08-.3.1a3.15 3.15 0 00.9.11c.22 0 1.1 0 .72.18-.12.05-1.11.23-1.11.23.18 0 1.83-.23 2-.27-.47.18.6.07.37.16a21.41 21.41 0 01-2.23.55 6.89 6.89 0 011-.16 1.56 1.56 0 00-1.15.64c-.08.17-.67.56.56.14 1.52-.39.57 0 2-.28.2 0 1.06-.18.71 0a9.13 9.13 0 01-1 .22c-.62.19.72 0-.1.28a4.52 4.52 0 00-1.23.4c-.07.1-.89.26-.79.41.37 0 .6 0 .16.2.59-.18 2.86-.79 3.12-1s2.3-.76 1.43-.38c-1.73.65 1-.19.86 0a3.76 3.76 0 01-1.05.4c-.74.22-.31-.05-.72.06l-1.37.48-.91.33a2.12 2.12 0 01-.42.13c0 .05 1.93-.49 1.31-.23a7.5 7.5 0 00-.88.41c.6-.2.86 0 .46.16a6.65 6.65 0 00-1.55.6c.72-.25.27 0 .68-.08a8.29 8.29 0 001.07-.39.9.9 0 01.21-.16c.62-.18 2.28-.53 2.78-.64a15 15 0 00-1.74.69c.1.12-.76.38-.79.46s3-1 3-.73a20.63 20.63 0 00-3.38 1.19c-1 .42-.22.23.46 0-.67.26-3 1.21-1.38.71 2.51-.85-.39.25.33.14.94-.14 1.67-.61 1.54-.73a13.33 13.33 0 012.26-.84c-.5.26-1 .56-1.58.84s-1.17.5-1.71.76-.72.46-1 .58l1.66-.71-1.37.7c-.47.28.2.1.55 0-.29.12-.61.69-.67.72 1.08-.39 2.28-1.14 3.31-1.57.33-.13.36 0 .33 0s-.55.27-.7.38c-.64.44 1-.29 1.22-.36s.4 0 .25.11-1 .27-1.64.59c-.28.13-2 1.1-2.05 1.12.3-.09 2.54-1.1 2.93-1.29s.14.15-.39.43-2.43 1.27-2 1.29c.16 0 .54-.12.37.07a6.56 6.56 0 01-.6.33c-.22.24 1.63-.56 1.92-.66s-.62.59-.74.73c0 0-.85.71.23.11.75-.41 1.57-.95 1.72-.84-.95.51-3.29 1.79-2.39 1.55.16.12 2.8-1.69 3.42-1.94.14-.06-2.48 1.67-2.58 1.68.22 0 2.59-1.5 3.15-1.79s2.34-1.25 1.42-.9zM1.42 10.26c-.28 0-1.42-.18-1.42-.06s1.47.19 1.42.06zm5.75-.82c.5.1-.53-.17 0 0z"/><path class="cls-1" d="M1.8 13.58a10.63 10.63 0 002.11 0s-.47-.3.54-.19c.35 0-.09.11.42.13a9.61 9.61 0 002.42-.19c.46-.13.41-.35-.1-.48-.25-.06-2.3-.08-1.39-.23h1.48c.4 0 .22-.17.16-.23s-.69-.11-1-.22.07-.14.3-.22 1.16-.53-.23-.56c-.21 0-1.9-.07-1.32-.12s1.18 0 1.74 0c-.32 0-1.38-.18 0-.2.63 0-.45-.09-.48-.15s.87-.14 1-.24-.94-.1-.66-.16 1-.11.9-.25-.21-.08-.39-.12L6.93 10c0-.11.39-.18.34-.31s.53-.15-.1-.27a3 3 0 00-.63-.14c-.07 0 .23.12 0 .14s-.88 0-1.34.05c-.79 0-1.83.06-2.76 0a7.56 7.56 0 00-1.48 0c-.29.06 1 .16 1.21.19.89.14-.62.11-.42.2a4 4 0 00.75.09 5.89 5.89 0 00-1.27.14s2.77.33 3.07.4c1.1.27-1.09 0-1.06.07s.91.12 1 .19-.38.07-.65.07H1.67c.21 0 2 .32 1.84.34A22.64 22.64 0 01.83 11c-.53.05 1.57.51-.07.47h2.09c0 .15-1.68 0-1.06.21A2.92 2.92 0 003 11.9c.22.06.09.2.11.26-.1-.23-2.14-.24-1.1 0 .29.07-.61.09-.67.14s.38.21.43.33-1.55.37-.35.37c.39 0 1.47-.06 1.66 0s-.41.18.1.19a5.12 5.12 0 01.63 0 13.18 13.18 0 01-2.08.33c-.05-.11 1.07-.32-.6-.29-.06 0-.35.31-.33.35s.31.18-.39.2c.05.06 0 .08.29.13.75.09 1.21-.25 1.1-.33zm.49-9.29c.47 0 0-.08 0 0z"/><path class="cls-1" d="M1.44 9c.06-.08 1.28-.32 1.36-.1-.82.08 2.41.4 1.44.37-.56 0-1.33-.06-1.29.07s.06.11.4.13a7.39 7.39 0 002.22-.27 14 14 0 001.95 0c0-.08 0-.18-.15-.28s-.84-.29-.37-.34c.3 0 .46 0-.19-.18 0 0-.21-.2.14-.12l-1-.18c.23 0 1.3.2 1.54.14S7 8 6.89 8c-.36-.12-1.58-.3-1.19-.1-1-.08 0-.1-.47-.19-.14 0-.56 0-1-.07h-.76A15.5 15.5 0 016 7.7a11.79 11.79 0 001.2-.08c.19 0 .8-.37.85-.36l-1.7-.12c0-.16 1.2 0 1.34-.06s-.44-.24-1-.38-.34-.16.37 0 .42-.11.41-.16.1-.22-.36-.31c-.22 0-1.3-.19-.77-.18 1.43 0 1.3 0-.47-.24 0-.12 1.09.1 1.39.09 0-.07.7-.11.58-.19s-2.41-.2-1.51-.33c.46-.06 1.26.12 1.21-.07s-1-.19-1.48-.38a14.73 14.73 0 00-1.54-.28 2.18 2.18 0 01-1.42.11c-.7-.11 0-.32-.86-.43A8.2 8.2 0 00.59 4a10.09 10.09 0 011 .19c-.54-.19-1.26.02-1.18.1a4.8 4.8 0 001.49.57c.56.16 2 .34 1.12.38-1 0-.54.14.3.25a2.78 2.78 0 00-1.12.07c0-.09-.87-.4-1-.23s-.43.15-.4.25 3.21.44 2.35.51-3.44-.46-2.58 0a7.59 7.59 0 001.76.23c.7.07.75.17 1.5.22A9.1 9.1 0 012 6.43a12.69 12.69 0 00-1.73-.18c-.42 0 .09.12.37.15a11 11 0 012.44.3c.19.1-.09.14-.49.15a4.84 4.84 0 00-1.65-.28s.53.15.09.13-.32 0-.28.12-.6 0-.62.09a2.75 2.75 0 001.41.78c-.18 0-.59-.05-.8 0s-.15.15-.13.2-.48.2-.34.34 1.58.24 1.05.26c-.34 0-1.26.09-.45.16C0 8.59.7 9 .35 9.07c-.58.12 1.76.36 2.33.3A2.08 2.08 0 011.44 9zM.15 4h.44zm2.64-1.16v-.08c-.34 0-.54 0-.43.09.41.06.45.05.43-.01zm-.65-.74v-.07c-2.05-.28.05.27 0 .07z"/><path class="cls-1" d="M7.89 4.88c.13-.11.21-.19 0-.34s-.89-.31-.14-.21C7.33 4.24 7.07 4 7.33 4s.49.16.42.17c.42-.07.24-.34.26-.48s.31-.39-.91-.61h.77c-1.21-.34.47-.33.29-.5s-2.82-.47-3.95-.68a1.24 1.24 0 01-.33-.06A17.84 17.84 0 002 1.5c0 .08.91.22 1.15.32.48.2-.68 0-1.05 0s1.06.36 1.19.41c.41.15 0 .15.15.24a3.35 3.35 0 01.35 0l.74.14c.49.1.88.19.44.17a13.49 13.49 0 01-2.25-.37C1 2.12.3 2.06.75 2.41c.08.06.31.55.73.62.82.1.39-.18.5-.26s.66-.09 1.35.11c.44.12 1.08-.09 1.59.05.2.06-.53.1-.58.11s.18.17.11.21-1-.16-1.09 0 .34.13.09.16-2.15 0-2.05 0 1 .15 1.12.17c.53.12.49.18 1.06.3.4.09 1.66.31 1.87.38s-.77 0-.73 0l1.71.2c.43.06.75.15 1.14.2a23.14 23.14 0 00-2.43-.24h-.49a1.63 1.63 0 01-.72-.11c-.11-.07.37 0 0-.17a10.57 10.57 0 00-1.13-.31 22.62 22.62 0 00-2.33-.34c0 .06 1.9.36 2.16.41a17.6 17.6 0 00-2 0 20.94 20.94 0 002.14.31 12.94 12.94 0 011.4.25 22.59 22.59 0 003.72.42z"/><path class="cls-1" d="M3.88 1.84l.33.06s-.68-.16-.33-.06zm1.88.3c.36-.14.56 0 1.79.13.8.11.5-.09.46-.18s0-.64-2-.89c0-.16 1 .16 1.39.13A10.26 10.26 0 004.87.84c-.94-.1-1.52 0-.12.19A20.33 20.33 0 001.34.84c1.37.19 4.23.57 4.32.89l-1.21-.2c-.83-.15-1.68-.32-2.58-.43-1.36-.18 1.63.39 2.43.44-.47 0-1.6 0-.84.09A12.19 12.19 0 015.12 2a2.24 2.24 0 00.64.14zM1.57 0c-.84 0-.19.12.52.22V.14zm92.54 65.62c.5.55.75 0 .36-.46l-.12.16a3.15 3.15 0 01-.24.3zm-.25.28l-.06-.11c-.05-.06.1.66.06.11z"/><path class="cls-1" d="M93.8 65.79l.06.11c.07 1.1 1.37.86-.09-.37-.06.03-.03.12.03.26zm-30.64-.42c-.4 2.45.66 0 0 0zm-7.52-.59a.27.27 0 00-.25 0c-.16.26.13.63.17.63s.19-.62.08-.63zm24.6 3.79v-.51c-.02.21-.01.41 0 .51z"/><path class="cls-1" d="M90.6 60.88c-.48-.29-.32 0-.12.41s-.13-.07-.24-.14c.07 0 1.44 1.89.92 1.49a14.46 14.46 0 01-1.62-1.8c-.41-.48-1.08-1.1-.76-.48s.73.68 1.23 1.41c-.18.25-1-1-1.07-.87s.19.47.49.85c-.18.2-.85-1-1-.9s-.07.12-.34-.13c-.43-.42-.07.37.24 1s.42.81.27.95c-.29-.56-.56-1.09-.85-1.62-.38-.75 0 .33 0 .52s-.24.18-.32.28a2.5 2.5 0 00.06.78c-.19 0-1.45-2.84-.88-.74.24.62-.05.25-.18.14-.29-.46-.35-.14-.38.25-.19.75-.26.07-.7-.47s0 1.23.15 2.05c-.09-.35-.24-.46-.38-1.05a1.37 1.37 0 00-.26-.58c-.34-.39-.66 0-1-.11s-.71-.44-.92-.15a7 7 0 00.21 1.89c0-.38-.19-.24-.29-.61a4.39 4.39 0 01-.14-.77c0-.27-.24-.06-.29 0 .15 0-.1.4-.14.41-.21.08-.44-.29-.64-.13s-.12 1.64-.44 1.19-.72-1.9-1-1.41c-.13.21-.38 1.94-.42.25a2.24 2.24 0 00-.12.72c-.12-2.4-1-1.41-1.51-1.3-.14 0-1.07-.08-1.1.68-.15.09-.2-.19-.34-.27a1.08 1.08 0 00-.73 0c-.39.07-.67-.36-1.06-.29-.1 0-.4-.09-.43.54 0 .46-.08.72-.2.74s-.3-.2-.34-.66c-.16-.17-.38.19-.54-.05 0-.08-.2-1.15-.25-.3 0 .49-.19 1-.33 1 0-.25.13-1.23.12-1.27-.09-.39-.73.76-.87.86s-.35-.26-.53-.42-.51-.94-.67 0c-.1.6-.15 1-.28 1.58-.1-.46-.16-1.32-.27-1.68-.19-.64-.26 1.53-.28 1.75-.36 0 0-2.1-.13-2.62s-.48.35-.65.37-.59-.5-.65.07l-.05.47c-.1 0-.19.21-.28.52 0 .12-.18 1.17-.18 1.17-.15 0 .09-2.56-.08-2.91s-.72 0-1 0-1-.79-1.34.7c0-1-.78-.49-1-.58s-.3-.78-.36-.39c-.26.52 0 1.24-.09 1.58-.34 1.3-.5-1.87-.68-1.63 0 0-.15.77-.29 1.5S63 64 63 63.8c0-.39.69-3.81 0-2.88-.37.52-.64-.09-1 .76-.23.28-.8.91-.91.49.18-.92-.16-1.86-.39-.74.52-2.51-.71-1.48-1.12.73.05-.57.16-1.26.19-1.79 0-.72-.23-.53-.44-.53s-.66-.59-.82.41c0-.54-.27-.67-.49-.68-.41 0-.46.39-.81 1.58-.25 0 .17-1.48.1-1.85-.13.46-.39.91-.53.9.55-1.75 0-1.39-.39-1.42S55.3 60.66 55 61.22s-.45 1.4-.7 1.93-.13-.19-.06-.41c.24-.82.61-1.68.91-2.45a8.84 8.84 0 00.52-1.29c-.09.07-.25.23-.35.16a.86.86 0 00.1-.44c0-.06-.24-.15-.37.18s-.93 3.17-.94 3.08c-.1-.42.38-2.82-.45-1.13 0 .68-.55 1.63-.62 2.37s1.06-1.1.87-.33a6.43 6.43 0 00-.45 1.69c-.2.64.38 0 .49 0 .34 0 .83-1.52 1.15-2.31.18-.46.43-1.13.63-1.23s.45-.1.34.29-.61.79-.76 1a6.45 6.45 0 00-.64 1.64c.32-1.1.56-.56.92-1.14.28 0 .06.35.12.74s.34.2.49.24-.05.51-.08.9c0 .56.24.57.37.75s.61.93.73.19c.19-1.19.41-1.55.73-1.22s-.18 1.63.26.8.26.91.53.2c.08-.2.28-1 .45-1.68l.23-1c0-.26.09-.43.08-.43a10.08 10.08 0 01-.26 2c0 .66.26.6.09 1.38-.12 0-.13.46-.09.47s.16-.39.24-.46c.13-.61.42-.51.53-.46s0-1.52.26-1.22-.31 2.08-.21 2.48c.15.64.61-.41.79-1.19s.14-.54.4-.54c0-.07.27.47.32.06.09-.69.06-1.17.33-.54.12 1-.44.87-.63 1.87.38-.19.12 1 .59.19.27-.43.72.24.85-1-.12.62 0 .87.25.41a15.21 15.21 0 00.47-1.6c.32-1 .18.69.15 1s-.26 2.13.07 1.81.73-1 .46.37c.18-.91.58-3.57.87-2.47.15.58-.32 2.74.21 2 .08-.12.49-1.26.55-1s-.06 1.06 0 1.39.27-.35.44-.36.18-1 .33-1.29c.24-.48.44-.07.7-.79.06-.14.48-1.34.37-.37.11.6.35 1 .61.91s.37-.52.59-.72-.37 2.31-.22 2.81.36-1.15.4-1.34.32-.73.28-.24a17.9 17.9 0 01.14-1.8c.24.15-.09 2.79-.15 3.48.26 0 .2-1.42.55-1.46-.26 1.61.37.37.46.77s-.12 1 .1 1 .18-.16.32-.29.4.22.57.2l.81-.11a3.44 3.44 0 01.15-1.74c.24-.47.26.91.3 1.21 0 .75.28 1.13.47.79s-.12-1.08-.17-1.38.77-1 .71 0c-.1 2 .67-1.51.77-1.53 0 .41-.15 1.57 0 1.6s.83-.64.56.19c.13.09.59-.76.56-.09 0 .3.23 1.28.27.83a5 5 0 00-.45-2.23 2.47 2.47 0 01.26-.78c.17-.09.21.84.23 1.18l.3 2c.11-.33.21-.68.32-1 .22-1.25.18-.38.33.27.37 1.59 1.18-1.13 1.33.7 0 .22.32-1.62.4-.92 0 .13.08 2.06.26 1.29.09-.42 0-1.52.2-1.56s.35.72.32.82-.29-.73-.25 0c0 .54.36.74.49.72s.41.07.36-.43-.17-1.52-.38-1.47a3.69 3.69 0 010-1.16c.12-.4.28.36.36.59a10 10 0 01.48 2.48c0-.42 0-.92.12-1s.19.89.28 1.12c.2.56.53-.09.7-.38a3.5 3.5 0 00.54-1.37c0-.22 0-1.25.2-.83a13.8 13.8 0 01.13 2.41c.15-.15.15-1.44.22-1.47a2.63 2.63 0 00.27 1c.12.15.46.17.38-.48.12-.22.64-.64.56-1.17.44-.55.39.56.85 1.25.36.53.17-1.13-.19-1 .27-.1.54-1.21.31-2.33.14.73.13 1.3.32 2.07.12.45.26.73.36 1.12-.22-1.26 0-1.41.44-1.44s.67 1 1.12 1.51c-.2-.75.65-.85.76-1s-.21-1.23 0-1.23.62.6 1.08.94.82.39.35-.57c.16 0 1.17 1.09.94.39a17.81 17.81 0 01-.59-1.87c.35.78.66 1.5.93 2.27a25.45 25.45 0 00-.62-2.54c.1.19.9 2 .91 1.93.19-.51-.83-2.06-1.31-2.83.14-.15 1.2 1.64 1.46 2 .54.78.14-.18.56.08.2.12.52.71.53.38s-.31-.86 0-.86a2.39 2.39 0 01.61 0c.18.06 1.58.7 1.42.26 0 .06-.95-1.11-1-1.15-.78-.93-1-1.13-.5-1.12.2 0-.31-.54-.44-.77-.02.35-.92-.26-1.32-.49z"/><path class="cls-1" d="M85.27 67l.09.46a2.88 2.88 0 00-.09-.46zM51 62.21c-.1-.21-.31-.42-.48.4s.25.68.48.68l.05-.94c-.05-.12-.05-.15-.05-.14z"/><path class="cls-1" d="M53.82 58.32c0-.84-.47.43-.42-.31-.12-.66-1 .62-1.38.73.35-.9.24-1.06-.09-.84s-.61.87-1 1.32c.65-.87.75-3.25.18-1.1-.09.79-.48.48-.35-.09.18-.75.47-1.3.14-1.37-.1-.77-.93 1.92-1 2.17-.15.48-1.64 2.91-1.47 3.31s.6-.76.59-.14c0 .29-.28 1.38.08.94s.43-1.39.64-1.78.27-.44.39-.68c-.27.7-.59 1.84-.1 1.14a19.61 19.61 0 001.07-2.09l-1.07 2.64c.25 0 .48-1.09.75-1.22s.29.29.49.44.63 0 .62.75c0 .2-.12 1 0 1.06a8.69 8.69 0 01.47-1.58c.29 0-.07 1-.29 1.66a2.12 2.12 0 01.76-1.05c.31-.18.36-.31.61-1.22a11 11 0 00.38-2.69z"/><path class="cls-1" d="M50.94 56.66c.25.06-.06-.48 0 0zm-.71.34c.17-1.05-.84 1.21-1 1.67.1-.23 1.11-2.82.73-2.38s-.56 1.34-.86 1.38-.44 0-.51-.17.26-.47.35-.68c.35-.81 0-.79-.41 0 .19-.67-.82.85-.68.15a3.23 3.23 0 01.83-1.28c-.34-.09-1.12 1.19-1.63 2a18.44 18.44 0 011-2.13c-.39.56-1.76 2.38-2 2.3.37-.66 1.24-2.31.67-2-.34.16-.35 1.53-.93 1.88s.85-1.74.55-1.71c-.14 0-.82 1-.57.28l.32-.66a5.93 5.93 0 00-.66.88 4.48 4.48 0 00.79-2c.06-.3-.23.1-.48.48.29-.54.37-1 .25-1.09s-.53.38-.83.57-.6.37-.74.3.55-.93.7-1.15a3.1 3.1 0 00-.9.64 3.52 3.52 0 00-.24.32 37.79 37.79 0 00-2.05 3.32c-.88 1.37-.07.82.18 1.07s.27 1.1.87.52a3.41 3.41 0 001-1.85 14.18 14.18 0 001.76-1.94c-.26.46-.65.9-.95 1.4a3.74 3.74 0 00-.28.73c-.23.39-1.28 1.52-1 1.62s.53 1.82 1.51.08c-.11.19.37.38.48.39s-.14.85 0 1.09.43.41.85.09c.86-.66 0 .71.36.82.42-1 .2-1.07.87-2 .22-.31 1.14-1.48 1-.78a12 12 0 01-1.59 2.88c.18 0 .74.59 1.13-.07a19.79 19.79 0 011.32-2.65 3.61 3.61 0 00.79-2.32zm-8.6.18c-.42.18-.62.75-.4.84s.6-.76.4-.84zm1.43-3.44l-.12-.06c-.58.32-.81 1.32.12.06z"/><path class="cls-1" d="M41.41 55.54c.61-1 1.28-2.18 2-3.16a3.4 3.4 0 00-1.5 1c-.66.71.38.23.2.41-.39.42-.93.5-.65 0s1-1.21 1.05-1.65c.25-1.5-1.22 1.4-1.49 1.45s1.09-1.92 1.05-2.18c-.08-.46-.05-.6-.94.46-.25-.13.35-.83.38-1.22s-.25-.49-.91.28c1.19-1.28-.85-.54-.69-1.2v-.12a28.39 28.39 0 00-2.09 2.52c-.58.61-.29.66-.51.94s-1.18 1.38-.57 1c.35-.24.5-.62.66-.52a1.46 1.46 0 00.3.17c.24 0 1-.87 1.44-1.13 1.15-.7-1.64 1.79-1.61 1.73-.14.2 1.17-.72.85-.15s-1.07 1.46-.62 1.52c.11 0 1-.28 1.21-.77 0-.11-.61.08-.43-.09.57-.53 1.1-.2 1.07.13 0 .17-.24.35-.38.43-.41.25-.37.26-.85.87A18.1 18.1 0 0040 54.87c-.2.25-1.52 1.87-1.13 1.67s.87-.86 1.16-.94c.1 0-.18.46-.2.58-.09.66 1.65-1.86.33.33-.44 1-.48 1.37.39.69s-.55 1.43.19.7a29.44 29.44 0 002.71-3.23c1.67-2.27-1.4.41-2.04.87z"/><path class="cls-1" d="M40 49.53a.84.84 0 000 .12s.23-.38 0-.12zm-8-2.9c-.17-.19-1.31.28-1.31.65.14.17 1.5-.43 1.31-.65zm-2.12-1.75c-.13.55.8.27.47-.14a.77.77 0 00-.47.14z"/><path class="cls-1" d="M37.33 52.23a9.12 9.12 0 00.76-.73c.32-.61-.87.47.35-.73.41-.42 1.13-1.56.52-1.17-.41.27-1 .77-1.45 1.1.43-.41 1.44-1.32 1.35-1.54s-1 .13-.14-.67c-.52.48-1.14 1-1.41.95.24-.22 1.63-1.4 1.48-1.51s-1.23.7-1.44.77c-1.25.44.89-.92.87-1.13s-.76.13-.92.14a5 5 0 00-1.18.83c-.2-.16 1.11-1 1.3-1.16s-.07-.35.19-.64c.44-.49.38-.39-.15-.24-.34.09-.4-.07-.23-.36.07-.12.93-1 .38-.64a8.45 8.45 0 01-1.24.82c-.18 0 .29-.45.61-.68 1.26-.9-.61 0-.77.21 0-.14.86-.75.7-.9s-.52.35-.89.52.74-1 .78-1.07c.15-.22-.63.18-.87.17a4.64 4.64 0 00-1.77.24c-.35.11-1.06.32-.73 0s1.48-1.13 1.38-1.24.47-.49.79-.81c.83-.77-2 .36-.36-.8-.89.49-1.71.77-1.52.35s1.52-1.08 1.43-1.2-2.31 1.39-2.51 1.52a12.19 12.19 0 01-2.92.95c-.88.29-.21.9-.14 1 .32.31 1.37-.93 1.93-1a5.46 5.46 0 00-1.12.4 7.64 7.64 0 011.61-.72c.67-.15-.06.36-.53.6-.69.42-1.52 1.17-.17.55.47-.22 1.87-.94 1.75-.55s-1.88 1-2.31 1.29c-.63.37-.12.62 0 .72.36.41 0 1.1 1.83-.06-.5.57.49 0 .67.2s-.85.62-.75.74 2.35-1.36 1.67-.42a4.49 4.49 0 01-1.3 1.19c-.47.15.25-.5.31-.64s-.31-.1-.71.17c-.61.4-.51.23-.6.05-.8.5-.76 1.2 0 .68.2.19-.35.71 0 .86s.91 0 1.61-.61a6.75 6.75 0 011-.92c.28-.14 1.76-.62 1.37-.36A12 12 0 0034 48.14c-.57.55-.87.84-.75 1.07s-.53.81-.48 1c0-.3 5.62-4.15 1-.57-.8.62-.91 1-.26.83a9.7 9.7 0 001.18-.68l.65-.42.3-.18c.07.06-2.36 1.84-2.14 2 .57-.49 2.35-2.16 2.7-2s-1.63 1.53-1.86 2c-.11.21.15.23.2.32s-.34.43-.36.6.46 0 .92-.15.92-.36.92-.36c-.2.23-.87.53-1 .9-.05.18.21.12.4 0s1.72-1.1 1.72-.94-1.07 1.44-1.28 1.82c-.29.59.51 0 .91-.38s.12-.27.56-.77z"/><path class="cls-1" d="M32.22 42.5c.68-.32 1.63-1 1.12-.94h-.16l-2.06.91a4.25 4.25 0 011-.31c-.45.08-1.67 1.16.1.34zm-2.73-.56c-.29 0-1.41.29-1.32.53s1.45-.33 1.32-.53z"/><path class="cls-1" d="M35.5 40.31s-.81.14-.85.11.26-.39.09-.51a1.78 1.78 0 00-.88-.13A6.91 6.91 0 0033 40s1.18-.59.95-.56a22.72 22.72 0 00-2.28.65l-3.13 1.1c.12.2 2.35-.5 2.2-.31s-2.53.67-2.33 1c1.76-.77.8 0 1.66-.19s2.19-1.07 2.24-.57-1.11.47-1.61.55A8.34 8.34 0 0028.49 43c.12.18 2.72-.79 3.15-1 .86-.32 2.76-1.15 3-.89-.22-.2-.07-.32.86-.8zm-.95-1.59c0-.2-.2-.41-.79-.39s-1.51.34-1.92.35a23 23 0 012.28-1.06c.17-.16-.11-.26-.25-.34a.62.62 0 01-.34-.55c0-.29.66-.59-.65-.63-.16 0-3.76.54-3 .14.1-.05 1.12-.09 1.4-.15a3.7 3.7 0 001-.36c.79-.42.84-.82.73-1.15 0-.13 0-.47-.48-.53-.76-.09-.43.27-.4.28s-1.38 0-1.53 0c-.76.05-1.83.09-2.56.19s0 .31-.45.39c-.72.14-1 .19-.72.45s.61.54 2 .35c.44-.07 1.4-.24 1-.38s.91-.17 1-.17 1.63 0 1.29.18c-.11 0-1 0-1.2.07a7.1 7.1 0 00-1.72.42 5.73 5.73 0 01-.65.44c-.35.21-.74.39-1 .23s.37-.31 0-.35-.89 1.14.77.55c.68-.13.39 0 .69.15s.29 0 .85-.08a12.24 12.24 0 00-1.66.83c-.59.38-.24.64-.11.92-.69.79 1.81-.39 2.69-.53.24-.05.23.1.21.15a3.25 3.25 0 01-.88.29c-.73.19-1.72.59-1.05.69s1.73-.14 2.41-.11c.15.25 1-.08 1.34.07.11.06-2.09.42-2.31.47a5.8 5.8 0 00-2 .73c-.39.45.77.25 1.46-.08.37-.17.74-.45 1.14-.59s.36 0 .22.12c.3.44 3.13-.67 3.19-1.01zM32 32.86c1 .08-1.5-.18 0 0z"/><path class="cls-1" d="M31.4 33.29c.1-.16 1 0 1.27-.1s-.28-.29-.68-.33-4.06-.3-3.33.15c-.65 0-1.12 0-1-.24-1 0 .23.81.41.89a6.21 6.21 0 003.43.4c2.78-.27-.34-.35-.1-.77zm1.73-4.18c.42.06.47.05.45-.05v-.12c-.35 0-.58.06-.45.17zm-1.7-4.26l-.18-.08-.42-.23c-.49-.27-.9-.49-.93-.21s1.68.75 2 .76a2.21 2.21 0 00-.47-.24z"/><path class="cls-1" d="M31.43 24.85l-.6-.31.42.23zm-2.88-1.01c0-.2.48-.18.52-.39-.91-.67-.52.25-.52.39z"/><path class="cls-1" d="M28.08 32.61c-.08-.31 1.71-.35 1.48-.54s-.74-.28-1-.44c0 0-.41-.4-.07-.3a4.59 4.59 0 00-1.34-.17c1 0 1.62 0 2.52-.07-.64-.19-2.45-.59-1.94-.89a3.81 3.81 0 012.28.1c.12 0 .5.17.48 0 .23 0-.13-.2-.28-.27a5.33 5.33 0 00-1.53-.43c-.79 0-1.67-.28-1.45-.58s1.76.07 2.22 0c.22 0-.28-.37-.63-.53a5.08 5.08 0 01-1.35 0c-1.09-.25-.85-.55.16-.38-.37-.07-.89-.25-.7-.35a4.91 4.91 0 011.5.06c1.41.17 2.86.42 4.28.66-1-.16-2.09-.77-2.95-.85a6.68 6.68 0 01-1.45-.06c-.54-.15.36-.26.47-.26.69 0 2.68.34 2.34-.05a8 8 0 00-2.44-.12c-1.71.13-.92-.42-.9-.65s-.68-.67-.19-.77a10.35 10.35 0 011.56.28 11 11 0 002.51.29c0-.12-2.58-.6-2.52-.67s.62.07.3-.12-1.06-.22-1.43-.36c-1.46-.55.24-.39.95-.18-.7-.19-1.91-.71-.67-.51a28.15 28.15 0 014.45 1.12s-.6-.48-.62-.5c-.51-.34-1.08-.64-1.72-1-1.72-.32.76-.29.75-.25l-.93-.25c-.41-.12-.72-.26-.32-.32s-.56-.6-.53-.76 1 .15 1.06 0c0 .19-3.06-1.17-1.86-1.15a23.4 23.4 0 013.52 1.23l-1.23-.87a5.22 5.22 0 00-1.27-.88c-.06 0 0 .32-.18.31-.71 0-.09-.91-.09-.91s0-.77.79-.25c1.22.83 1.09.53.76 0s-.82-1.29-.43-1.25a13.17 13.17 0 012.36 1.36 12.63 12.63 0 012.75 2c.37.5 0 .23-.87-.26-.58-.36-1.34-.28-1.52-.45a15.32 15.32 0 002.18 1.48c-.4-.22-3.75-2-2.84-1.3a24.44 24.44 0 012.36 1.59c.33.36.73 1.1-.51.48 1.07.47.36.45-.18.3-.18-.06-1.7-.41-.81 0 .71.34 1.62.77 1 .82s.08.21.05.49c-1.27-.13-.26 1.1-.38 1.43 0 .12-.08.32-.56.29a6.74 6.74 0 01-1.21-.38 10.35 10.35 0 001.26.69c.37.27-.17.33-.55.41-1.55-.12 0 .15.33.33.2.1.2.25.14.31s-.67-.14-.76-.15 1 .51.91.57a13 13 0 01-2.22.36c-1 .21 1.27.3 1.81.37 1.08.14-.53.32.22.48-1.6-.15.18.7-.37.66a6 6 0 00-2.13 0c-.29.1-.55.21-.83.33l2.27-.1a4.72 4.72 0 011 0c.16.11 0 .13-.43.12 0 .06.28.33-.06.34-.66 0-.8 0-.75.23s.71.24 0 .24c.33.38 0 .11 1.12.22-.37 0-.27.75-1.93.4a7.68 7.68 0 01-1.9 0h-.95c.11.2.07.22-.36.23zm2.7-3.68c.33-.15-.58-.36-1.09-.42a3.9 3.9 0 00-.76 0 4.53 4.53 0 001.85.42zM34.93 19a3.19 3.19 0 001 .71c.14-.17-1.62-1.29-1-.71z"/><path class="cls-1" d="M35.8 20.78c-.21-.3-.68-.62-.88-1-.37-.69.34.12.81.45.29.19 1.6 1 .94.33-.5-.48-1.35-1.1-1.91-1.54-1.52-.6-.58-.86-.54-.83-.3-.2-.75-.54-1.19-.89l-.22-.3c-.3-.36-.78-.94-1.06-1-.54-.13 0 .47.47.83.12.1 1.51 1.29.89 1S32 17 31.48 16.78s-.31.24-.22.49c.16.47-.16.65-.21 1-.07.49 1.84 1.61 2.64 2.07 1.06.55 2.84 1.38 2.11.44z"/><path class="cls-1" d="M32.81 17l.22.28c.33.3-.69-.85-.22-.28zm3.52-2.79c-.19-.52-1.35-2-1.16-1.37.14.42 1.02 1.54 1.16 1.37zm1.17.13c-.09-.75-1.49-2.22-1.54-1.77s1.88 2.69 1.54 1.77z"/><path class="cls-1" d="M37.5 14.34c.17.5-.08-.59 0 0zm13.38-4.83c.45-1 .09-2-.19-.86-.15.71-.13 1.65.19.86zm3.56 7.15h.1c.46-.39.67-1.4-.1 0z"/><path class="cls-1" d="M37 20.3c-.14-.25-.72-1.34.15-.41.63.66.65.18.71.1a1.27 1.27 0 00.31-1.15c-.09-.64.81 0 1-.28s-1.27-2.18-.17-1c.59.8.51-.36.66-.14.47.76.79-.15 1-.27s.59.1.82-.15a1.7 1.7 0 01-.54-.71c-.13-.37.24-.27.31-.33s-.21-.44-.06-.55.4.27.6.7l-.18.15c.59.75.7.68.79.22s.41.4.57.25-.06-1.14 0-1.68.57.71.8 1 .4.18.51-.09.22-.58.45-.47.27.21 0-.66c-.16-.57.48.09.56.06.36-.11.26-.52.64.91.12.49.21-.64.21-.85 0-1-.24-1.34.08-1.48.32.39.15-.39 0-1s-.57-3-.33-3.1.43 2.23.47 2.6a10 10 0 01.07 1.91c.08.89.38 2.43.35.84.21.41.23.91.43.83.06-.6.31-.62.48-.65s.47.5.76-.07a2 2 0 00.25-.86 4.18 4.18 0 00.28 1.78 2 2 0 000-.37v-2.36c0 1.09 0 2.29.28 2.32s.54.26.69-.65c0 .58.12.87.25 1s.17-.21.3-.82c0 0 .12.9.15.93a9.38 9.38 0 00.61-1.57c.07-.2.37-1 .2-1s-.13-.47-.23-.46c.26 0 .46.05.5.74a15.1 15.1 0 01-.33 1.72c0 .57.52-1.08.62-1.26.19-.37.11.76.1 1 0 .94.25 1.19.8-.17.09-.23.51.43.1 1.06.18-.29.48-1.05.62-1s0 .62 0 .91c0 .44.61-1.25.74-1.56-.18.4.09.4-.22 1.08-.09.2-.63 1.38-.49 1.33a1.77 1.77 0 00.31-.43h.22c0 .12.09 0 .15-.09a22.18 22.18 0 001.43-2c.31-.46.58-1.2.79-1.13-.37.68-.79 1.38-1.14 2.06s0 .32-.11.61-.59 1-.54 1.1.14.21.31 0 .53-1.22.81-1.52.13.25 0 .53c-.48 1.06-.75 1.14-.38 1.26s1.37-1.27 2.15-2.62a21.22 21.22 0 011.49-2.4c1.09-1.61-.79.41-.83.4s.8-1.28.89-1.41c-.2-.08-.64.74-1 .88-.52.22-.73-.1-1.18 0-.21.06-.83.45-.42-.36.14-.29.6-1.29.79-1.22-.39-.13-.8-.47-1.32-.22s-.94 1.79-1.23 2.48c.3-.73-.15-.36-.25-.35s.34-1.07.34-1.07c.21-.52.72-2.74 0-1.61a8.31 8.31 0 00-.59 2.19c-.16.54-.74 1-.63.53 0-.09.43-.83.32-1s-.44.44-.41-.13A4.62 4.62 0 0154 10c-.2.73-1.23 4.7-1.42 3.55-.06-.29 1.27-4.57 1.11-4.5-.36.18-.8 2.14-1 2.56a7.7 7.7 0 00.09-2c-.24-.78-.2 1.65-.17 1.35-.07.42-.4.26-.44.45-.13.65-.17.41-.36.41 0-.43.21-2.44.49-1.87.19-.75 0-2.14-.37-1.26-.22.6-.36 2.53-.65 2.86v-.32l.13-.76c.08-.55.15-1.12 0-1.15-.41-.15-.57 1.86-.66 2.56-.23 0 .05-.82-.18-.9a.6.6 0 01-.46-.35 4.21 4.21 0 01-.44-1.27c-.06-.42 0-.91-.26-.81s-.33.47-.48.14c0-.28 0-.38-.1-.31-.24.09-.35.52-.55.85s-.48 1.07-.62.69a7.76 7.76 0 01-.05-1.13 12.42 12.42 0 00-.15 2c-.2-.49-.36.61-.45.37a11.6 11.6 0 01-.32-2.28 3 3 0 010 1c.15-.72-.78-1.19-.87-1.19-.31-.07-.9-.65-.45.59.26 1.54-.14.58-.09 2 0 .2 0 1.08-.15.73s0-.73-.12-1c-.19-.62-.29.74-.51-.08-.17-.61-.18-1.16-.4-1.23s-.23-.9-.55-.75c-.11.39-.14.63-.44.2a19.69 19.69 0 00.89 3.18c.36.35.8 2.3.31 1.46-.73-1.73.09 1-.23.89-.15 0-.33-.58-.46-1-.2-.74.19-.33.1-.75 0-.12-1.1-2.69-1-2.73-.09.05.4 1.95.07 1.35a4.34 4.34 0 00-.52-.84c.2.61-.24 1-.42.57s-.44-1.45-.73-1.52c.27.72-.17.31 0 .73a4.8 4.8 0 00.44 1.05.47.47 0 01.24.18c.19.63.4 2.33.49 2.84a8.48 8.48 0 00-.84-1.68c-.24.18-.5-.69-.64-.69s1 3 .6 3c.22-.25-.94-2.58-1.34-3.32-.53-1-.38-.15-.05.51-.31-.65-1.48-2.88-1-1.27 1 2.48-.34-.33-.32.46 0 1 .71 1.63 1 1.42s.84 1.81 1 2.19c-.35-.44-.77-.89-1.14-1.4s-.64-1.1-1-1.6-.66-.59-.81-.85l.9 1.56s-.86-1.15-1-1.24c-.38-.39-.21.3-.09.65-.16-.28-1.09-.31-1.12-.37C36.9 13 38 14 38.51 15c.17.31 0 .41-.09.41s-.37-.49-.52-.61c-.64-.5.31 1 .39 1.25s-.13.49-.23.37a12.92 12.92 0 00-.71-1.62c-.17-.29-1.53-1.8-1.55-1.8a26.69 26.69 0 001.69 2.73c.21.5-.27.29-.65-.18S35.1 13.43 35 13.92c0 .21.12.59-.17.52s-.39-.48-.45-.5c-.37-.11.69 1.64.82 1.93s-.87-.32-1.07-.36-1-.52-.21.4c.58.62 1.35 1.24 1.17 1.52-.75-.69-2.56-2.68-2.26-1.68-.18.33 2.41 2.22 2.75 2.83a23 23 0 01-2.39-1.94c0 .3 2.12 2.11 2.54 2.6s1.8 1.96 1.27 1.06zm26.12-.3c.28.1 1.41.34 1.42 0s-1.47-.26-1.42 0zm-5.92 1.57c-.47-.21.48.33 0 0z"/><path class="cls-1" d="M59.41 13.08C59.23 13 58 14.57 58 14.68s.76 0-.09.63c-.28.21-.09-.19-.45.16a7.37 7.37 0 00-1.38 2c-.17.47 0 .58.51.35.23-.13 1.81-1.44 1.25-.68-.21.26-.84.68-1.12 1s-.08.26 0 .27.63-.29.94-.34 0 .18-.16.34-1 .7.39.43c.2-.05 1.87-.39 1.32-.16a16.09 16.09 0 01-1.7.38c.31-.1 1.4 0 0 .21-.62.09.47 0 .5.12s-.86.25-1 .37 1 .09.67.19-1 .17-.92.36.75.3.75.32c0 .18-.42.28-.4.48s-.56.23 0 .48a1.67 1.67 0 00.59.3c.06 0-.19-.24.09-.25s.89 0 1.35 0c.8 0 1.86 0 2.78.07a3.49 3.49 0 001.51-.05c.3-.12-1-.35-1.18-.41-.87-.29.65-.24.45-.45a1.64 1.64 0 00-.73-.15c.37-.1 1.19-.15 1.28-.38l-3.06-.6c-1.12-.39 1.08-.13 1-.26s-.92-.13-1.06-.23.37-.19.64-.25c.62-.14 1.24-.29 1.86-.47-.21-.08-2-.26-1.92-.28a2.52 2.52 0 011.48-.22 3.52 3.52 0 001.22 0c.25-.13-.2-.39-.52-.61s-.52-.42.25-.72l-2 .71c-.16-.29 1.56-.62.79-.9-.39-.12-.53-.13-1.22.23-.25 0-.27-.34-.37-.44.33.38 2.13-.6.93-.61-.33 0 .38-.53.35-.69-.06-.38-.61-.2-.83-.39s.64-1.6-.3-.84c-.29.26-1 1.1-1.16 1.19s0-.55-.35-.2c-.09.09-.19.37-.39.49a9.16 9.16 0 01.94-2c.22.13-.23 1.24.9 0a2.34 2.34 0 00-.38-.8c-.18-.11-.52 0-.1-.59-.15-.06-.13-.13-.43 0-.52.53-.31 1.27-.11 1.29zm-.64 18.68c-.41-.25-.06.14 0 0z"/><path class="cls-1" d="M62.81 22.82c-.09.16-1.4.54-1.4.1.86-.11-2.29-.93-1.33-.81.57.06 1.33.19 1.32-.06 0-.07 0-.23-.35-.28-1.48-.22-1.53.38-2.32.39-.55 0-1.87-.38-1.95-.18a.62.62 0 000 .49c.08.18.73.59.26.63-.31 0-.46 0 .13.32 0-.07.12.38-.2.2l.92.44c-.24 0-1.23-.51-1.48-.45s.39.42.48.5c.3.25 1.43.77 1.15.35 1 .3-.08.19.36.42a9.21 9.21 0 00.92.27 5.27 5.27 0 01.73.19c0 .29-1.92-.5-2.42-.56a7.23 7.23 0 00-1.24-.08c-.2 0-1 .47-1 .44s1.36.44 1.61.55c0 .28-1.17-.29-1.35-.18s.29.49.7.84.23.35-.39 0-.48.08-.5.17-.25.33.15.59c.18.12 1.13.66.61.51-1.38-.42-1.3-.28.29.52-.05.22-1-.46-1.29-.54 0 .13-.77 0-.71.12s2.18 1.06 1.22 1c-.51 0-1.13-.58-1.22-.28s.8.63 1.1 1.1a7.86 7.86 0 001.23 1 1.52 1.52 0 011.49.24c.58.42-.34.57.43 1.05-.06.15.82.7 1.37 1a4.55 4.55 0 01-.82-.68c.41.47 1.3.37 1.31.18 0-.35-.44-1-.93-1.49s-1.65-1.15-.76-1c1 .34.66-.13-.08-.53.51.2 1.1.27 1.16.14-.1.15.53 1 .77.67s.55-.18.61-.39-2.84-1.56-1.94-1.48 3.07 1.61 2.58.51c-.16-.35-1-.54-1.59-.79s-.62-.46-1.34-.71c0-.2 1.43.44 1.78.58a6.62 6.62 0 001.61.67c.41.11 0-.26-.26-.37-.7-.3-1.93-.47-2.24-1-.12-.21.18-.25.59-.18 0 .17 1.27 1 1.46.82 0 0-.42-.39 0-.27s.34 0 .38-.2.59.13.67-.09-.48-1.8-1-1.76c.19 0 .56.18.78.17s.23-.28.24-.39c0-.27.58-.38.5-.68s-1.49-.62-.94-.61c.34 0 1.32-.11.52-.3.87.1.32-.79.7-.92.62-.25-1.66-.82-2.26-.72.62-.14 1.24.71 1.18.81zM60.53 33l-.39-.23zm-3.85 1.1l-.07.13c.31.16.53.2.52 0-.34-.23-.38-.23-.45-.13zm-.3 1.5l-.08.13c1.53 1.35.29-.48.08-.13z"/><path class="cls-1" d="M53.9 28.91c-.21.11-.36.2-.28.5 0 .11.54.8-.07.37.33.3.33.76.13.59s-.31-.43-.23-.42c-.47-.06-.53.38-.68.58s-.66.39.22 1.27c.16.16-.47-.22-.66-.4.74 1-.77.21-.79.52a35.51 35.51 0 002.67 3l.21.26a8.55 8.55 0 001.3 1.44c.09-.14-.54-.78-.62-1-.18-.54.64.31 1 .5s-.51-1.08-.58-1.22c-.19-.42.18-.23.16-.44 0 0-1.74-1.7-1-1.23.29.17 1.77 1.37 1.68 1.55 1.12 1.28 1.73 1.7 1.76.9 0-.15.41-1.1.07-1.38-.66-.49-.59.18-.78.26-.38.18-.74-.13-1.17-.73-.27-.37-1.11-.31-1.42-.75-.12-.18.61.07.66.07.25 0 0-.34.14-.37s.8.66 1 .5-.17-.33.1-.3a19.43 19.43 0 002 .75c0-.05-.81-.63-.89-.71-.39-.4-.28-.49-.71-.9s-1.35-1.12-1.49-1.31.77.24.74.2-1.23-.75-1.45-.92-.58-.5-.91-.72a12.42 12.42 0 002.11 1.24 4.58 4.58 0 01.5.14c.25.09.53.22.58.42s-.4-.05-.2.28a5.57 5.57 0 00.8.94c.12.12 1.82 1.57 1.89 1.41A12.72 12.72 0 0058 32.34c.33.14 1.93.83 2 .68s-1.55-1.09-1.77-1.23c0 .11-.92-.76-1.12-.9-.54-.43-2.88-2.15-3.21-1.98z"/><path class="cls-1" d="M54.42 35.21l-.21-.21s.4.53.21.21zm-1.31-1.37c-.49 0-.54-.24-1.44-1.1-.59-.56-.54-.14-.6 0-.17.35-.69.83.68 2.28-.17.23-.65-.76-1-1-.17.22 1 1.6 1.48 2.06.66.68 1.32.86.37-.19.3.37 3 2.67 2.75 2.09-1-1-3-3.08-2.64-3.55.29.3.56.6.82.92a25.76 25.76 0 001.74 2c1 1-.93-1.42-1.59-1.9.43.23 1.42.82.88.27a6.38 6.38 0 01-1.1-1.31s-.23-.58-.35-.57zm.71 5.34c.67.55.36-.07-.1-.61l-.1.12c.03.12.14.31.2.49z"/></g></g></svg>